SplineFontDB: 3.0
FontName: Renner-it-SemiItalic
FullName: Renner* Semi Italic
FamilyName: Renner*
Weight: Semi
Copyright: Copyright (c) 2018, Owen Earl,,,
UComments: "2018-6-8: Created with FontForge (http://fontforge.org)"
Version: 003.000
ItalicAngle: -10
UnderlinePosition: -100
UnderlineWidth: 50
Ascent: 800
Descent: 200
InvalidEm: 0
LayerCount: 2
Layer: 0 0 "Back" 1
Layer: 1 0 "Fore" 0
XUID: [1021 69 1495626776 9435324]
FSType: 0
OS2Version: 0
OS2_WeightWidthSlopeOnly: 0
OS2_UseTypoMetrics: 0
CreationTime: 1528479894
ModificationTime: 1528558427
PfmFamily: 17
TTFWeight: 600
TTFWidth: 5
LineGap: 100
VLineGap: 0
OS2TypoAscent: 825
OS2TypoAOffset: 0
OS2TypoDescent: -225
OS2TypoDOffset: 0
OS2TypoLinegap: 100
OS2WinAscent: 900
OS2WinAOffset: 0
OS2WinDescent: 300
OS2WinDOffset: 0
HheadAscent: 1030
HheadAOffset: 0
HheadDescent: -350
HheadDOffset: 0
OS2CapHeight: 700
OS2XHeight: 460
OS2Vendor: 'PfEd'
Lookup: 1 0 0 "Tabular Numbers lookup" { "Tabular Numbers lookup"  } ['tnum' ('DFLT' <'dflt' > 'grek' <'dflt' > 'latn' <'dflt' > ) ]
Lookup: 1 0 0 "alt a" { "alt a"  } ['ss01' ('DFLT' <'dflt' > 'latn' <'dflt' > ) ]
Lookup: 258 0 0 "Lets get our kern on" { "kernin like nobodys business" [150,0,4] } ['kern' ('DFLT' <'dflt' > 'latn' <'dflt' > ) ]
MarkAttachClasses: 1
DEI: 91125
KernClass2: 16 14 "kernin like nobodys business"
 15 slash seven V W
 175 quotedbl quotesingle asterisk grave dieresis ordfeminine macron degree acute ordmasculine circumflex breve dotaccent ring tilde quoteleft quoteright quotedblleft quotedblright
 17 nine question F P
 107 A L backslash Agrave Aacute Acircumflex Atilde Adieresis Aring Amacron Abreve Aogonek Lacute uni013B Lslash
 26 three eight B C germandbls
 5 K X Z
 125 at D G O Ograve Oacute Ocircumflex Otilde Odieresis Oslash Dcaron Dcroat Gcircumflex Gbreve Gdotaccent uni0122 Omacron Obreve

StartChar: H
Encoding: 72 72 0
Width: 764
VWidth: 0
Flags: HW
LayerCount: 2
Fore
SplineSet
176 307 m 1
 199 438 l 1
 714 438 l 1
 691 307 l 1
 176 307 l 1
669 700 m 1
 813 700 l 1
 690 0 l 1
 546 0 l 1
 669 700 l 1
199 700 m 1
 343 700 l 1
 220 0 l 1
 76 0 l 1
 199 700 l 1
EndSplineSet
EndChar

StartChar: O
Encoding: 79 79 1
Width: 811
VWidth: 0
Flags: HW
LayerCount: 2
Fore
SplineSet
250 350 m 0
 226 216 299 120 427 120 c 0
 555 120 662 216 686 350 c 0
 710 484 639 580 508 580 c 0
 380 580 274 484 250 350 c 0
98 350 m 0
 135 562 321 714 532 714 c 0
 744 714 875 562 838 350 c 0
 801 138 618 -18 403 -18 c 0
 188 -18 61 138 98 350 c 0
EndSplineSet
EndChar

StartChar: I
Encoding: 73 73 2
Width: 297
VWidth: 0
Flags: HW
LayerCount: 2
Fore
SplineSet
199 700 m 1
 345 700 l 1
 222 0 l 1
 76 0 l 1
 199 700 l 1
EndSplineSet
EndChar

StartChar: C
Encoding: 67 67 3
Width: 695
VWidth: 0
Flags: HW
LayerCount: 2
Fore
SplineSet
254 350 m 0
 230 212 318 124 438 124 c 0
 537 124 612 166 669 220 c 1
 640 58 l 1
 575 12 510 -14 408 -14 c 0
 192 -14 60 134 98 350 c 0
 136 566 320 714 536 714 c 0
 638 714 694 688 743 642 c 1
 715 480 l 1
 678 534 617 576 518 576 c 0
 398 576 278 488 254 350 c 0
EndSplineSet
EndChar

StartChar: E
Encoding: 69 69 4
Width: 587
VWidth: 0
Flags: HW
LayerCount: 2
Fore
SplineSet
168 0 m 1
 190 122 l 1
 544 122 l 1
 522 0 l 1
 168 0 l 1
270 578 m 1
 291 700 l 1
 645 700 l 1
 624 578 l 1
 270 578 l 1
223 312 m 1
 244 431 l 1
 578 431 l 1
 557 312 l 1
 223 312 l 1
199 700 m 1
 339 700 l 1
 216 0 l 1
 76 0 l 1
 199 700 l 1
EndSplineSet
EndChar

StartChar: F
Encoding: 70 70 6
Width: 537
VWidth: 0
Flags: HW
LayerCount: 2
Fore
SplineSet
269 574 m 1
 291 700 l 1
 605 700 l 1
 583 574 l 1
 269 574 l 1
221 298 m 1
 242 418 l 1
 546 418 l 1
 525 298 l 1
 221 298 l 1
199 700 m 1
 339 700 l 1
 216 0 l 1
 76 0 l 1
 199 700 l 1
EndSplineSet
EndChar

StartChar: G
Encoding: 71 71 7
Width: 802
VWidth: 0
Flags: HW
LayerCount: 2
Fore
SplineSet
462 260 m 1
 482 374 l 1
 828 374 l 1
 728 260 l 1
 462 260 l 1
828 374 m 1
 798 160 639 -18 407 -18 c 0
 189 -18 60 132 98 350 c 0
 136 568 322 714 540 714 c 0
 682 714 774 651 821 554 c 1
 685 482 l 1
 660 542 607 585 517 585 c 0
 391 585 274 496 248 350 c 0
 222 204 303 110 433 110 c 0
 593 110 671 234 695 370 c 1
 828 374 l 1
EndSplineSet
EndChar

StartChar: T
Encoding: 84 84 8
Width: 532
VWidth: 0
Flags: HW
LayerCount: 2
Fore
SplineSet
107 570 m 1
 129 700 l 1
 650 700 l 1
 628 570 l 1
 439 570 l 1
 338 0 l 1
 194 0 l 1
 295 570 l 1
 107 570 l 1
EndSplineSet
EndChar

StartChar: L
Encoding: 76 76 9
Width: 504
VWidth: 0
Flags: HW
LayerCount: 2
Fore
SplineSet
168 0 m 1
 190 126 l 1
 521 126 l 1
 499 0 l 1
 168 0 l 1
199 700 m 1
 343 700 l 1
 220 0 l 1
 76 0 l 1
 199 700 l 1
EndSplineSet
EndChar

StartChar: D
Encoding: 68 68 10
Width: 717
VWidth: 0
Flags: HW
LayerCount: 2
Fore
SplineSet
269 570 m 1
 291 700 l 1
 437 700 l 2
 659 700 782 564 744 350 c 1
 595 350 l 1
 622 504 534 570 411 570 c 2
 269 570 l 1
314 0 m 2
 168 0 l 1
 191 130 l 1
 333 130 l 2
 456 130 568 196 595 350 c 1
 744 350 l 1
 706 136 536 0 314 0 c 2
199 700 m 1
 346 700 l 1
 223 0 l 1
 76 0 l 1
 199 700 l 1
EndSplineSet
EndChar

StartChar: Q
Encoding: 81 81 11
Width: 841
VWidth: 0
Flags: HW
LayerCount: 2
Fore
SplineSet
250 350 m 0
 225 208 309 112 437 112 c 0
 565 112 672 202 696 336 c 0
 720 470 650 580 510 580 c 0
 382 580 274 484 250 350 c 0
98 350 m 0
 135 562 323 714 534 714 c 0
 746 714 875 562 838 350 c 0
 801 138 620 -18 405 -18 c 0
 190 -18 61 138 98 350 c 0
416 300 m 1
 572 300 l 1
 845 -8 l 1
 684 -8 l 1
 416 300 l 1
EndSplineSet
EndChar

StartChar: A
Encoding: 65 65 12
Width: 712
VWidth: 0
Flags: HW
LayerCount: 2
Fore
SplineSet
201 158 m 1
 238 272 l 1
 575 272 l 1
 571 158 l 1
 201 158 l 1
439 472 m 1
 293 231 l 1
 290 199 l 1
 163 0 l 1
 0 0 l 1
 487 742 l 1
 712 0 l 1
 549 0 l 1
 494 192 l 1
 501 229 l 1
 439 472 l 1
EndSplineSet
EndChar

StartChar: R
Encoding: 82 82 13
Width: 621
VWidth: 0
Flags: HW
LayerCount: 2
Fore
SplineSet
292 326 m 1
 445 326 l 1
 616 0 l 1
 445 0 l 1
 292 326 l 1
199 700 m 1
 343 700 l 1
 220 0 l 1
 76 0 l 1
 199 700 l 1
266 577 m 1
 287 700 l 1
 435 700 l 2
 600 700 682 610 658 476 c 0
 634 342 522 254 357 254 c 2
 209 254 l 1
 229 368 l 1
 368 368 l 2
 442 368 496 406 508 472 c 0
 520 538 479 577 405 577 c 2
 266 577 l 1
EndSplineSet
EndChar

StartChar: V
Encoding: 86 86 14
Width: 712
VWidth: 0
Flags: HW
LayerCount: 2
Fore
SplineSet
399 246 m 1
 667 700 l 1
 835 700 l 1
 349 -42 l 1
 123 700 l 1
 291 700 l 1
 399 246 l 1
EndSplineSet
EndChar

StartChar: M
Encoding: 77 77 15
Width: 866
VWidth: 0
Flags: HW
LayerCount: 2
Fore
SplineSet
710 492 m 1
 856 735 l 1
 832 0 l 1
 680 0 l 1
 710 492 l 1
270 735 m 1
 330 492 l 1
 186 0 l 1
 36 0 l 1
 270 735 l 1
856 735 m 1
 819 530 l 1
 445 65 l 1
 233 530 l 1
 270 735 l 1
 484 284 l 1
 856 735 l 1
EndSplineSet
EndChar

StartChar: W
Encoding: 87 87 16
Width: 1042
VWidth: 0
Flags: HW
LayerCount: 2
Fore
SplineSet
381 138 m 1
 293 -40 l 1
 129 700 l 1
 298 700 l 1
 381 138 l 1
735 -40 m 1
 710 138 l 1
 991 700 l 1
 1159 700 l 1
 735 -40 l 1
293 -40 m 1
 300 148 l 1
 651 735 l 1
 794 148 l 1
 735 -40 l 1
 595 419 l 1
 293 -40 l 1
EndSplineSet
EndChar

StartChar: N
Encoding: 78 78 17
Width: 787
VWidth: 0
Flags: HW
LayerCount: 2
Fore
SplineSet
177 548 m 1
 206 735 l 1
 735 152 l 1
 706 -35 l 1
 177 548 l 1
696 700 m 1
 835 700 l 1
 706 -35 l 1
 596 128 l 1
 696 700 l 1
206 735 m 1
 317 572 l 1
 216 0 l 1
 76 0 l 1
 206 735 l 1
EndSplineSet
EndChar

StartChar: a
Encoding: 97 97 18
Width: 526
VWidth: 0
Flags: HW
LayerCount: 2
Fore
SplineSet
180 137 m 0
 173 99 199 80 246 80 c 0
 308 80 363 106 377 184 c 1
 384 130 l 1
 368 41 283 -10 188 -10 c 0
 88 -10 33 41 48 127 c 0
 65 225 158 281 274 281 c 0
 348 281 404 248 418 228 c 1
 407 164 l 1
 374 192 340 206 286 206 c 0
 226 206 187 179 180 137 c 0
174 328 m 1
 142 418 l 1
 194 443 268 472 351 472 c 0
 469 472 544 420 527 326 c 2
 470 0 l 1
 345 0 l 1
 399 305 l 2
 406 346 374 370 324 370 c 0
 258 370 198 342 174 328 c 1
EndSplineSet
Substitution2: "alt a" a.alt
EndChar

StartChar: X
Encoding: 88 88 19
Width: 646
VWidth: 0
Flags: HW
LayerCount: 2
Fore
SplineSet
573 700 m 1
 749 700 l 1
 474 362 l 1
 641 0 l 1
 464 0 l 1
 370 250 l 1
 182 0 l 1
 6 0 l 1
 306 362 l 1
 153 700 l 1
 330 700 l 1
 411 481 l 1
 573 700 l 1
EndSplineSet
EndChar

StartChar: K
Encoding: 75 75 20
Width: 659
VWidth: 0
Flags: HW
LayerCount: 2
Fore
SplineSet
199 700 m 1
 347 700 l 1
 224 0 l 1
 76 0 l 1
 199 700 l 1
596 700 m 1
 767 700 l 1
 420 372 l 1
 658 0 l 1
 484 0 l 1
 247 368 l 1
 596 700 l 1
EndSplineSet
EndChar

StartChar: Y
Encoding: 89 89 21
Width: 630
VWidth: 0
Flags: HW
LayerCount: 2
Fore
SplineSet
305 360 m 1
 451 360 l 1
 388 0 l 1
 242 0 l 1
 305 360 l 1
587 700 m 1
 753 700 l 1
 344 166 l 1
 123 700 l 1
 289 700 l 1
 389 418 l 1
 587 700 l 1
EndSplineSet
EndChar

StartChar: B
Encoding: 66 66 22
Width: 632
VWidth: 0
Flags: HW
LayerCount: 2
Fore
SplineSet
241 394 m 1
 393 394 l 2
 528 394 645 338 621 200 c 0
 596 61 481 0 324 0 c 2
 172 0 l 1
 192 115 l 1
 332 115 l 2
 404 115 463 145 476 217 c 0
 488 285 440 316 368 316 c 2
 228 316 l 1
 241 394 l 1
234 354 m 1
 246 420 l 1
 371 420 l 2
 433 420 478 452 487 504 c 0
 496 556 462 585 400 585 c 2
 275 585 l 1
 295 700 l 1
 433 700 l 2
 571 700 659 642 638 523 c 0
 619 415 510 354 372 354 c 2
 234 354 l 1
199 700 m 1
 343 700 l 1
 220 0 l 1
 76 0 l 1
 199 700 l 1
EndSplineSet
EndChar

StartChar: Z
Encoding: 90 90 23
Width: 597
VWidth: 0
Flags: HW
LayerCount: 2
Fore
SplineSet
151 570 m 1
 173 700 l 1
 705 700 l 1
 260 126 l 1
 572 126 l 1
 550 0 l 1
 10 0 l 1
 453 570 l 1
 151 570 l 1
EndSplineSet
EndChar

StartChar: o
Encoding: 111 111 24
Width: 576
VWidth: 0
Flags: HW
LayerCount: 2
Fore
SplineSet
74 230 m 0
 99 374 225 470 371 470 c 0
 517 470 610 374 585 230 c 0
 560 86 432 -10 286 -10 c 0
 140 -10 49 86 74 230 c 0
207 230 m 0
 193 152 238 100 306 100 c 0
 374 100 437 152 451 230 c 0
 465 308 419 360 351 360 c 0
 283 360 221 308 207 230 c 0
EndSplineSet
EndChar

StartChar: J
Encoding: 74 74 25
Width: 303
VWidth: 0
Flags: HW
LayerCount: 2
Fore
SplineSet
-82 -68 m 1
 -68 -88 -40 -102 -8 -102 c 0
 22 -102 62 -80 73 -18 c 2
 199 700 l 1
 351 700 l 1
 218 -56 l 2
 196 -182 95 -234 -21 -234 c 0
 -91 -234 -151 -202 -179 -178 c 1
 -82 -68 l 1
EndSplineSet
EndChar

StartChar: t
Encoding: 116 116 26
Width: 294
VWidth: 0
Flags: HW
LayerCount: 2
Fore
SplineSet
86 460 m 1
 371 460 l 1
 352 350 l 1
 67 350 l 1
 86 460 l 1
193 620 m 1
 319 620 l 1
 210 0 l 1
 84 0 l 1
 193 620 l 1
EndSplineSet
EndChar

StartChar: d
Encoding: 100 100 27
Width: 602
VWidth: 0
Flags: HW
LayerCount: 2
Fore
SplineSet
550 780 m 1
 680 780 l 1
 542 0 l 1
 412 0 l 1
 550 780 l 1
74 230 m 0
 101 384 221 470 337 470 c 0
 452 470 519 379 493 230 c 0
 467 81 367 -10 252 -10 c 0
 136 -10 47 76 74 230 c 0
209 230 m 0
 195 148 241 98 309 98 c 0
 365 98 438 146 453 230 c 0
 468 314 412 362 356 362 c 0
 288 362 223 312 209 230 c 0
EndSplineSet
EndChar

StartChar: l
Encoding: 108 108 28
Width: 258
VWidth: 0
Flags: HW
LayerCount: 2
Fore
SplineSet
202 780 m 1
 333 780 l 1
 195 0 l 1
 64 0 l 1
 202 780 l 1
EndSplineSet
EndChar

StartChar: i
Encoding: 105 105 29
Width: 271
VWidth: 0
Flags: HW
LayerCount: 2
Fore
SplineSet
170 638 m 0
 177 680 218 712 262 712 c 0
 306 712 333 680 326 638 c 0
 319 596 279 564 235 564 c 0
 191 564 163 596 170 638 c 0
153 460 m 1
 279 460 l 1
 198 0 l 1
 72 0 l 1
 153 460 l 1
EndSplineSet
EndChar

StartChar: r
Encoding: 114 114 30
Width: 390
VWidth: 0
Flags: HW
LayerCount: 2
Fore
SplineSet
273 460 m 1
 192 0 l 1
 64 0 l 1
 145 460 l 1
 273 460 l 1
384 324 m 1
 369 340 355 350 329 350 c 0
 280 350 247 309 235 243 c 1
 205 280 l 1
 224 389 311 470 385 470 c 0
 418 470 449 458 463 434 c 1
 384 324 l 1
EndSplineSet
EndChar

StartChar: c
Encoding: 99 99 31
Width: 488
VWidth: 0
Flags: HW
LayerCount: 2
Fore
SplineSet
205 230 m 0
 191 150 239 96 313 96 c 0
 373 96 435 126 469 170 c 1
 446 37 l 1
 409 7 354 -10 286 -10 c 0
 138 -10 46 86 71 230 c 0
 96 374 223 470 371 470 c 0
 439 470 487 450 514 424 c 1
 490 290 l 1
 472 334 416 364 360 364 c 0
 286 364 218 306 205 230 c 0
EndSplineSet
EndChar

StartChar: b
Encoding: 98 98 32
Width: 602
VWidth: 0
Flags: HW
LayerCount: 2
Fore
SplineSet
330 780 m 1
 192 0 l 1
 62 0 l 1
 200 780 l 1
 330 780 l 1
611 230 m 0
 584 76 462 -10 346 -10 c 0
 231 -10 166 81 192 230 c 0
 218 379 316 470 431 470 c 0
 547 470 638 384 611 230 c 0
475 230 m 0
 489 312 442 362 374 362 c 0
 318 362 248 314 233 230 c 0
 218 146 271 98 327 98 c 0
 395 98 461 148 475 230 c 0
EndSplineSet
EndChar

StartChar: p
Encoding: 112 112 33
Width: 602
VWidth: 0
Flags: HW
LayerCount: 2
Fore
SplineSet
153 -220 m 1
 23 -220 l 1
 143 460 l 1
 273 460 l 1
 153 -220 l 1
611 230 m 0
 583 72 462 -14 346 -14 c 0
 226 -14 171 81 197 230 c 0
 223 379 312 474 432 474 c 0
 548 474 639 388 611 230 c 0
475 230 m 0
 489 312 441 358 373 358 c 0
 317 358 248 314 233 230 c 0
 218 146 272 102 328 102 c 0
 396 102 461 148 475 230 c 0
EndSplineSet
EndChar

StartChar: q
Encoding: 113 113 34
Width: 602
VWidth: 0
Flags: HW
LayerCount: 2
Fore
SplineSet
373 -220 m 1
 493 460 l 1
 623 460 l 1
 503 -220 l 1
 373 -220 l 1
74 230 m 0
 102 388 222 474 338 474 c 0
 458 474 515 379 489 230 c 0
 463 81 372 -14 252 -14 c 0
 136 -14 46 72 74 230 c 0
209 230 m 0
 195 148 242 102 310 102 c 0
 366 102 438 146 453 230 c 0
 468 314 411 358 355 358 c 0
 287 358 223 312 209 230 c 0
EndSplineSet
EndChar

StartChar: h
Encoding: 104 104 35
Width: 555
VWidth: 0
Flags: HW
LayerCount: 2
Fore
SplineSet
333 780 m 1
 195 0 l 1
 64 0 l 1
 202 780 l 1
 333 780 l 1
411 280 m 2
 422 340 406 374 352 374 c 0
 298 374 254 338 244 280 c 1
 218 280 l 1
 237 389 310 475 418 475 c 0
 526 475 565 412 545 298 c 2
 492 0 l 1
 362 0 l 1
 411 280 l 2
EndSplineSet
EndChar

StartChar: n
Encoding: 110 110 36
Width: 560
VWidth: 0
Flags: HW
LayerCount: 2
Fore
SplineSet
276 460 m 1
 195 0 l 1
 64 0 l 1
 145 460 l 1
 276 460 l 1
411 280 m 2
 422 340 406 374 352 374 c 0
 298 374 254 338 244 280 c 1
 218 276 l 1
 237 385 309 470 417 470 c 0
 525 470 568 408 548 294 c 2
 496 0 l 1
 362 0 l 1
 411 280 l 2
EndSplineSet
EndChar

StartChar: m
Encoding: 109 109 37
Width: 808
VWidth: 0
Flags: HW
LayerCount: 2
Fore
SplineSet
385 280 m 2
 396 340 385 374 335 374 c 0
 285 374 249 338 239 280 c 1
 213 276 l 1
 232 385 300 470 404 470 c 0
 508 470 540 412 520 298 c 2
 467 0 l 1
 336 0 l 1
 385 280 l 2
271 460 m 1
 190 0 l 1
 64 0 l 1
 145 460 l 1
 271 460 l 1
797 294 m 2
 745 0 l 1
 614 0 l 1
 663 280 l 2
 674 340 662 374 612 374 c 0
 562 374 526 338 516 280 c 1
 468 276 l 1
 487 385 577 470 681 470 c 0
 785 470 817 408 797 294 c 2
EndSplineSet
EndChar

StartChar: k
Encoding: 107 107 38
Width: 536
VWidth: 0
Flags: HW
LayerCount: 2
Fore
SplineSet
200 780 m 1
 325 780 l 1
 187 0 l 1
 62 0 l 1
 200 780 l 1
436 460 m 1
 593 460 l 1
 362 270 l 1
 532 0 l 1
 377 0 l 1
 206 270 l 1
 436 460 l 1
EndSplineSet
EndChar

StartChar: u
Encoding: 117 117 39
Width: 560
VWidth: 0
Flags: HW
LayerCount: 2
Fore
SplineSet
366 0 m 1
 447 460 l 1
 577 460 l 1
 496 0 l 1
 366 0 l 1
231 180 m 2
 220 120 236 86 290 86 c 0
 344 86 388 122 398 180 c 1
 424 184 l 1
 405 75 332 -10 224 -10 c 0
 116 -10 73 52 93 166 c 2
 145 460 l 1
 280 460 l 1
 231 180 l 2
EndSplineSet
EndChar

StartChar: e
Encoding: 101 101 40
Width: 550
VWidth: 0
Flags: HW
LayerCount: 2
Fore
SplineSet
132 202 m 1
 146 284 l 1
 546 284 l 1
 548 202 l 1
 132 202 l 1
433 246 m 2
 447 325 421 374 346 374 c 0
 277 374 220 330 207 256 c 1
 201 230 l 1
 185 138 234 92 308 92 c 0
 361 92 396 114 425 155 c 1
 528 115 l 1
 474 41 412 -10 284 -10 c 4
 139 -10 52 91 77 230 c 0
 80 247 83 264 89 280 c 0
 128 393 234 470 365 470 c 0
 501 470 582 381 556 236 c 0
 555 228 552 216 548 202 c 1
 429 222 l 1
 433 246 l 2
EndSplineSet
EndChar

StartChar: g
Encoding: 103 103 41
Width: 598
VWidth: 0
Flags: HW
LayerCount: 2
Fore
SplineSet
36 -32 m 1
 163 -32 l 1
 157 -91 195 -129 263 -129 c 0
 329 -129 397 -84 414 10 c 2
 493 460 l 1
 618 460 l 1
 539 10 l 2
 509 -162 382 -237 250 -237 c 0
 89 -237 23 -153 36 -32 c 1
74 234 m 0
 101 388 221 470 337 470 c 0
 452 470 519 383 493 234 c 0
 467 85 369 -2 254 -2 c 0
 138 -2 47 80 74 234 c 0
209 234 m 0
 195 152 243 106 311 106 c 0
 367 106 438 150 453 234 c 0
 468 318 412 362 356 362 c 0
 288 362 223 316 209 234 c 0
EndSplineSet
EndChar

StartChar: f
Encoding: 102 102 42
Width: 326
VWidth: 0
Flags: HW
LayerCount: 2
Fore
SplineSet
105 460 m 1
 395 460 l 1
 376 350 l 1
 86 350 l 1
 105 460 l 1
414 649 m 1
 404 669 390 675 372 675 c 0
 342 675 320 652 311 600 c 2
 205 0 l 1
 78 0 l 1
 189 630 l 2
 207 734 274 794 380 794 c 0
 440 794 471 767 487 747 c 1
 414 649 l 1
EndSplineSet
EndChar

StartChar: s
Encoding: 115 115 43
Width: 440
VWidth: 0
Flags: HW
LayerCount: 2
Fore
SplineSet
133 170 m 1
 159 116 203 87 243 87 c 0
 277 87 300 98 305 126 c 0
 312 165 252 179 202 202 c 0
 146 229 96 261 110 340 c 0
 125 424 209 470 301 470 c 0
 389 470 451 426 476 374 c 1
 391 310 l 1
 367 346 323 372 286 372 c 0
 256 372 234 362 230 337 c 0
 224 303 283 290 335 268 c 0
 395 242 450 206 437 130 c 0
 419 26 335 -17 227 -17 c 0
 143 -17 76 22 41 104 c 1
 133 170 l 1
EndSplineSet
EndChar

StartChar: y
Encoding: 121 121 44
Width: 496
VWidth: 0
Flags: HW
LayerCount: 2
Fore
SplineSet
584 460 m 1
 164 -220 l 1
 31 -220 l 1
 194 46 l 1
 74 460 l 1
 220 460 l 1
 302 93 l 1
 239 96 l 1
 449 460 l 1
 584 460 l 1
EndSplineSet
EndChar

StartChar: w
Encoding: 119 119 45
Width: 736
VWidth: 0
Flags: HW
LayerCount: 2
Fore
SplineSet
683 460 m 1
 821 460 l 1
 510 -30 l 1
 507 152 l 1
 683 460 l 1
392 322 m 1
 452 495 l 1
 555 143 l 1
 510 -30 l 1
 392 322 l 1
452 495 m 1
 452 322 l 1
 217 -30 l 1
 232 143 l 1
 452 495 l 1
77 460 m 1
 216 460 l 1
 284 152 l 1
 217 -30 l 1
 77 460 l 1
EndSplineSet
EndChar

StartChar: v
Encoding: 118 118 46
Width: 501
VWidth: 0
Flags: HW
LayerCount: 2
Fore
SplineSet
79 460 m 1
 219 460 l 1
 283 184 l 1
 445 460 l 1
 584 460 l 1
 243 -48 l 1
 79 460 l 1
EndSplineSet
EndChar

StartChar: x
Encoding: 120 120 47
Width: 498
VWidth: 0
Flags: HW
LayerCount: 2
Fore
SplineSet
425 460 m 1
 569 460 l 1
 360 236 l 1
 498 0 l 1
 354 0 l 1
 278 146 l 1
 149 0 l 1
 0 0 l 1
 224 236 l 1
 91 460 l 1
 240 460 l 1
 310 328 l 1
 425 460 l 1
EndSplineSet
EndChar

StartChar: z
Encoding: 122 122 48
Width: 503
VWidth: 0
Flags: HW
LayerCount: 2
Fore
SplineSet
329 341 m 1
 114 341 l 1
 135 460 l 1
 570 460 l 1
 263 119 l 1
 481 119 l 1
 460 0 l 1
 15 0 l 1
 329 341 l 1
EndSplineSet
EndChar

StartChar: j
Encoding: 106 106 49
Width: 264
VWidth: 0
Flags: HW
LayerCount: 2
Fore
SplineSet
164 638 m 0
 171 680 212 712 256 712 c 0
 300 712 327 680 320 638 c 0
 313 596 273 564 229 564 c 0
 185 564 157 596 164 638 c 0
-45 -88 m 1
 -35 -108 -20 -114 -2 -114 c 0
 28 -114 50 -91 59 -39 c 2
 147 460 l 1
 274 460 l 1
 181 -68 l 2
 163 -172 97 -234 -9 -234 c 0
 -69 -234 -101 -206 -117 -186 c 1
 -45 -88 l 1
EndSplineSet
EndChar

StartChar: P
Encoding: 80 80 50
Width: 600
VWidth: 0
Flags: HW
LayerCount: 2
Fore
SplineSet
199 700 m 1
 343 700 l 1
 220 0 l 1
 76 0 l 1
 199 700 l 1
266 578 m 1
 287 700 l 1
 426 700 l 2
 591 700 672 614 648 476 c 0
 624 338 513 254 348 254 c 2
 209 254 l 1
 230 376 l 1
 369 376 l 2
 443 376 497 410 509 476 c 0
 521 542 479 578 405 578 c 2
 266 578 l 1
EndSplineSet
EndChar

StartChar: U
Encoding: 85 85 51
Width: 678
VWidth: 0
Flags: HW
LayerCount: 2
Fore
SplineSet
193 700 m 1
 337 700 l 1
 256 238 l 2
 242 160 276 107 358 107 c 0
 440 107 492 160 506 238 c 2
 587 700 l 1
 731 700 l 1
 649 230 l 2
 620 65 489 -24 335 -24 c 0
 181 -24 82 65 111 230 c 2
 193 700 l 1
EndSplineSet
EndChar

StartChar: S
Encoding: 83 83 52
Width: 602
VWidth: 0
Flags: HW
LayerCount: 2
Fore
SplineSet
183 244 m 1
 213 156 255 108 333 108 c 0
 395 108 435 138 444 190 c 0
 456 258 390 282 315 313 c 0
 250 339 143 393 166 524 c 0
 186 638 298 714 434 714 c 0
 573 714 636 633 651 562 c 1
 529 496 l 1
 509 550 479 589 418 589 c 0
 362 589 322 562 314 518 c 0
 304 464 377 438 456 408 c 0
 540 376 617 316 595 194 c 0
 571 59 463 -18 307 -18 c 0
 183 -18 90 57 66 172 c 1
 183 244 l 1
EndSplineSet
EndChar

StartChar: at
Encoding: 64 64 53
Width: 770
VWidth: 0
Flags: HW
LayerCount: 2
Fore
SplineSet
357 320 m 0
 349 272 364 246 400 246 c 0
 439 246 495 286 509 366 c 0
 518 415 497 445 463 445 c 0
 419 445 369 388 357 320 c 0
247 314 m 0
 272 453 381 530 461 530 c 0
 537 530 561 456 546 372 c 0
 521 233 442 156 356 156 c 0
 278 156 230 215 247 314 c 0
74 320 m 0
 113 544 314 722 542 722 c 0
 748 722 850 554 821 390 c 0
 790 212 665 132 577 132 c 0
 507 132 469 192 491 258 c 1
 493 288 l 1
 564 520 l 1
 672 520 l 1
 594 292 l 2
 592 285 589 274 588 266 c 0
 584 242 587 228 608 228 c 0
 634 228 696 272 717 390 c 0
 740 518 680 632 526 632 c 0
 346 632 209 498 178 320 c 0
 151 166 216 63 374 63 c 0
 444 63 518 70 585 108 c 1
 623 31 l 1
 557 -3 467 -24 361 -24 c 0
 139 -24 39 121 74 320 c 0
EndSplineSet
EndChar

StartChar: period
Encoding: 46 46 54
Width: 315
VWidth: 0
Flags: HW
LayerCount: 2
Fore
SplineSet
87 60 m 0
 95 104 135 140 183 140 c 0
 231 140 259 104 251 60 c 0
 243 16 202 -22 154 -22 c 0
 106 -22 79 16 87 60 c 0
EndSplineSet
EndChar

StartChar: comma
Encoding: 44 44 55
Width: 318
VWidth: 0
Flags: HW
LayerCount: 2
Fore
SplineSet
147 110 m 1
 273 78 l 1
 108 -172 l 1
 14 -149 l 1
 147 110 l 1
EndSplineSet
EndChar

StartChar: colon
Encoding: 58 58 56
Width: 315
VWidth: 0
Flags: HW
LayerCount: 2
Fore
SplineSet
87 60 m 0
 95 104 135 140 183 140 c 0
 231 140 259 104 251 60 c 0
 243 16 202 -22 154 -22 c 0
 106 -22 79 16 87 60 c 0
153 436 m 0
 161 480 201 516 249 516 c 0
 297 516 325 480 317 436 c 0
 309 392 268 354 220 354 c 0
 172 354 145 392 153 436 c 0
EndSplineSet
EndChar

StartChar: semicolon
Encoding: 59 59 57
Width: 374
VWidth: 0
Flags: HW
LayerCount: 2
Fore
SplineSet
196 431 m 0
 204 475 245 512 293 512 c 0
 341 512 370 475 362 431 c 0
 354 387 313 350 265 350 c 0
 217 350 188 387 196 431 c 0
163 110 m 1
 288 78 l 1
 123 -172 l 1
 30 -149 l 1
 163 110 l 1
EndSplineSet
EndChar

StartChar: quotedbl
Encoding: 34 34 58
Width: 502
VWidth: 0
Flags: HW
LayerCount: 2
Fore
SplineSet
235 700 m 1
 377 700 l 1
 220 386 l 1
 134 386 l 1
 235 700 l 1
437 700 m 1
 579 700 l 1
 423 386 l 1
 336 386 l 1
 437 700 l 1
EndSplineSet
EndChar

StartChar: exclam
Encoding: 33 33 59
Width: 330
VWidth: 0
Flags: HW
LayerCount: 2
Fore
SplineSet
207 700 m 1
 369 700 l 1
 256 222 l 1
 152 222 l 1
 207 700 l 1
93 56 m 0
 101 100 141 132 189 132 c 0
 237 132 266 100 258 56 c 0
 250 12 210 -22 162 -22 c 0
 114 -22 85 12 93 56 c 0
EndSplineSet
EndChar

StartChar: quotesingle
Encoding: 39 39 60
Width: 299
VWidth: 0
Flags: HW
LayerCount: 2
Fore
SplineSet
235 700 m 1
 377 700 l 1
 220 386 l 1
 134 386 l 1
 235 700 l 1
EndSplineSet
EndChar

StartChar: numbersign
Encoding: 35 35 61
Width: 648
VWidth: 0
Flags: HW
LayerCount: 2
Fore
SplineSet
149 420 m 1
 167 524 l 1
 706 524 l 1
 688 420 l 1
 538 420 l 0
 513 424 l 0
 313 424 l 0
 290 420 l 0
 149 420 l 1
67 180 m 1
 85 284 l 1
 223 284 l 0
 249 280 l 0
 470 280 l 0
 498 284 l 0
 624 284 l 1
 606 180 l 1
 67 180 l 1
591 700 m 1
 705 700 l 1
 412 0 l 1
 298 0 l 1
 392 225 l 0
 406 249 l 0
 494 458 l 0
 501 484 l 0
 591 700 l 1
359 700 m 1
 474 700 l 1
 384 486 l 0
 369 459 l 0
 280 250 l 0
 275 226 l 0
 181 0 l 1
 66 0 l 1
 359 700 l 1
EndSplineSet
EndChar

StartChar: hyphen
Encoding: 45 45 62
Width: 218
VWidth: 0
Flags: HW
LayerCount: 2
Fore
SplineSet
37 180 m 1
 57 294 l 1
 266 294 l 1
 246 180 l 1
 37 180 l 1
EndSplineSet
EndChar

StartChar: dollar
Encoding: 36 36 63
Width: 608
VWidth: 0
Flags: HW
LayerCount: 2
Fore
SplineSet
405 818 m 1
 514 818 l 1
 480 646 l 1
 380 646 l 1
 405 818 l 1
276 58 m 1
 376 58 l 1
 350 -112 l 1
 241 -112 l 1
 276 58 l 1
533 496 m 1
 513 554 482 599 422 599 c 0
 360 599 328 570 320 526 c 0
 309 462 381 440 460 408 c 0
 542 376 622 316 600 194 c 0
 577 66 468 -10 312 -10 c 0
 188 -10 96 70 70 172 c 1
 187 244 l 1
 217 156 259 108 337 108 c 0
 403 108 439 139 448 191 c 0
 460 257 396 282 319 313 c 0
 254 339 149 393 172 526 c 0
 190 626 301 710 437 710 c 0
 572 710 630 636 655 562 c 1
 533 496 l 1
EndSplineSet
EndChar

StartChar: bar
Encoding: 124 124 64
Width: 328
VWidth: 0
Flags: HW
LayerCount: 2
Fore
SplineSet
238 785 m 1
 368 785 l 1
 192 -215 l 1
 62 -215 l 1
 238 785 l 1
EndSplineSet
EndChar

StartChar: zero
Encoding: 48 48 65
Width: 643
VWidth: 0
Flags: HW
LayerCount: 2
Fore
SplineSet
242 350 m 0
 217 209 256 114 342 114 c 0
 428 114 501 209 526 350 c 0
 551 491 511 586 425 586 c 0
 339 586 267 491 242 350 c 0
102 350 m 0
 141 572 280 712 448 712 c 0
 620 712 705 572 666 350 c 0
 627 128 492 -12 320 -12 c 0
 152 -12 63 128 102 350 c 0
EndSplineSet
Substitution2: "Tabular Numbers lookup" uniFF10
EndChar

StartChar: one
Encoding: 49 49 66
Width: 491
VWidth: 0
Flags: HW
LayerCount: 2
Fore
SplineSet
163 517 m 1
 186 646 l 1
 505 712 l 1
 379 0 l 1
 240 0 l 1
 339 560 l 1
 163 517 l 1
EndSplineSet
Substitution2: "Tabular Numbers lookup" uniFF11
EndChar

StartChar: two
Encoding: 50 50 67
Width: 630
VWidth: 0
Flags: HW
LayerCount: 2
Fore
SplineSet
20 0 m 1
 397 332 l 2
 460 389 498 432 508 488 c 0
 517 537 494 587 424 587 c 0
 352 587 292 530 277 446 c 1
 135 446 l 1
 161 595 278 713 449 713 c 0
 617 713 678 596 659 491 c 0
 646 417 592 355 525 302 c 2
 315 132 l 1
 607 132 l 1
 584 0 l 1
 20 0 l 1
EndSplineSet
Substitution2: "Tabular Numbers lookup" uniFF12
EndChar

StartChar: four
Encoding: 52 52 68
Width: 663
VWidth: 0
Flags: HW
LayerCount: 2
Fore
SplineSet
39 129 m 1
 176 237 l 1
 483 237 l 0
 502 252 l 0
 669 252 l 1
 648 129 l 1
 39 129 l 1
191 164 m 1
 39 129 l 1
 539 700 l 25
 638 700 l 1
 515 0 l 1
 366 0 l 1
 395 165 l 0
 411 176 l 0
 463 471 l 1
 191 164 l 1
EndSplineSet
Substitution2: "Tabular Numbers lookup" uniFF14
EndChar

StartChar: slash
Encoding: 47 47 69
Width: 580
VWidth: 0
Flags: HW
LayerCount: 2
Fore
SplineSet
563 700 m 1
 689 700 l 1
 120 -150 l 1
 -11 -150 l 1
 563 700 l 1
EndSplineSet
EndChar

StartChar: backslash
Encoding: 92 92 70
Width: 536
VWidth: 0
Flags: HW
LayerCount: 2
Fore
SplineSet
138 700 m 1
 267 700 l 1
 522 0 l 1
 393 0 l 1
 138 700 l 1
EndSplineSet
EndChar

StartChar: eight
Encoding: 56 56 71
Width: 602
VWidth: 0
Flags: HW
LayerCount: 2
Fore
SplineSet
172 531 m 0
 192 643 304 714 428 714 c 0
 552 714 639 643 619 531 c 0
 597 409 478 346 363 346 c 0
 248 346 150 409 172 531 c 0
305 516 m 0
 296 464 328 428 377 428 c 0
 426 428 472 464 481 516 c 0
 490 568 461 606 409 606 c 0
 357 606 314 568 305 516 c 0
87 190 m 0
 112 332 256 394 371 394 c 0
 486 394 609 332 584 190 c 0
 562 68 434 -14 300 -14 c 0
 166 -14 65 68 87 190 c 0
232 211 m 0
 220 143 265 105 321 105 c 0
 377 105 433 143 445 211 c 0
 455 269 414 316 358 316 c 0
 302 316 242 269 232 211 c 0
EndSplineSet
Substitution2: "Tabular Numbers lookup" uniFF18
EndChar

StartChar: nine
Encoding: 57 57 72
Width: 641
VWidth: 0
Flags: HW
LayerCount: 2
Fore
SplineSet
531 459 m 0
 545 537 499 590 425 590 c 0
 351 590 287 537 273 459 c 0
 259 381 304 326 378 326 c 0
 452 326 517 381 531 459 c 0
309 2 m 1
 127 2 l 1
 398 266 l 1
 426 275 l 1
 386 240 353 231 305 231 c 0
 198 231 107 321 131 459 c 0
 160 623 297 714 447 714 c 0
 597 714 702 623 673 459 c 0
 661 389 619 330 570 280 c 2
 309 2 l 1
EndSplineSet
Substitution2: "Tabular Numbers lookup" uniFF19
EndChar

StartChar: three
Encoding: 51 51 73
Width: 598
VWidth: 0
Flags: HW
LayerCount: 2
Fore
SplineSet
328 340 m 1
 340 410 l 1
 422 410 481 457 491 512 c 0
 499 560 477 594 419 594 c 0
 363 594 313 556 304 504 c 1
 171 504 l 1
 192 624 300 712 440 712 c 0
 586 712 655 626 636 520 c 0
 616 406 485 340 328 340 c 1
306 -14 m 0
 146 -14 68 91 89 211 c 1
 231 211 l 1
 219 143 267 105 331 105 c 0
 395 105 446 139 457 204 c 0
 469 270 421 312 323 312 c 1
 336 388 l 1
 506 388 623 331 598 190 c 0
 577 69 464 -14 306 -14 c 0
EndSplineSet
Substitution2: "Tabular Numbers lookup" uniFF13
EndChar

StartChar: five
Encoding: 53 53 74
Width: 620
VWidth: 0
Flags: HW
LayerCount: 2
Fore
SplineSet
620 226 m 0
 591 62 442 -12 307 -12 c 0
 178 -12 105 38 55 96 c 1
 143 208 l 1
 182 156 245 120 305 120 c 0
 394 120 454 162 467 238 c 0
 480 314 421 355 347 355 c 0
 289 355 224 345 146 305 c 1
 258 394 l 5
 318 448 382 457 450 457 c 0
 563 457 645 370 620 226 c 0
391 574 m 1
 312 391 l 1
 146 305 l 1
 311 700 l 1
 693 700 l 1
 671 574 l 1
 391 574 l 1
EndSplineSet
Substitution2: "Tabular Numbers lookup" uniFF15
EndChar

StartChar: six
Encoding: 54 54 75
Width: 641
VWidth: 0
Flags: HW
LayerCount: 2
Fore
SplineSet
234 241 m 0
 220 163 266 110 340 110 c 0
 414 110 478 163 492 241 c 0
 506 319 461 374 387 374 c 0
 313 374 248 319 234 241 c 0
455 698 m 1
 637 698 l 1
 367 434 l 1
 339 425 l 1
 379 460 413 469 461 469 c 0
 568 469 658 379 634 241 c 0
 605 77 469 -14 319 -14 c 0
 169 -14 63 77 92 241 c 0
 104 311 145 370 194 420 c 2
 455 698 l 1
EndSplineSet
Substitution2: "Tabular Numbers lookup" uniFF16
EndChar

StartChar: seven
Encoding: 55 55 76
Width: 579
VWidth: 0
Flags: HW
LayerCount: 2
Fore
SplineSet
130 566 m 1
 153 700 l 1
 699 700 l 1
 240 0 l 1
 85 0 l 1
 465 566 l 1
 130 566 l 1
EndSplineSet
Substitution2: "Tabular Numbers lookup" uniFF17
EndChar

StartChar: plus
Encoding: 43 43 77
Width: 656
VWidth: 0
Flags: HW
LayerCount: 2
Fore
SplineSet
101 202 m 1
 123 328 l 1
 650 328 l 1
 628 202 l 1
 101 202 l 1
353 528 m 1
 489 528 l 1
 396 2 l 1
 260 2 l 1
 353 528 l 1
EndSplineSet
EndChar

StartChar: equal
Encoding: 61 61 78
Width: 622
VWidth: 0
Flags: HW
LayerCount: 2
Fore
SplineSet
76 101 m 1
 96 215 l 1
 602 215 l 1
 582 101 l 1
 76 101 l 1
109 290 m 1
 129 405 l 1
 635 405 l 1
 615 290 l 1
 109 290 l 1
EndSplineSet
EndChar

StartChar: percent
Encoding: 37 37 79
Width: 868
VWidth: 0
Flags: HW
LayerCount: 2
Fore
SplineSet
121 539 m 0
 138 637 228 717 332 717 c 0
 436 717 498 637 481 539 c 0
 464 441 374 362 270 362 c 0
 166 362 104 441 121 539 c 0
229 539 m 0
 222 499 245 464 288 464 c 0
 331 464 365 499 372 539 c 0
 379 579 357 614 314 614 c 0
 271 614 236 579 229 539 c 0
512 161 m 0
 529 259 619 338 723 338 c 0
 827 338 887 259 870 161 c 0
 853 63 764 -16 660 -16 c 0
 556 -16 495 63 512 161 c 0
620 161 m 0
 613 121 635 86 678 86 c 0
 721 86 755 121 762 161 c 0
 769 201 748 236 705 236 c 0
 662 236 627 201 620 161 c 0
747 700 m 1
 879 700 l 1
 244 0 l 1
 113 0 l 1
 747 700 l 1
EndSplineSet
EndChar

StartChar: ampersand
Encoding: 38 38 80
Width: 729
VWidth: 0
Flags: HW
LayerCount: 2
Fore
SplineSet
73 186 m 1
 211 197 l 1
 201 141 239 99 311 99 c 0
 429 99 559 208 665 334 c 1
 743 268 l 1
 628 136 468 -12 276 -12 c 0
 148 -12 51 62 73 186 c 1
221 548 m 1
 237 638 328 716 452 716 c 0
 574 716 630 634 615 550 c 1
 492 540 l 1
 499 578 475 609 431 609 c 0
 383 609 354 578 347 540 c 1
 221 548 l 1
289 376 m 2
 257 425 208 476 221 548 c 1
 347 540 l 1
 340 498 377 465 414 408 c 2
 712 0 l 1
 561 0 l 1
 289 376 l 2
615 550 m 1
 600 466 533 420 415 352 c 0
 335 307 226 283 211 197 c 1
 73 186 l 1
 101 342 278 385 354 419 c 0
 436 457 485 501 492 540 c 1
 615 550 l 1
EndSplineSet
EndChar

StartChar: question
Encoding: 63 63 81
Width: 606
VWidth: 0
Flags: HW
LayerCount: 2
Fore
SplineSet
208 54 m 0
 215 94 256 128 304 128 c 0
 352 128 380 94 373 54 c 0
 366 14 325 -22 277 -22 c 0
 229 -22 201 14 208 54 c 0
273 370 m 1
 406 370 l 1
 365 192 l 1
 262 192 l 1
 273 370 l 1
507 500 m 0
 519 566 479 605 403 605 c 0
 341 605 279 572 233 518 c 1
 156 591 l 1
 234 669 313 717 432 717 c 0
 562 717 662 632 639 500 c 0
 614 359 453 282 338 282 c 1
 303 370 l 1
 423 370 497 442 507 500 c 0
EndSplineSet
EndChar

StartChar: parenleft
Encoding: 40 40 82
Width: 331
VWidth: 0
Flags: HW
LayerCount: 2
Fore
SplineSet
332 780 m 1
 451 780 l 1
 355 630 287 460 257 290 c 0
 227 120 234 -50 278 -200 c 1
 159 -200 l 1
 105 -50 95 120 125 290 c 0
 155 460 226 630 332 780 c 1
EndSplineSet
EndChar

StartChar: parenright
Encoding: 41 41 83
Width: 331
VWidth: 0
Flags: HW
LayerCount: 2
Fore
SplineSet
103 -200 m 1
 -16 -200 l 1
 80 -50 147 120 177 290 c 0
 207 460 201 630 157 780 c 1
 276 780 l 1
 330 630 338 460 308 290 c 0
 278 120 209 -50 103 -200 c 1
EndSplineSet
EndChar

StartChar: asterisk
Encoding: 42 42 84
Width: 592
VWidth: 0
Flags: HW
LayerCount: 2
Fore
SplineSet
596 602 m 1
 613 490 l 1
 385 444 l 1
 375 509 l 1
 596 602 l 1
534 331 m 1
 425 262 l 1
 349 456 l 1
 410 496 l 1
 534 331 l 1
259 262 m 1
 174 331 l 1
 356 496 l 1
 403 456 l 1
 259 262 l 1
151 490 m 1
 208 602 l 1
 397 509 l 1
 363 444 l 1
 151 490 l 1
359 700 m 1
 479 700 l 1
 414 476 l 1
 346 476 l 1
 359 700 l 1
EndSplineSet
EndChar

StartChar: less
Encoding: 60 60 85
Width: 640
VWidth: 0
Flags: HW
LayerCount: 2
Fore
SplineSet
302 266 m 1
 598 132 l 1
 576 4 l 1
 104 220 l 1
 119 304 l 1
 667 520 l 1
 644 392 l 1
 302 266 l 1
EndSplineSet
EndChar

StartChar: greater
Encoding: 62 62 86
Width: 640
VWidth: 0
Flags: HW
LayerCount: 2
Fore
SplineSet
430 258 m 1
 134 392 l 1
 157 520 l 1
 629 304 l 1
 614 220 l 1
 66 4 l 1
 88 132 l 1
 430 258 l 1
EndSplineSet
EndChar

StartChar: bracketleft
Encoding: 91 91 87
Width: 343
VWidth: 0
Flags: HW
LayerCount: 2
Fore
SplineSet
340 665 m 1
 204 -105 l 1
 305 -105 l 1
 285 -220 l 1
 54 -220 l 1
 231 780 l 1
 462 780 l 1
 441 665 l 1
 340 665 l 1
EndSplineSet
EndChar

StartChar: bracketright
Encoding: 93 93 88
Width: 343
Flags: HW
LayerCount: 2
Fore
SplineSet
102 -105 m 1
 238 665 l 1
 137 665 l 1
 158 780 l 1
 388 780 l 1
 211 -220 l 1
 -19 -220 l 1
 1 -105 l 1
 102 -105 l 1
EndSplineSet
EndChar

StartChar: asciicircum
Encoding: 94 94 89
Width: 510
VWidth: 0
Flags: HW
LayerCount: 2
Fore
SplineSet
359 592 m 1
 247 452 l 1
 128 452 l 1
 343 710 l 1
 417 710 l 1
 542 452 l 1
 423 452 l 1
 359 592 l 1
EndSplineSet
EndChar

StartChar: underscore
Encoding: 95 95 90
Width: 521
Flags: HW
LayerCount: 2
Fore
SplineSet
-26 -148 m 1
 -11 -64 l 1
 511 -64 l 1
 496 -148 l 1
 -26 -148 l 1
EndSplineSet
EndChar

StartChar: grave
Encoding: 96 96 91
Width: 375
VWidth: 0
Flags: HW
LayerCount: 2
Fore
SplineSet
176 656 m 1
 288 704 l 1
 410 544 l 1
 329 506 l 1
 176 656 l 1
EndSplineSet
EndChar

StartChar: braceleft
Encoding: 123 123 92
Width: 372
VWidth: 0
Flags: HW
LayerCount: 2
Fore
SplineSet
350 625 m 2
 326 490 l 2
 310 401 285 280 154 280 c 1
 158 300 l 1
 289 300 272 179 256 90 c 2
 232 -45 l 2
 227 -71 241 -95 271 -95 c 2
 305 -95 l 1
 287 -200 l 1
 206 -200 l 2
 136 -200 70 -159 87 -60 c 2
 121 132 l 2
 134 208 121 232 85 242 c 1
 102 338 l 1
 142 348 164 372 177 448 c 2
 211 640 l 2
 228 739 309 780 379 780 c 2
 460 780 l 1
 441 675 l 1
 407 675 l 2
 377 675 355 651 350 625 c 2
EndSplineSet
EndChar

StartChar: braceright
Encoding: 125 125 93
Width: 372
VWidth: 0
Flags: HW
LayerCount: 2
Fore
SplineSet
130 -45 m 2
 154 90 l 2
 170 179 194 300 325 300 c 1
 321 280 l 1
 190 280 208 401 224 490 c 2
 248 625 l 2
 253 651 239 675 209 675 c 2
 175 675 l 1
 194 780 l 1
 274 780 l 2
 344 780 410 739 393 640 c 2
 359 448 l 2
 346 372 360 348 396 338 c 1
 379 242 l 1
 339 232 316 208 303 132 c 2
 269 -60 l 2
 252 -159 171 -200 101 -200 c 2
 21 -200 l 1
 39 -95 l 1
 73 -95 l 2
 103 -95 125 -71 130 -45 c 2
EndSplineSet
EndChar

StartChar: asciitilde
Encoding: 126 126 94
Width: 575
VWidth: 0
Flags: HW
LayerCount: 2
Fore
SplineSet
182 168 m 1
 76 172 l 1
 75 179 76 187 78 196 c 0
 83 226 96 256 123 284 c 0
 155 318 194 340 254 340 c 0
 298 340 329 324 369 292 c 0
 395 270 417 258 435 258 c 0
 459 258 474 275 478 300 c 0
 480 310 480 322 478 332 c 1
 585 326 l 1
 586 318 587 308 585 298 c 0
 580 270 569 238 542 210 c 0
 510 176 476 158 426 158 c 0
 388 158 356 176 314 208 c 0
 288 230 261 242 236 242 c 0
 203 242 185 220 180 194 c 0
 178 182 180 176 182 168 c 1
EndSplineSet
EndChar

StartChar: exclamdown
Encoding: 161 161 95
Width: 330
VWidth: 0
Flags: HW
LayerCount: 2
Fore
SplineSet
205 -234 m 1
 43 -234 l 1
 156 244 l 1
 260 244 l 1
 205 -234 l 1
320 410 m 0
 312 366 273 334 225 334 c 0
 177 334 147 366 155 410 c 0
 163 454 204 488 252 488 c 0
 300 488 328 454 320 410 c 0
EndSplineSet
EndChar

StartChar: cent
Encoding: 162 162 96
Width: 580
VWidth: 0
Flags: HW
LayerCount: 2
Fore
SplineSet
256 38 m 1
 353 38 l 1
 332 -112 l 1
 223 -112 l 1
 256 38 l 1
233 230 m 0
 219 148 271 96 343 96 c 0
 409 96 465 131 498 171 c 1
 474 36 l 1
 437 6 378 -10 315 -10 c 0
 167 -10 75 86 100 230 c 0
 125 374 252 470 400 470 c 0
 463 470 516 452 543 424 c 1
 519 289 l 1
 500 329 456 364 390 364 c 0
 318 364 247 308 233 230 c 0
345 578 m 1
 454 578 l 1
 421 428 l 1
 324 428 l 1
 345 578 l 1
EndSplineSet
EndChar

StartChar: sterling
Encoding: 163 163 97
Width: 601
VWidth: 0
Flags: HW
LayerCount: 2
Fore
SplineSet
132 370 m 1
 505 370 l 1
 489 278 l 1
 116 278 l 1
 132 370 l 1
522 470 m 1
 529 530 512 591 434 591 c 0
 382 591 332 564 321 502 c 0
 304 408 391 380 371 268 c 0
 352 162 231 70 153 50 c 1
 202 122 l 1
 554 122 l 1
 532 0 l 1
 56 0 l 1
 172 102 229 179 246 275 c 0
 263 369 164 398 186 520 c 0
 207 639 323 710 451 710 c 0
 597 710 657 599 647 515 c 1
 522 470 l 1
EndSplineSet
EndChar

StartChar: currency
Encoding: 164 164 98
Width: 577
VWidth: 0
Flags: HW
LayerCount: 2
Fore
SplineSet
117 503 m 1
 185 562 l 1
 266 464 l 1
 198 406 l 1
 117 503 l 1
93 38 m 1
 45 97 l 1
 160 194 l 1
 208 136 l 1
 93 38 l 1
524 406 m 1
 476 464 l 1
 591 562 l 1
 639 503 l 1
 524 406 l 1
418 136 m 1
 486 194 l 1
 567 97 l 1
 499 38 l 1
 418 136 l 1
105 300 m 0
 130 439 250 540 385 540 c 0
 520 540 606 439 581 300 c 0
 556 161 436 60 301 60 c 0
 166 60 80 161 105 300 c 0
225 300 m 0
 212 228 254 179 322 179 c 0
 390 179 447 228 460 300 c 0
 473 372 432 421 364 421 c 0
 296 421 238 372 225 300 c 0
EndSplineSet
EndChar

StartChar: yen
Encoding: 165 165 99
Width: 642
VWidth: 0
Flags: HW
LayerCount: 2
Fore
SplineSet
311 360 m 1
 459 360 l 1
 396 0 l 1
 248 0 l 1
 311 360 l 1
595 700 m 1
 759 700 l 1
 350 166 l 1
 130 700 l 1
 295 700 l 1
 395 418 l 1
 595 700 l 1
67 122 m 1
 83 215 l 1
 631 215 l 1
 615 122 l 1
 67 122 l 1
93 272 m 1
 109 365 l 1
 657 365 l 1
 641 272 l 1
 93 272 l 1
EndSplineSet
EndChar

StartChar: brokenbar
Encoding: 166 166 100
Width: 328
VWidth: 0
Flags: HW
LayerCount: 2
Fore
SplineSet
223 695 m 1
 353 695 l 1
 307 438 l 1
 177 438 l 1
 223 695 l 1
276 262 m 1
 231 5 l 1
 101 5 l 1
 146 262 l 1
 276 262 l 1
EndSplineSet
EndChar

StartChar: section
Encoding: 167 167 101
Width: 526
VWidth: 0
Flags: HW
LayerCount: 2
Fore
SplineSet
471 558 m 1
 451 590 407 609 375 609 c 0
 339 609 317 597 313 575 c 0
 308 546 357 533 407 515 c 0
 476 491 529 448 516 376 c 0
 498 274 397 232 291 232 c 1
 298 272 l 1
 341 276 383 310 390 350 c 0
 399 403 338 422 290 442 c 0
 234 465 176 500 190 582 c 0
 206 672 304 720 389 720 c 0
 467 720 538 684 555 640 c 1
 471 558 l 1
148 170 m 1
 177 118 231 91 275 91 c 0
 317 91 340 106 345 132 c 0
 351 168 308 182 257 200 c 0
 189 222 122 265 136 342 c 0
 152 432 252 480 366 480 c 1
 360 446 l 1
 311 430 272 410 265 369 c 0
 254 307 327 295 374 274 c 0
 434 247 489 206 476 130 c 0
 458 26 359 -18 260 -18 c 0
 158 -18 89 28 64 90 c 1
 148 170 l 1
EndSplineSet
EndChar

StartChar: dieresis
Encoding: 168 168 102
Width: 498
VWidth: 0
Flags: HW
LayerCount: 2
Fore
SplineSet
395 640 m 0
 403 684 444 722 492 722 c 0
 540 722 569 684 561 640 c 0
 553 596 512 560 464 560 c 0
 416 560 387 596 395 640 c 0
165 640 m 0
 173 684 213 722 261 722 c 0
 309 722 337 684 329 640 c 0
 321 596 281 560 233 560 c 0
 185 560 157 596 165 640 c 0
EndSplineSet
EndChar

StartChar: copyright
Encoding: 169 169 103
Width: 800
VWidth: 0
Flags: HW
LayerCount: 2
Fore
SplineSet
336 350 m 0
 321 266 371 214 447 214 c 0
 506 214 551 240 585 272 c 1
 568 174 l 1
 529 146 488 131 427 131 c 0
 297 131 219 222 242 350 c 0
 265 478 374 569 504 569 c 0
 565 569 601 554 630 526 c 1
 612 428 l 1
 590 460 554 486 495 486 c 0
 419 486 351 434 336 350 c 0
157 350 m 0
 126 172 234 40 407 40 c 0
 580 40 736 172 767 350 c 0
 798 528 689 660 516 660 c 0
 343 660 188 528 157 350 c 0
102 350 m 0
 139 559 321 710 525 710 c 0
 729 710 859 559 822 350 c 0
 785 141 602 -10 398 -10 c 0
 194 -10 65 141 102 350 c 0
EndSplineSet
EndChar

StartChar: registered
Encoding: 174 174 104
Width: 800
VWidth: 0
Flags: HW
LayerCount: 2
Fore
SplineSet
427 336 m 1
 510 336 l 1
 605 150 l 1
 503 150 l 1
 427 336 l 1
361 570 m 1
 447 570 l 1
 372 150 l 1
 286 150 l 1
 361 570 l 1
399 496 m 1
 413 570 l 1
 503 570 l 2
 603 570 649 515 636 440 c 0
 622 361 556 307 456 307 c 2
 366 307 l 1
 378 375 l 1
 462 375 l 2
 507 375 540 396 547 436 c 0
 554 476 528 496 483 496 c 2
 399 496 l 1
157 350 m 0
 126 172 234 40 407 40 c 0
 580 40 736 172 767 350 c 0
 798 528 689 660 516 660 c 0
 343 660 188 528 157 350 c 0
102 350 m 0
 139 559 321 710 525 710 c 0
 729 710 859 559 822 350 c 0
 785 141 602 -10 398 -10 c 0
 194 -10 65 141 102 350 c 0
EndSplineSet
EndChar

StartChar: ordfeminine
Encoding: 170 170 105
Width: 260
VWidth: 0
Flags: HW
LayerCount: 2
Fore
SplineSet
177 530 m 0
 174 512 184 500 210 500 c 0
 238 500 268 514 275 552 c 1
 279 525 l 1
 271 481 228 455 180 455 c 0
 134 455 103 482 111 529 c 0
 119 575 171 606 225 606 c 0
 262 606 289 591 296 581 c 1
 290 547 l 1
 274 561 257 568 230 568 c 0
 202 568 181 551 177 530 c 0
174 632 m 1
 159 678 l 1
 185 690 222 705 264 705 c 0
 323 705 359 679 351 632 c 2
 321 460 l 1
 259 460 l 1
 287 618 l 2
 291 639 276 652 251 652 c 0
 218 652 186 640 174 632 c 1
EndSplineSet
EndChar

StartChar: ordmasculine
Encoding: 186 186 106
Width: 278
VWidth: 0
Flags: HW
LayerCount: 2
Fore
SplineSet
122 580 m 0
 135 652 195 700 269 700 c 0
 343 700 390 652 377 580 c 0
 364 508 301 460 227 460 c 0
 153 460 109 508 122 580 c 0
187 580 m 0
 180 540 203 516 237 516 c 0
 271 516 303 540 310 580 c 0
 317 620 294 645 260 645 c 0
 226 645 194 620 187 580 c 0
EndSplineSet
EndChar

StartChar: guillemotleft
Encoding: 171 171 107
Width: 531
VWidth: 0
Flags: HW
LayerCount: 2
Fore
SplineSet
165 235 m 1
 77 255 l 1
 301 504 l 1
 372 445 l 1
 165 235 l 1
77 255 m 1
 174 285 l 1
 305 65 l 1
 213 6 l 1
 77 255 l 1
355 235 m 1
 267 255 l 1
 493 504 l 1
 562 445 l 1
 355 235 l 1
267 255 m 1
 364 285 l 1
 495 65 l 1
 405 6 l 1
 267 255 l 1
EndSplineSet
EndChar

StartChar: guillemotright
Encoding: 187 187 108
Width: 531
VWidth: 0
Flags: HW
LayerCount: 2
Fore
SplineSet
456 275 m 1
 546 255 l 1
 320 6 l 1
 249 65 l 1
 456 275 l 1
546 255 m 1
 448 225 l 1
 316 445 l 1
 408 504 l 1
 546 255 l 1
266 275 m 1
 355 255 l 1
 129 6 l 1
 59 65 l 1
 266 275 l 1
355 255 m 1
 258 225 l 1
 126 445 l 1
 217 504 l 1
 355 255 l 1
EndSplineSet
EndChar

StartChar: uni00AD
Encoding: 173 173 109
Width: 210
VWidth: 0
Flags: HW
LayerCount: 2
Fore
SplineSet
40 200 m 1
 53 275 l 1
 253 275 l 1
 240 200 l 1
 40 200 l 1
EndSplineSet
EndChar

StartChar: logicalnot
Encoding: 172 172 110
Width: 641
VWidth: 0
Flags: HW
LayerCount: 2
Fore
SplineSet
114 280 m 1
 134 394 l 1
 645 394 l 1
 625 280 l 1
 114 280 l 1
546 375 m 1
 642 375 l 1
 607 175 l 1
 511 175 l 1
 546 375 l 1
EndSplineSet
EndChar

StartChar: macron
Encoding: 175 175 111
Width: 524
VWidth: 0
Flags: HW
LayerCount: 2
Fore
SplineSet
182 580 m 1
 202 694 l 1
 568 694 l 1
 548 580 l 1
 182 580 l 1
EndSplineSet
EndChar

StartChar: degree
Encoding: 176 176 112
Width: 290
VWidth: 0
Flags: HW
LayerCount: 2
Fore
SplineSet
123 598 m 0
 136 670 198 720 272 720 c 0
 346 720 392 670 379 598 c 0
 366 526 303 476 229 476 c 0
 155 476 110 526 123 598 c 0
187 598 m 0
 180 558 203 532 239 532 c 0
 275 532 307 558 314 598 c 0
 321 638 298 664 262 664 c 0
 226 664 194 638 187 598 c 0
EndSplineSet
EndChar

StartChar: plusminus
Encoding: 177 177 113
Width: 627
VWidth: 0
Flags: HW
LayerCount: 2
Fore
SplineSet
66 4 m 1
 86 119 l 1
 585 119 l 1
 565 4 l 1
 66 4 l 1
124 336 m 1
 145 455 l 1
 644 455 l 1
 623 336 l 1
 124 336 l 1
357 620 m 1
 490 620 l 1
 411 172 l 1
 278 172 l 1
 357 620 l 1
EndSplineSet
EndChar

StartChar: uni00B2
Encoding: 178 178 114
Width: 389
VWidth: 0
Flags: HW
LayerCount: 2
Fore
SplineSet
75 282 m 1
 301 482 l 2
 339 516 361 541 367 575 c 0
 372 605 358 635 316 635 c 0
 272 635 238 600 229 550 c 1
 144 550 l 1
 160 639 229 710 332 710 c 0
 432 710 469 640 458 577 c 0
 450 533 419 495 378 463 c 2
 252 362 l 1
 427 362 l 1
 413 282 l 1
 75 282 l 1
EndSplineSet
EndChar

StartChar: uni00B3
Encoding: 179 179 115
Width: 349
VWidth: 0
Flags: HW
LayerCount: 2
Fore
SplineSet
236 485 m 1
 243 526 l 1
 291 526 328 555 334 588 c 0
 339 618 325 637 290 637 c 0
 256 637 227 614 221 582 c 1
 141 582 l 1
 154 654 219 708 303 708 c 0
 391 708 431 654 420 592 c 0
 408 524 330 485 236 485 c 1
222 271 m 0
 126 271 79 335 92 407 c 1
 178 407 l 1
 171 365 197 343 236 343 c 0
 275 343 306 363 313 402 c 0
 320 442 292 467 232 467 c 1
 240 513 l 1
 342 513 412 477 397 393 c 0
 384 321 316 271 222 271 c 0
EndSplineSet
EndChar

StartChar: acute
Encoding: 180 180 116
Width: 375
VWidth: 0
Flags: HW
LayerCount: 2
Fore
SplineSet
430 656 m 1
 223 506 l 1
 156 544 l 1
 334 704 l 1
 430 656 l 1
EndSplineSet
EndChar

StartChar: mu
Encoding: 181 181 117
Width: 560
VWidth: 0
Flags: HW
LayerCount: 2
Fore
SplineSet
366 0 m 1
 447 460 l 1
 577 460 l 1
 496 0 l 1
 366 0 l 1
231 180 m 2
 220 120 236 86 290 86 c 0
 344 86 388 122 398 180 c 1
 430 184 l 1
 411 75 332 -10 224 -10 c 0
 116 -10 73 52 93 166 c 2
 145 460 l 1
 280 460 l 1
 231 180 l 2
145 460 m 1
 271 460 l 1
 134 -320 l 1
 8 -320 l 1
 145 460 l 1
EndSplineSet
EndChar

StartChar: paragraph
Encoding: 182 182 118
Width: 643
VWidth: 0
Flags: HW
LayerCount: 2
Fore
SplineSet
397 616 m 1
 411 700 l 1
 633 700 l 1
 619 616 l 1
 397 616 l 1
593 700 m 1
 707 700 l 1
 545 -220 l 1
 431 -220 l 1
 593 700 l 1
411 700 m 1
 525 700 l 1
 363 -220 l 1
 249 -220 l 1
 411 700 l 1
336 270 m 1
 211 270 121 346 146 485 c 0
 171 624 286 700 411 700 c 1
 336 270 l 1
EndSplineSet
EndChar

StartChar: periodcentered
Encoding: 183 183 119
Width: 315
VWidth: 0
Flags: HW
LayerCount: 2
Fore
SplineSet
122 260 m 0
 130 304 170 340 218 340 c 0
 266 340 294 304 286 260 c 0
 278 216 237 178 189 178 c 0
 141 178 114 216 122 260 c 0
EndSplineSet
EndChar

StartChar: uni00B9
Encoding: 185 185 120
Width: 478
VWidth: 0
Flags: HW
LayerCount: 2
Fore
SplineSet
241 584 m 1
 255 662 l 1
 448 702 l 1
 372 274 l 1
 288 274 l 1
 348 610 l 1
 241 584 l 1
EndSplineSet
EndChar

StartChar: cedilla
Encoding: 184 184 121
Width: 380
Flags: HW
LayerCount: 2
Fore
SplineSet
200 68 m 1
 295 66 l 1
 176 -72 l 1
 79 -119 l 1
 200 68 l 1
293 -142 m 1
 208 -136 l 1
 213 -110 189 -102 157 -102 c 0
 147 -102 114 -103 79 -119 c 1
 145 -76 l 1
 175 -54 197 -52 223 -52 c 0
 261 -52 304 -81 293 -142 c 1
293 -142 m 1
 281 -211 210 -246 150 -246 c 0
 100 -246 67 -237 30 -207 c 1
 82 -148 l 1
 103 -166 127 -172 149 -172 c 0
 183 -172 204 -160 208 -136 c 1
 293 -142 l 1
EndSplineSet
EndChar

StartChar: questiondown
Encoding: 191 191 122
Width: 606
VWidth: 0
Flags: HW
LayerCount: 2
Fore
SplineSet
522 646 m 0
 515 606 475 572 427 572 c 0
 379 572 350 606 357 646 c 0
 364 686 405 722 453 722 c 0
 501 722 529 686 522 646 c 0
457 330 m 1
 322 330 l 1
 364 508 l 1
 469 508 l 1
 457 330 l 1
221 200 m 0
 209 134 251 95 327 95 c 0
 389 95 450 128 496 182 c 1
 574 109 l 1
 496 31 416 -17 297 -17 c 0
 167 -17 68 68 91 200 c 0
 116 341 277 418 392 418 c 1
 426 330 l 1
 306 330 231 258 221 200 c 0
EndSplineSet
EndChar

StartChar: multiply
Encoding: 215 215 123
Width: 596
VWidth: 0
Flags: HW
LayerCount: 2
Fore
SplineSet
135 8 m 1
 68 92 l 1
 265 255 l 1
 126 418 l 1
 223 502 l 1
 357 332 l 1
 551 502 l 1
 618 418 l 1
 421 255 l 1
 560 92 l 1
 463 8 l 1
 329 178 l 1
 135 8 l 1
EndSplineSet
EndChar

StartChar: Oslash
Encoding: 216 216 124
Width: 790
VWidth: 0
Flags: HW
LayerCount: 2
Fore
SplineSet
250 350 m 0
 226 214 299 120 427 120 c 0
 555 120 662 214 686 350 c 0
 710 486 636 580 508 580 c 0
 380 580 274 486 250 350 c 0
98 350 m 0
 135 562 320 714 532 714 c 0
 744 714 875 562 838 350 c 0
 801 138 615 -18 403 -18 c 0
 191 -18 61 138 98 350 c 0
828 754 m 1
 886 706 l 1
 104 -54 l 1
 46 -6 l 1
 828 754 l 1
EndSplineSet
EndChar

StartChar: Thorn
Encoding: 222 222 125
Width: 593
VWidth: 0
Flags: HW
LayerCount: 2
Fore
SplineSet
321 132 m 1
 342 248 l 1
 423 248 479 280 492 352 c 0
 505 424 459 456 378 456 c 1
 399 574 l 1
 564 574 646 490 622 352 c 0
 598 214 486 132 321 132 c 1
183 132 m 1
 204 248 l 1
 342 248 l 1
 321 132 l 1
 183 132 l 1
240 456 m 1
 261 574 l 1
 399 574 l 1
 378 456 l 1
 240 456 l 1
203 700 m 1
 332 700 l 1
 209 0 l 1
 80 0 l 1
 203 700 l 1
EndSplineSet
EndChar

StartChar: divide
Encoding: 247 247 126
Width: 634
Flags: HW
LayerCount: 2
Fore
SplineSet
326 522 m 0
 334 566 376 604 424 604 c 0
 472 604 499 566 491 522 c 0
 483 478 443 440 395 440 c 0
 347 440 318 478 326 522 c 0
250 90 m 0
 258 134 299 170 347 170 c 0
 395 170 423 134 415 90 c 0
 407 46 366 8 318 8 c 0
 270 8 242 46 250 90 c 0
80 250 m 1
 101 368 l 1
 662 368 l 1
 641 250 l 1
 80 250 l 1
EndSplineSet
EndChar

StartChar: oslash
Encoding: 248 248 127
Width: 546
VWidth: 0
Flags: HW
LayerCount: 2
Fore
SplineSet
74 230 m 0
 100 378 227 470 371 470 c 0
 515 470 611 378 585 230 c 0
 559 82 430 -10 286 -10 c 0
 142 -10 48 82 74 230 c 0
199 230 m 0
 185 148 233 95 305 95 c 0
 377 95 446 148 460 230 c 0
 474 308 424 365 352 365 c 0
 280 365 213 308 199 230 c 0
540 504 m 1
 588 476 l 1
 106 -48 l 1
 57 -20 l 1
 540 504 l 1
EndSplineSet
EndChar

StartChar: circumflex
Encoding: 710 710 128
Width: 480
VWidth: 0
Flags: HW
LayerCount: 2
Fore
SplineSet
352 634 m 1
 240 546 l 1
 161 608 l 1
 372 748 l 1
 533 608 l 1
 432 546 l 1
 352 634 l 1
EndSplineSet
EndChar

StartChar: ogonek
Encoding: 731 731 129
Width: 260
VWidth: 0
Flags: HW
LayerCount: 2
Fore
SplineSet
174 -116 m 1
 195 -180 l 1
 176 -200 143 -220 91 -220 c 0
 21 -220 -20 -184 -9 -120 c 1
 87 -96 l 1
 82 -124 94 -136 120 -136 c 0
 142 -136 158 -129 174 -116 c 1
87 -96 m 1
 -9 -120 l 1
 2 -56 76 -11 152 25 c 1
 189 0 l 1
 132 -26 93 -64 87 -96 c 1
EndSplineSet
EndChar

StartChar: tilde
Encoding: 732 732 130
Width: 530
VWidth: 0
Flags: HW
LayerCount: 2
Fore
SplineSet
194 634 m 1
 213 683 267 724 325 724 c 0
 391 724 393 674 449 674 c 0
 473 674 494 694 520 726 c 1
 572 660 l 1
 549 623 491 578 433 578 c 0
 378 578 355 630 307 630 c 0
 268 630 253 595 250 580 c 1
 194 634 l 1
EndSplineSet
EndChar

StartChar: ring
Encoding: 730 730 131
Width: 313
VWidth: 0
Flags: HW
LayerCount: 2
Fore
SplineSet
174 774 m 0
 186 840 248 885 312 885 c 0
 376 885 422 840 410 774 c 0
 398 708 337 663 273 663 c 0
 209 663 162 708 174 774 c 0
245 774 m 0
 240 743 259 725 284 725 c 0
 309 725 335 743 340 774 c 0
 345 805 326 824 301 824 c 0
 276 824 250 805 245 774 c 0
EndSplineSet
EndChar

StartChar: dotaccent
Encoding: 729 729 132
Width: 300
VWidth: 0
Flags: HW
LayerCount: 2
Fore
SplineSet
210 808 m 0
 218 852 259 889 307 889 c 0
 355 889 382 852 374 808 c 0
 366 764 326 726 278 726 c 0
 230 726 202 764 210 808 c 0
EndSplineSet
EndChar

StartChar: uni2010
Encoding: 8208 8208 133
Width: 218
VWidth: 0
Flags: HW
LayerCount: 2
Fore
SplineSet
37 180 m 1
 57 294 l 1
 266 294 l 1
 246 180 l 1
 37 180 l 1
EndSplineSet
EndChar

StartChar: endash
Encoding: 8211 8211 134
Width: 770
VWidth: 0
Flags: HW
LayerCount: 2
Fore
SplineSet
102 180 m 1
 122 294 l 1
 748 294 l 1
 728 180 l 1
 102 180 l 1
EndSplineSet
EndChar

StartChar: figuredash
Encoding: 8210 8210 135
Width: 616
VWidth: 0
Flags: HW
LayerCount: 2
Fore
SplineSet
102 180 m 1
 122 294 l 1
 592 294 l 1
 572 180 l 1
 102 180 l 1
EndSplineSet
EndChar

StartChar: emdash
Encoding: 8212 8212 136
Width: 925
VWidth: 0
Flags: HW
LayerCount: 2
Fore
SplineSet
102 180 m 1
 122 294 l 1
 905 294 l 1
 885 180 l 1
 102 180 l 1
EndSplineSet
EndChar

StartChar: minus
Encoding: 8722 8722 137
Width: 592
VWidth: 0
Flags: HW
LayerCount: 2
Fore
SplineSet
94 180 m 1
 114 294 l 1
 583 294 l 1
 563 180 l 1
 94 180 l 1
EndSplineSet
EndChar

StartChar: quoteright
Encoding: 8217 8217 138
Width: 314
VWidth: 0
Flags: HW
LayerCount: 2
Fore
SplineSet
229 700 m 1
 368 700 l 1
 222 452 l 1
 130 452 l 1
 229 700 l 1
EndSplineSet
EndChar

StartChar: quoteleft
Encoding: 8216 8216 139
Width: 314
VWidth: 0
Flags: HW
LayerCount: 2
Fore
SplineSet
289 452 m 1
 150 452 l 1
 295 700 l 1
 388 700 l 1
 289 452 l 1
EndSplineSet
EndChar

StartChar: quotesinglbase
Encoding: 8218 8218 140
Width: 314
VWidth: 0
Flags: HW
LayerCount: 2
Fore
SplineSet
130 80 m 1
 269 80 l 1
 122 -168 l 1
 30 -168 l 1
 130 80 l 1
EndSplineSet
EndChar

StartChar: quotedblleft
Encoding: 8220 8220 141
Width: 536
VWidth: 0
Flags: HW
LayerCount: 2
Fore
SplineSet
289 452 m 1
 150 452 l 1
 295 700 l 1
 388 700 l 1
 289 452 l 1
510 452 m 1
 372 452 l 1
 517 700 l 1
 609 700 l 1
 510 452 l 1
EndSplineSet
EndChar

StartChar: quotedblright
Encoding: 8221 8221 142
Width: 536
VWidth: 0
Flags: HW
LayerCount: 2
Fore
SplineSet
229 700 m 1
 368 700 l 1
 222 452 l 1
 130 452 l 1
 229 700 l 1
451 700 m 1
 589 700 l 1
 444 452 l 1
 352 452 l 1
 451 700 l 1
EndSplineSet
EndChar

StartChar: perthousand
Encoding: 8240 8240 143
Width: 1301
VWidth: 0
Flags: HW
LayerCount: 2
Fore
SplineSet
944 161 m 0
 961 259 1052 338 1156 338 c 0
 1260 338 1320 259 1303 161 c 0
 1286 63 1197 -16 1093 -16 c 0
 989 -16 927 63 944 161 c 0
1052 161 m 0
 1045 121 1068 86 1111 86 c 0
 1154 86 1188 121 1195 161 c 0
 1202 201 1181 236 1138 236 c 0
 1095 236 1059 201 1052 161 c 0
121 539 m 0
 138 637 228 717 332 717 c 0
 436 717 498 637 481 539 c 0
 464 441 374 362 270 362 c 0
 166 362 104 441 121 539 c 0
229 539 m 0
 222 499 245 464 288 464 c 0
 331 464 365 499 372 539 c 0
 379 579 357 614 314 614 c 0
 271 614 236 579 229 539 c 0
512 161 m 0
 529 259 619 338 723 338 c 0
 827 338 887 259 870 161 c 0
 853 63 764 -16 660 -16 c 0
 556 -16 495 63 512 161 c 0
620 161 m 0
 613 121 635 86 678 86 c 0
 721 86 755 121 762 161 c 0
 769 201 748 236 705 236 c 0
 662 236 627 201 620 161 c 0
747 700 m 1
 879 700 l 1
 244 0 l 1
 113 0 l 1
 747 700 l 1
EndSplineSet
EndChar

StartChar: guilsinglleft
Encoding: 8249 8249 144
Width: 350
VWidth: 0
Flags: HW
LayerCount: 2
Fore
SplineSet
165 235 m 1
 77 255 l 1
 301 504 l 1
 372 445 l 1
 165 235 l 1
77 255 m 1
 174 285 l 1
 305 65 l 1
 213 6 l 1
 77 255 l 1
EndSplineSet
EndChar

StartChar: guilsinglright
Encoding: 8250 8250 145
Width: 350
VWidth: 0
Flags: HW
LayerCount: 2
Fore
SplineSet
274 275 m 1
 363 255 l 1
 139 6 l 1
 67 65 l 1
 274 275 l 1
363 255 m 1
 266 225 l 1
 134 445 l 1
 227 504 l 1
 363 255 l 1
EndSplineSet
EndChar

StartChar: uni2031
Encoding: 8241 8241 146
Width: 1733
VWidth: 0
Flags: HW
LayerCount: 2
Fore
SplineSet
1376 161 m 0
 1393 259 1484 338 1588 338 c 0
 1692 338 1753 259 1736 161 c 0
 1719 63 1629 -16 1525 -16 c 0
 1421 -16 1359 63 1376 161 c 0
1485 161 m 0
 1478 121 1500 86 1543 86 c 0
 1586 86 1620 121 1627 161 c 0
 1634 201 1613 236 1570 236 c 0
 1527 236 1492 201 1485 161 c 0
944 161 m 0
 961 259 1052 338 1156 338 c 0
 1260 338 1320 259 1303 161 c 0
 1286 63 1197 -16 1093 -16 c 0
 989 -16 927 63 944 161 c 0
1052 161 m 0
 1045 121 1068 86 1111 86 c 0
 1154 86 1188 121 1195 161 c 0
 1202 201 1181 236 1138 236 c 0
 1095 236 1059 201 1052 161 c 0
121 539 m 0
 138 637 228 717 332 717 c 0
 436 717 498 637 481 539 c 0
 464 441 374 362 270 362 c 0
 166 362 104 441 121 539 c 0
229 539 m 0
 222 499 245 464 288 464 c 0
 331 464 365 499 372 539 c 0
 379 579 357 614 314 614 c 0
 271 614 236 579 229 539 c 0
512 161 m 0
 529 259 619 338 723 338 c 0
 827 338 887 259 870 161 c 0
 853 63 764 -16 660 -16 c 0
 556 -16 495 63 512 161 c 0
620 161 m 0
 613 121 635 86 678 86 c 0
 721 86 755 121 762 161 c 0
 769 201 748 236 705 236 c 0
 662 236 627 201 620 161 c 0
747 700 m 1
 879 700 l 1
 244 0 l 1
 113 0 l 1
 747 700 l 1
EndSplineSet
EndChar

StartChar: uni203D
Encoding: 8253 8253 147
Width: 606
VWidth: 0
Flags: HW
LayerCount: 2
Fore
SplineSet
514 486 m 0
 528 564 481 605 398 605 c 0
 336 605 274 576 233 518 c 1
 156 591 l 1
 214 661 307 716 431 716 c 0
 561 716 662 632 639 500 c 0
 614 359 453 282 338 282 c 1
 321 347 l 1
 415 347 501 410 514 486 c 0
300 506 m 1
 431 506 l 1
 351 192 l 1
 270 192 l 1
 300 506 l 1
207 56 m 0
 215 100 256 132 304 132 c 0
 352 132 382 100 374 56 c 0
 366 12 325 -22 277 -22 c 0
 229 -22 199 12 207 56 c 0
EndSplineSet
EndChar

StartChar: Euro
Encoding: 8364 8364 148
Width: 632
VWidth: 0
Flags: HW
LayerCount: 2
Fore
SplineSet
111 390 m 1
 123 462 l 1
 618 462 l 1
 606 390 l 1
 111 390 l 1
78 261 m 1
 91 334 l 1
 574 334 l 1
 561 261 l 1
 78 261 l 1
282 350 m 0
 255 196 314 105 420 105 c 0
 477 105 532 127 580 167 c 1
 555 24 l 1
 505 -2 452 -17 398 -17 c 0
 210 -17 117 141 154 350 c 0
 191 559 339 717 527 717 c 0
 581 717 630 702 670 676 c 1
 645 533 l 1
 611 573 563 595 506 595 c 0
 400 595 309 504 282 350 c 0
EndSplineSet
EndChar

StartChar: fraction
Encoding: 8260 8260 149
Width: 722
VWidth: 0
Flags: HW
LayerCount: 2
Fore
SplineSet
703 700 m 1
 808 700 l 1
 165 0 l 1
 60 0 l 1
 703 700 l 1
EndSplineSet
EndChar

StartChar: onequarter
Encoding: 188 188 150
Width: 801
VWidth: 0
Flags: HW
LayerCount: 2
Fore
SplineSet
749 700 m 1
 836 700 l 1
 193 0 l 1
 106 0 l 1
 749 700 l 1
129 584 m 1
 143 662 l 1
 334 702 l 1
 258 274 l 1
 174 274 l 1
 234 610 l 1
 129 584 l 1
418 77 m 1
 500 142 l 1
 685 142 l 0
 697 152 l 0
 797 152 l 1
 784 77 l 1
 418 77 l 1
509 98 m 1
 418 77 l 1
 719 420 l 25
 778 420 l 1
 704 0 l 1
 615 0 l 1
 632 99 l 0
 642 105 l 0
 673 284 l 1
 509 98 l 1
EndSplineSet
EndChar

StartChar: onehalf
Encoding: 189 189 151
Width: 871
VWidth: 0
Flags: HW
LayerCount: 2
Fore
SplineSet
749 700 m 1
 836 700 l 1
 193 0 l 1
 106 0 l 1
 749 700 l 1
129 584 m 1
 143 662 l 1
 334 702 l 1
 258 274 l 1
 174 274 l 1
 234 610 l 1
 129 584 l 1
502 2 m 1
 728 202 l 2
 766 236 790 261 796 295 c 0
 801 325 787 355 745 355 c 0
 701 355 665 320 656 270 c 1
 571 270 l 1
 587 359 657 430 760 430 c 0
 860 430 895 360 884 297 c 0
 876 253 846 215 805 183 c 2
 679 82 l 1
 854 82 l 1
 840 2 l 1
 502 2 l 1
EndSplineSet
EndChar

StartChar: threequarters
Encoding: 190 190 152
Width: 861
VWidth: 0
Flags: HW
LayerCount: 2
Fore
SplineSet
815 700 m 1
 901 700 l 1
 258 0 l 1
 172 0 l 1
 815 700 l 1
243 485 m 1
 250 526 l 1
 298 526 335 555 341 588 c 0
 346 618 331 637 296 637 c 0
 262 637 235 614 229 582 c 1
 148 582 l 1
 161 654 225 708 309 708 c 0
 397 708 438 654 427 592 c 0
 415 524 337 485 243 485 c 1
229 271 m 0
 133 271 86 335 99 407 c 1
 185 407 l 1
 178 365 205 343 244 343 c 0
 283 343 313 363 320 402 c 0
 327 442 299 467 239 467 c 1
 247 513 l 1
 349 513 419 477 404 393 c 0
 391 321 323 271 229 271 c 0
478 77 m 1
 561 142 l 1
 745 142 l 0
 757 152 l 0
 857 152 l 1
 844 77 l 1
 478 77 l 1
569 98 m 1
 478 77 l 1
 779 420 l 25
 838 420 l 1
 764 0 l 1
 675 0 l 1
 692 99 l 0
 703 105 l 0
 734 284 l 1
 569 98 l 1
EndSplineSet
EndChar

StartChar: uni2150
Encoding: 8528 8528 153
Width: 912
VWidth: 0
Flags: HW
LayerCount: 2
Fore
SplineSet
717 700 m 1
 821 700 l 1
 178 0 l 1
 74 0 l 1
 717 700 l 1
129 584 m 1
 143 662 l 1
 334 702 l 1
 258 274 l 1
 174 274 l 1
 234 610 l 1
 129 584 l 1
620 339 m 1
 634 420 l 1
 962 420 l 1
 686 0 l 1
 593 0 l 1
 820 339 l 1
 620 339 l 1
EndSplineSet
EndChar

StartChar: uni2151
Encoding: 8529 8529 154
Width: 854
VWidth: 0
Flags: HW
LayerCount: 2
Fore
SplineSet
713 700 m 1
 817 700 l 1
 174 0 l 1
 70 0 l 1
 713 700 l 1
129 584 m 1
 143 662 l 1
 334 702 l 1
 258 274 l 1
 174 274 l 1
 234 610 l 1
 129 584 l 1
796 277 m 0
 804 325 777 356 733 356 c 0
 689 356 649 325 641 277 c 0
 633 229 661 198 705 198 c 0
 749 198 788 229 796 277 c 0
665 4 m 1
 555 4 l 1
 717 162 l 1
 733 166 l 1
 709 144 690 141 661 141 c 0
 597 141 543 195 557 277 c 0
 574 375 656 431 746 431 c 0
 836 431 899 375 882 277 c 0
 875 235 849 200 820 170 c 2
 665 4 l 1
EndSplineSet
EndChar

StartChar: uni2152
Encoding: 8530 8530 155
Width: 1171
VWidth: 0
Flags: HW
LayerCount: 2
Fore
SplineSet
713 700 m 1
 817 700 l 1
 174 0 l 1
 70 0 l 1
 713 700 l 1
129 584 m 1
 143 662 l 1
 334 702 l 1
 258 274 l 1
 174 274 l 1
 234 610 l 1
 129 584 l 1
587 310 m 1
 601 389 l 1
 791 428 l 1
 716 1 l 1
 632 1 l 1
 692 338 l 1
 587 310 l 1
922 210 m 0
 907 126 931 68 983 68 c 0
 1035 68 1078 126 1093 210 c 0
 1108 294 1085 352 1033 352 c 0
 981 352 937 294 922 210 c 0
838 210 m 0
 861 343 946 428 1046 428 c 0
 1148 428 1200 343 1177 210 c 0
 1154 77 1072 -8 970 -8 c 0
 870 -8 815 77 838 210 c 0
EndSplineSet
EndChar

StartChar: onethird
Encoding: 8531 8531 156
Width: 837
VWidth: 0
Flags: HW
LayerCount: 2
Fore
SplineSet
712 700 m 1
 817 700 l 1
 174 0 l 1
 69 0 l 1
 712 700 l 1
129 584 m 1
 143 662 l 1
 334 702 l 1
 258 274 l 1
 174 274 l 1
 234 610 l 1
 129 584 l 1
671 205 m 1
 678 246 l 1
 726 246 762 275 768 308 c 0
 773 338 760 357 725 357 c 0
 691 357 662 334 656 302 c 1
 575 302 l 1
 588 374 654 428 738 428 c 0
 826 428 866 374 855 312 c 0
 843 244 765 205 671 205 c 1
656 -9 m 0
 560 -9 513 55 526 127 c 1
 612 127 l 1
 605 85 633 63 672 63 c 0
 711 63 741 83 748 122 c 0
 755 162 728 187 668 187 c 1
 676 233 l 1
 778 233 847 197 832 113 c 0
 819 41 750 -9 656 -9 c 0
EndSplineSet
EndChar

StartChar: twothirds
Encoding: 8532 8532 157
Width: 969
VWidth: 0
Flags: HW
LayerCount: 2
Fore
SplineSet
853 700 m 1
 957 700 l 1
 314 0 l 1
 210 0 l 1
 853 700 l 1
80 282 m 1
 306 482 l 2
 344 516 367 541 373 575 c 0
 378 605 364 635 322 635 c 0
 278 635 242 600 233 550 c 1
 148 550 l 1
 164 639 234 710 337 710 c 0
 437 710 473 640 462 577 c 0
 454 533 425 495 384 463 c 2
 257 362 l 1
 432 362 l 1
 418 282 l 1
 80 282 l 1
802 205 m 1
 809 246 l 1
 857 246 894 275 900 308 c 0
 905 338 892 357 857 357 c 0
 823 357 793 334 787 302 c 1
 707 302 l 1
 720 374 785 428 869 428 c 0
 957 428 998 374 987 312 c 0
 975 244 896 205 802 205 c 1
788 -9 m 0
 692 -9 645 55 658 127 c 1
 744 127 l 1
 737 85 764 63 803 63 c 0
 842 63 873 83 880 122 c 0
 887 162 859 187 799 187 c 1
 807 233 l 1
 909 233 979 197 964 113 c 0
 951 41 882 -9 788 -9 c 0
EndSplineSet
EndChar

StartChar: uni2155
Encoding: 8533 8533 158
Width: 826
VWidth: 0
Flags: HW
LayerCount: 2
Fore
SplineSet
713 700 m 1
 817 700 l 1
 174 0 l 1
 70 0 l 1
 713 700 l 1
129 584 m 1
 143 662 l 1
 334 702 l 1
 258 274 l 1
 174 274 l 1
 234 610 l 1
 129 584 l 1
825 133 m 0
 808 36 718 -10 637 -10 c 0
 560 -10 517 21 487 55 c 1
 540 124 l 1
 565 94 600 70 636 70 c 0
 689 70 725 96 733 142 c 0
 741 188 706 211 661 211 c 0
 627 211 588 204 541 180 c 1
 607 228 l 1
 644 261 683 272 723 272 c 0
 791 272 840 218 825 133 c 0
690 343 m 1
 637 232 l 1
 541 180 l 1
 640 418 l 1
 870 418 l 1
 856 343 l 1
 690 343 l 1
EndSplineSet
EndChar

StartChar: uni2156
Encoding: 8534 8534 159
Width: 964
VWidth: 0
Flags: HW
LayerCount: 2
Fore
SplineSet
853 700 m 1
 957 700 l 1
 314 0 l 1
 210 0 l 1
 853 700 l 1
80 282 m 1
 306 482 l 2
 344 516 367 541 373 575 c 0
 378 605 364 635 322 635 c 0
 278 635 242 600 233 550 c 1
 148 550 l 1
 164 639 234 710 337 710 c 0
 437 710 473 640 462 577 c 0
 454 533 425 495 384 463 c 2
 257 362 l 1
 432 362 l 1
 418 282 l 1
 80 282 l 1
957 133 m 0
 940 36 850 -10 769 -10 c 0
 692 -10 648 21 618 55 c 1
 671 124 l 1
 696 94 731 70 767 70 c 0
 820 70 857 96 865 142 c 0
 873 188 837 211 792 211 c 0
 758 211 720 204 673 180 c 1
 739 228 l 1
 776 261 815 272 855 272 c 0
 923 272 972 218 957 133 c 0
822 343 m 1
 769 232 l 1
 673 180 l 1
 772 418 l 1
 1001 418 l 1
 987 343 l 1
 822 343 l 1
EndSplineSet
EndChar

StartChar: uni2157
Encoding: 8535 8535 160
Width: 901
VWidth: 0
Flags: HW
LayerCount: 2
Fore
SplineSet
791 700 m 1
 895 700 l 1
 252 0 l 1
 148 0 l 1
 791 700 l 1
241 485 m 1
 248 526 l 1
 296 526 332 555 338 588 c 0
 343 618 329 637 294 637 c 0
 260 637 232 614 226 582 c 1
 145 582 l 1
 158 654 224 708 308 708 c 0
 396 708 437 654 426 592 c 0
 414 524 335 485 241 485 c 1
226 271 m 0
 130 271 83 335 96 407 c 1
 182 407 l 1
 175 365 202 343 241 343 c 0
 280 343 310 363 317 402 c 0
 324 442 297 467 237 467 c 1
 245 513 l 1
 347 513 418 477 403 393 c 0
 390 321 320 271 226 271 c 0
891 133 m 0
 874 36 783 -10 702 -10 c 0
 625 -10 582 21 552 55 c 1
 605 124 l 1
 630 94 665 70 701 70 c 0
 754 70 791 96 799 142 c 0
 807 188 771 211 726 211 c 0
 692 211 653 204 606 180 c 1
 672 228 l 1
 709 261 748 272 788 272 c 0
 856 272 906 218 891 133 c 0
755 343 m 1
 703 232 l 1
 606 180 l 1
 706 418 l 1
 935 418 l 1
 921 343 l 1
 755 343 l 1
EndSplineSet
EndChar

StartChar: uni2158
Encoding: 8536 8536 161
Width: 971
VWidth: 0
Flags: HW
LayerCount: 2
Fore
SplineSet
844 700 m 1
 948 700 l 1
 305 0 l 1
 201 0 l 1
 844 700 l 1
87 357 m 1
 169 422 l 1
 354 422 l 0
 366 432 l 0
 466 432 l 1
 453 357 l 1
 87 357 l 1
179 378 m 1
 87 357 l 1
 388 700 l 25
 447 700 l 1
 373 280 l 1
 284 280 l 1
 302 379 l 0
 312 385 l 0
 343 564 l 1
 179 378 l 1
964 133 m 0
 947 36 857 -10 776 -10 c 0
 699 -10 657 21 627 55 c 1
 678 122 l 1
 703 92 738 70 774 70 c 0
 827 70 865 95 873 141 c 0
 881 187 844 211 799 211 c 0
 765 211 727 204 680 180 c 1
 747 228 l 1
 784 261 822 272 862 272 c 0
 930 272 979 218 964 133 c 0
830 343 m 1
 777 232 l 1
 680 180 l 1
 780 418 l 1
 1009 418 l 1
 995 343 l 1
 830 343 l 1
EndSplineSet
EndChar

StartChar: uni2159
Encoding: 8537 8537 162
Width: 830
VWidth: 0
Flags: HW
LayerCount: 2
Fore
SplineSet
726 700 m 1
 831 700 l 1
 188 0 l 1
 83 0 l 1
 726 700 l 1
129 584 m 1
 143 662 l 1
 334 702 l 1
 258 274 l 1
 174 274 l 1
 234 610 l 1
 129 584 l 1
588 143 m 0
 580 95 607 64 651 64 c 0
 695 64 735 95 743 143 c 0
 751 191 723 222 679 222 c 0
 635 222 596 191 588 143 c 0
721 416 m 1
 830 416 l 1
 667 258 l 1
 653 254 l 1
 677 276 696 279 725 279 c 0
 789 279 843 225 829 143 c 0
 812 45 728 -11 638 -11 c 0
 548 -11 486 45 503 143 c 0
 510 185 535 220 564 250 c 2
 721 416 l 1
EndSplineSet
EndChar

StartChar: uni215A
Encoding: 8538 8538 163
Width: 908
VWidth: 0
Flags: HW
LayerCount: 2
Fore
SplineSet
817 700 m 1
 922 700 l 1
 279 0 l 1
 174 0 l 1
 817 700 l 1
427 413 m 0
 410 316 321 270 240 270 c 0
 163 270 119 301 89 335 c 1
 142 404 l 1
 167 374 203 350 239 350 c 0
 292 350 327 376 335 422 c 0
 343 468 309 491 264 491 c 0
 230 491 190 484 143 460 c 1
 210 508 l 1
 247 541 285 552 325 552 c 0
 393 552 442 498 427 413 c 0
293 623 m 1
 240 512 l 1
 143 460 l 1
 242 698 l 1
 471 698 l 1
 458 623 l 1
 293 623 l 1
667 143 m 0
 659 95 686 64 730 64 c 0
 774 64 813 95 821 143 c 0
 829 191 802 222 758 222 c 0
 714 222 675 191 667 143 c 0
799 416 m 1
 909 416 l 1
 746 258 l 1
 731 254 l 1
 755 276 774 279 803 279 c 0
 867 279 921 225 907 143 c 0
 890 45 807 -11 717 -11 c 0
 627 -11 564 45 581 143 c 0
 588 185 614 220 643 250 c 2
 799 416 l 1
EndSplineSet
EndChar

StartChar: oneeighth
Encoding: 8539 8539 164
Width: 851
VWidth: 0
Flags: HW
LayerCount: 2
Fore
SplineSet
726 700 m 1
 831 700 l 1
 188 0 l 1
 83 0 l 1
 726 700 l 1
129 584 m 1
 143 662 l 1
 334 702 l 1
 258 274 l 1
 174 274 l 1
 234 610 l 1
 129 584 l 1
594 319 m 0
 606 386 674 429 748 429 c 0
 822 429 874 386 862 319 c 0
 849 246 778 208 709 208 c 0
 640 208 581 246 594 319 c 0
675 311 m 0
 669 279 688 256 717 256 c 0
 746 256 774 279 780 311 c 0
 786 343 767 364 736 364 c 0
 705 364 681 343 675 311 c 0
542 114 m 0
 557 199 645 237 714 237 c 0
 783 237 856 199 841 114 c 0
 828 41 750 -9 670 -9 c 0
 590 -9 529 41 542 114 c 0
630 127 m 0
 623 85 649 62 683 62 c 0
 717 62 751 85 758 127 c 0
 764 163 739 189 705 189 c 0
 671 189 636 163 630 127 c 0
EndSplineSet
EndChar

StartChar: threeeighths
Encoding: 8540 8540 165
Width: 921
VWidth: 0
Flags: HW
LayerCount: 2
Fore
SplineSet
795 700 m 1
 899 700 l 1
 256 0 l 1
 152 0 l 1
 795 700 l 1
241 485 m 1
 248 526 l 1
 296 526 332 555 338 588 c 0
 343 618 329 637 294 637 c 0
 260 637 232 614 226 582 c 1
 145 582 l 1
 158 654 224 708 308 708 c 0
 396 708 437 654 426 592 c 0
 414 524 335 485 241 485 c 1
226 271 m 0
 130 271 83 335 96 407 c 1
 182 407 l 1
 175 365 202 343 241 343 c 0
 280 343 310 363 317 402 c 0
 324 442 297 467 237 467 c 1
 245 513 l 1
 347 513 418 477 403 393 c 0
 390 321 320 271 226 271 c 0
663 319 m 0
 675 386 744 429 818 429 c 0
 892 429 944 386 932 319 c 0
 919 246 848 208 779 208 c 0
 710 208 650 246 663 319 c 0
744 311 m 0
 738 279 758 256 787 256 c 0
 816 256 843 279 849 311 c 0
 855 343 837 364 806 364 c 0
 775 364 750 343 744 311 c 0
612 114 m 0
 627 199 715 237 784 237 c 0
 853 237 925 199 910 114 c 0
 897 41 820 -9 740 -9 c 0
 660 -9 599 41 612 114 c 0
700 127 m 0
 693 85 719 62 753 62 c 0
 787 62 820 85 827 127 c 0
 833 163 809 189 775 189 c 0
 741 189 706 163 700 127 c 0
EndSplineSet
EndChar

StartChar: fiveeighths
Encoding: 8541 8541 166
Width: 943
VWidth: 0
Flags: HW
LayerCount: 2
Fore
SplineSet
817 700 m 1
 922 700 l 1
 279 0 l 1
 174 0 l 1
 817 700 l 1
423 413 m 0
 406 316 317 270 236 270 c 0
 159 270 115 301 85 335 c 1
 137 404 l 1
 162 374 198 350 234 350 c 0
 287 350 323 376 331 422 c 0
 339 468 304 491 259 491 c 0
 225 491 186 484 139 460 c 1
 206 508 l 1
 243 541 281 552 321 552 c 0
 389 552 438 498 423 413 c 0
288 623 m 1
 236 512 l 1
 139 460 l 1
 238 698 l 1
 467 698 l 1
 454 623 l 1
 288 623 l 1
686 319 m 0
 698 386 766 429 840 429 c 0
 914 429 966 386 954 319 c 0
 941 246 870 208 801 208 c 0
 732 208 673 246 686 319 c 0
765 311 m 0
 759 279 780 256 809 256 c 0
 838 256 865 279 871 311 c 0
 877 343 859 364 828 364 c 0
 797 364 771 343 765 311 c 0
634 114 m 0
 649 199 737 237 806 237 c 0
 875 237 948 199 933 114 c 0
 920 41 842 -9 762 -9 c 0
 682 -9 621 41 634 114 c 0
722 127 m 0
 715 85 741 62 775 62 c 0
 809 62 843 85 850 127 c 0
 856 163 831 189 797 189 c 0
 763 189 728 163 722 127 c 0
EndSplineSet
EndChar

StartChar: seveneighths
Encoding: 8542 8542 167
Width: 833
VWidth: 0
Flags: HW
LayerCount: 2
Fore
SplineSet
703 700 m 1
 808 700 l 1
 165 0 l 1
 60 0 l 1
 703 700 l 1
134 619 m 1
 148 700 l 1
 477 700 l 1
 200 280 l 1
 108 280 l 1
 335 619 l 1
 134 619 l 1
576 319 m 0
 588 386 656 429 730 429 c 0
 804 429 856 386 844 319 c 0
 831 246 760 208 691 208 c 0
 622 208 563 246 576 319 c 0
655 311 m 0
 649 279 670 256 699 256 c 0
 728 256 755 279 761 311 c 0
 767 343 749 364 718 364 c 0
 687 364 661 343 655 311 c 0
524 114 m 0
 539 199 627 237 696 237 c 0
 765 237 838 199 823 114 c 0
 810 41 732 -9 652 -9 c 0
 572 -9 511 41 524 114 c 0
612 127 m 0
 605 85 631 62 665 62 c 0
 699 62 733 85 740 127 c 0
 746 163 721 189 687 189 c 0
 653 189 618 163 612 127 c 0
EndSplineSet
EndChar

StartChar: uni2074
Encoding: 8308 8308 168
Width: 414
VWidth: 0
Flags: HW
LayerCount: 2
Fore
SplineSet
83 357 m 1
 165 422 l 1
 349 422 l 0
 361 432 l 0
 462 432 l 1
 449 357 l 1
 83 357 l 1
175 378 m 1
 83 357 l 1
 384 700 l 25
 443 700 l 1
 369 280 l 1
 280 280 l 1
 298 379 l 0
 306 385 l 0
 337 564 l 1
 175 378 l 1
EndSplineSet
EndChar

StartChar: uni2075
Encoding: 8309 8309 169
Width: 377
VWidth: 0
Flags: HW
LayerCount: 2
Fore
SplineSet
423 413 m 0
 406 316 317 270 236 270 c 0
 159 270 115 301 85 335 c 1
 137 404 l 1
 162 374 198 350 234 350 c 0
 287 350 323 376 331 422 c 0
 339 468 304 491 259 491 c 0
 225 491 186 484 139 460 c 1
 206 508 l 1
 243 541 281 552 321 552 c 0
 389 552 438 498 423 413 c 0
288 623 m 1
 236 512 l 1
 139 460 l 1
 238 698 l 1
 467 698 l 1
 454 623 l 1
 288 623 l 1
EndSplineSet
EndChar

StartChar: uni2076
Encoding: 8310 8310 170
Width: 372
VWidth: 0
Flags: HW
LayerCount: 2
Fore
SplineSet
186 423 m 0
 178 375 207 344 251 344 c 0
 295 344 333 375 341 423 c 0
 349 471 323 502 279 502 c 0
 235 502 194 471 186 423 c 0
319 696 m 1
 429 696 l 1
 265 538 l 1
 249 534 l 1
 273 556 293 559 322 559 c 0
 386 559 441 505 427 423 c 0
 410 325 327 269 237 269 c 0
 147 269 84 325 101 423 c 0
 108 465 132 500 161 530 c 2
 319 696 l 1
EndSplineSet
EndChar

StartChar: uni2077
Encoding: 8311 8311 171
Width: 371
VWidth: 0
Flags: HW
LayerCount: 2
Fore
SplineSet
134 619 m 1
 148 700 l 1
 477 700 l 1
 200 280 l 1
 108 280 l 1
 335 619 l 1
 134 619 l 1
EndSplineSet
EndChar

StartChar: uni2078
Encoding: 8312 8312 172
Width: 350
VWidth: 0
Flags: HW
LayerCount: 2
Fore
SplineSet
146 599 m 0
 158 666 225 709 299 709 c 0
 373 709 426 666 414 599 c 0
 401 526 329 488 260 488 c 0
 191 488 133 526 146 599 c 0
226 591 m 0
 220 559 240 536 269 536 c 0
 298 536 324 559 330 591 c 0
 336 623 319 644 288 644 c 0
 257 644 232 623 226 591 c 0
93 394 m 0
 108 479 196 517 265 517 c 0
 334 517 408 479 393 394 c 0
 380 321 302 271 222 271 c 0
 142 271 80 321 93 394 c 0
182 407 m 0
 175 365 200 342 234 342 c 0
 268 342 303 365 310 407 c 0
 316 443 291 469 257 469 c 0
 223 469 188 443 182 407 c 0
EndSplineSet
EndChar

StartChar: uni2079
Encoding: 8313 8313 173
Width: 369
VWidth: 0
Flags: HW
LayerCount: 2
Fore
SplineSet
366 557 m 0
 374 605 348 636 304 636 c 0
 260 636 220 605 212 557 c 0
 204 509 232 478 276 478 c 0
 320 478 358 509 366 557 c 0
235 284 m 1
 125 284 l 1
 288 442 l 1
 304 446 l 1
 280 424 260 421 231 421 c 0
 167 421 112 475 126 557 c 0
 143 655 227 711 317 711 c 0
 407 711 469 655 452 557 c 0
 445 515 420 480 391 450 c 2
 235 284 l 1
EndSplineSet
EndChar

StartChar: uni2070
Encoding: 8304 8304 174
Width: 384
VWidth: 0
Flags: HW
LayerCount: 2
Fore
SplineSet
193 490 m 0
 178 406 202 348 254 348 c 0
 306 348 349 406 364 490 c 0
 379 574 356 632 304 632 c 0
 252 632 208 574 193 490 c 0
109 490 m 0
 132 623 218 708 318 708 c 0
 420 708 471 623 448 490 c 0
 425 357 343 272 241 272 c 0
 141 272 86 357 109 490 c 0
EndSplineSet
EndChar

StartChar: uni2080
Encoding: 8320 8320 175
Width: 384
VWidth: 0
Flags: HW
LayerCount: 2
Fore
SplineSet
144 210 m 0
 129 126 153 68 205 68 c 0
 257 68 300 126 315 210 c 0
 330 294 307 352 255 352 c 0
 203 352 159 294 144 210 c 0
60 210 m 0
 83 343 168 428 268 428 c 0
 370 428 422 343 399 210 c 0
 376 77 294 -8 192 -8 c 0
 92 -8 37 77 60 210 c 0
EndSplineSet
EndChar

StartChar: uni2084
Encoding: 8324 8324 176
Width: 417
VWidth: 0
Flags: HW
LayerCount: 2
Fore
SplineSet
33 77 m 1
 115 142 l 1
 300 142 l 0
 312 152 l 0
 412 152 l 1
 399 77 l 1
 33 77 l 1
124 98 m 1
 33 77 l 1
 334 420 l 25
 393 420 l 1
 319 0 l 1
 230 0 l 1
 247 99 l 0
 257 105 l 0
 288 284 l 1
 124 98 l 1
EndSplineSet
EndChar

StartChar: uni2085
Encoding: 8325 8325 177
Width: 384
VWidth: 0
Flags: HW
LayerCount: 2
Fore
SplineSet
375 133 m 0
 358 36 269 -10 188 -10 c 0
 111 -10 68 21 38 55 c 1
 90 124 l 1
 115 94 150 70 186 70 c 0
 239 70 277 96 285 142 c 0
 293 188 256 211 211 211 c 0
 177 211 139 204 92 180 c 1
 158 228 l 1
 195 261 234 272 274 272 c 0
 342 272 390 218 375 133 c 0
240 343 m 1
 188 232 l 1
 92 180 l 1
 190 418 l 1
 420 418 l 1
 406 343 l 1
 240 343 l 1
EndSplineSet
EndChar

StartChar: uni2086
Encoding: 8326 8326 178
Width: 379
VWidth: 0
Flags: HW
LayerCount: 2
Fore
SplineSet
139 143 m 0
 131 95 159 64 203 64 c 0
 247 64 285 95 293 143 c 0
 301 191 275 222 231 222 c 0
 187 222 147 191 139 143 c 0
271 416 m 1
 380 416 l 1
 217 258 l 1
 203 254 l 1
 227 276 246 279 275 279 c 0
 339 279 393 225 379 143 c 0
 362 45 280 -11 190 -11 c 0
 100 -11 36 45 53 143 c 0
 60 185 85 220 114 250 c 2
 271 416 l 1
EndSplineSet
EndChar

StartChar: uni2087
Encoding: 8327 8327 179
Width: 375
VWidth: 0
Flags: HW
LayerCount: 2
Fore
SplineSet
88 339 m 1
 102 420 l 1
 430 420 l 1
 153 0 l 1
 62 0 l 1
 288 339 l 1
 88 339 l 1
EndSplineSet
EndChar

StartChar: uni2088
Encoding: 8328 8328 180
Width: 354
VWidth: 0
Flags: HW
LayerCount: 2
Fore
SplineSet
99 319 m 0
 111 386 179 429 253 429 c 0
 327 429 380 386 368 319 c 0
 355 246 283 208 214 208 c 0
 145 208 86 246 99 319 c 0
180 311 m 0
 174 279 193 256 222 256 c 0
 251 256 279 279 285 311 c 0
 291 343 272 364 241 364 c 0
 210 364 186 343 180 311 c 0
48 114 m 0
 63 199 150 237 219 237 c 0
 288 237 362 199 347 114 c 0
 334 41 255 -9 175 -9 c 0
 95 -9 35 41 48 114 c 0
136 127 m 0
 129 85 154 62 188 62 c 0
 222 62 256 85 263 127 c 0
 269 163 244 189 210 189 c 0
 176 189 142 163 136 127 c 0
EndSplineSet
EndChar

StartChar: uni2089
Encoding: 8329 8329 181
Width: 382
VWidth: 0
Flags: HW
LayerCount: 2
Fore
SplineSet
314 277 m 0
 322 325 295 356 251 356 c 0
 207 356 167 325 159 277 c 0
 151 229 179 198 223 198 c 0
 267 198 306 229 314 277 c 0
183 4 m 1
 72 4 l 1
 235 162 l 1
 251 166 l 1
 227 144 206 141 177 141 c 0
 113 141 60 195 74 277 c 0
 91 375 174 431 264 431 c 0
 354 431 417 375 400 277 c 0
 393 235 367 200 338 170 c 2
 183 4 l 1
EndSplineSet
EndChar

StartChar: uni2081
Encoding: 8321 8321 182
Width: 346
VWidth: 0
Flags: HW
LayerCount: 2
Fore
SplineSet
145 310 m 1
 159 389 l 1
 349 428 l 1
 274 1 l 1
 191 1 l 1
 251 338 l 1
 145 310 l 1
EndSplineSet
EndChar

StartChar: uni2082
Encoding: 8322 8322 183
Width: 391
VWidth: 0
Flags: HW
LayerCount: 2
Fore
SplineSet
27 2 m 1
 254 202 l 2
 292 236 315 261 321 295 c 0
 326 325 312 355 270 355 c 0
 226 355 191 320 182 270 c 1
 96 270 l 1
 112 359 181 430 284 430 c 0
 384 430 421 360 410 297 c 0
 402 253 371 215 330 183 c 2
 204 82 l 1
 379 82 l 1
 365 2 l 1
 27 2 l 1
EndSplineSet
EndChar

StartChar: uni2083
Encoding: 8323 8323 184
Width: 354
VWidth: 0
Flags: HW
LayerCount: 2
Fore
SplineSet
189 205 m 1
 196 246 l 1
 244 246 281 275 287 308 c 0
 292 338 278 357 243 357 c 0
 209 357 181 334 175 302 c 1
 94 302 l 1
 107 374 172 428 256 428 c 0
 344 428 386 374 375 312 c 0
 363 244 283 205 189 205 c 1
174 -9 m 0
 78 -9 32 55 45 127 c 1
 130 127 l 1
 123 85 151 63 190 63 c 0
 229 63 260 83 267 122 c 0
 274 162 246 187 186 187 c 1
 194 233 l 1
 296 233 367 197 352 113 c 0
 339 41 268 -9 174 -9 c 0
EndSplineSet
EndChar

StartChar: Agrave
Encoding: 192 192 185
Width: 712
VWidth: 0
Flags: HW
LayerCount: 2
Fore
SplineSet
201 158 m 1
 238 272 l 1
 575 272 l 1
 571 158 l 1
 201 158 l 1
439 472 m 1
 293 231 l 1
 290 199 l 1
 163 0 l 1
 0 0 l 1
 487 742 l 1
 712 0 l 1
 549 0 l 1
 494 192 l 1
 501 229 l 1
 439 472 l 1
372 952 m 1
 484 1000 l 1
 606 840 l 1
 525 802 l 1
 372 952 l 1
EndSplineSet
EndChar

StartChar: Aacute
Encoding: 193 193 186
Width: 712
VWidth: 0
Flags: HW
LayerCount: 2
Fore
SplineSet
201 158 m 1
 238 272 l 1
 575 272 l 1
 571 158 l 1
 201 158 l 1
439 472 m 1
 293 231 l 1
 290 199 l 1
 163 0 l 1
 0 0 l 1
 487 742 l 1
 712 0 l 1
 549 0 l 1
 494 192 l 1
 501 229 l 1
 439 472 l 1
674 952 m 1
 467 802 l 1
 400 840 l 1
 578 1000 l 1
 674 952 l 1
EndSplineSet
EndChar

StartChar: Acircumflex
Encoding: 194 194 187
Width: 712
VWidth: 0
Flags: HW
LayerCount: 2
Fore
SplineSet
201 158 m 1
 238 272 l 1
 575 272 l 1
 571 158 l 1
 201 158 l 1
439 472 m 1
 293 231 l 1
 290 199 l 1
 163 0 l 1
 0 0 l 1
 487 742 l 1
 712 0 l 1
 549 0 l 1
 494 192 l 1
 501 229 l 1
 439 472 l 1
509 868 m 1
 397 780 l 1
 318 840 l 1
 529 980 l 1
 690 840 l 1
 592 780 l 1
 509 868 l 1
EndSplineSet
EndChar

StartChar: Atilde
Encoding: 195 195 188
Width: 712
VWidth: 0
Flags: HW
LayerCount: 2
Fore
SplineSet
201 158 m 1
 238 272 l 1
 575 272 l 1
 571 158 l 1
 201 158 l 1
439 472 m 1
 293 231 l 1
 290 199 l 1
 163 0 l 1
 0 0 l 1
 487 742 l 1
 712 0 l 1
 549 0 l 1
 494 192 l 1
 501 229 l 1
 439 472 l 1
319 847 m 1
 338 896 391 938 449 938 c 0
 515 938 519 888 575 888 c 0
 599 888 619 907 645 939 c 1
 697 874 l 1
 674 837 616 792 558 792 c 0
 503 792 481 844 433 844 c 0
 394 844 379 807 376 792 c 1
 319 847 l 1
EndSplineSet
EndChar

StartChar: Adieresis
Encoding: 196 196 189
Width: 712
VWidth: 0
Flags: HW
LayerCount: 2
Fore
SplineSet
201 158 m 1
 238 272 l 1
 575 272 l 1
 571 158 l 1
 201 158 l 1
439 472 m 1
 293 231 l 1
 290 199 l 1
 163 0 l 1
 0 0 l 1
 487 742 l 1
 712 0 l 1
 549 0 l 1
 494 192 l 1
 501 229 l 1
 439 472 l 1
558 834 m 0
 566 878 607 916 655 916 c 0
 703 916 731 878 723 834 c 0
 715 790 674 754 626 754 c 0
 578 754 550 790 558 834 c 0
283 834 m 0
 291 878 333 916 381 916 c 0
 429 916 456 878 448 834 c 0
 440 790 400 754 352 754 c 0
 304 754 275 790 283 834 c 0
EndSplineSet
EndChar

StartChar: Aring
Encoding: 197 197 190
Width: 712
VWidth: 0
Flags: HW
LayerCount: 2
Fore
SplineSet
201 158 m 1
 238 272 l 1
 575 272 l 1
 571 158 l 1
 201 158 l 1
439 472 m 1
 293 231 l 1
 290 199 l 1
 163 0 l 1
 0 0 l 1
 487 742 l 1
 712 0 l 1
 549 0 l 1
 494 192 l 1
 501 229 l 1
 439 472 l 1
379 800 m 0
 391 866 452 910 516 910 c 0
 580 910 627 866 615 800 c 0
 603 734 541 689 477 689 c 0
 413 689 367 734 379 800 c 0
449 800 m 0
 444 769 463 750 488 750 c 0
 513 750 540 769 545 800 c 0
 550 831 531 849 506 849 c 0
 481 849 454 831 449 800 c 0
EndSplineSet
EndChar

StartChar: AE
Encoding: 198 198 191
Width: 1047
VWidth: 0
Flags: HW
LayerCount: 2
Fore
SplineSet
284 168 m 1
 311 301 l 1
 611 301 l 1
 588 168 l 1
 284 168 l 1
560 700 m 1
 688 660 l 1
 190 0 l 1
 12 0 l 1
 560 700 l 1
602 0 m 1
 624 122 l 1
 1000 122 l 1
 978 0 l 1
 602 0 l 1
712 578 m 1
 560 700 l 1
 1101 700 l 1
 1080 578 l 1
 712 578 l 1
657 312 m 1
 678 431 l 1
 1034 431 l 1
 1013 312 l 1
 657 312 l 1
655 700 m 1
 808 700 l 1
 685 0 l 1
 532 0 l 1
 655 700 l 1
EndSplineSet
EndChar

StartChar: Ccedilla
Encoding: 199 199 192
Width: 695
VWidth: 0
Flags: HW
LayerCount: 2
Fore
SplineSet
254 350 m 0
 230 212 318 124 438 124 c 0
 537 124 612 166 669 220 c 1
 640 58 l 1
 575 12 510 -14 408 -14 c 0
 192 -14 60 134 98 350 c 0
 136 566 320 714 536 714 c 0
 638 714 694 688 743 642 c 1
 715 480 l 1
 678 534 617 576 518 576 c 0
 398 576 278 488 254 350 c 0
386 59 m 1
 482 56 l 1
 364 -80 l 1
 267 -127 l 1
 386 59 l 1
480 -150 m 1
 397 -144 l 1
 402 -118 377 -110 345 -110 c 0
 335 -110 302 -111 267 -127 c 1
 331 -84 l 1
 361 -62 383 -60 409 -60 c 0
 447 -60 491 -89 480 -150 c 1
480 -150 m 1
 468 -219 397 -254 337 -254 c 0
 287 -254 253 -246 216 -216 c 1
 268 -156 l 1
 289 -174 314 -181 336 -181 c 0
 370 -181 393 -168 397 -144 c 1
 480 -150 l 1
EndSplineSet
EndChar

StartChar: Egrave
Encoding: 200 200 193
Width: 587
VWidth: 0
Flags: HW
LayerCount: 2
Fore
SplineSet
168 0 m 1
 190 122 l 1
 544 122 l 1
 522 0 l 1
 168 0 l 1
270 578 m 1
 291 700 l 1
 645 700 l 1
 624 578 l 1
 270 578 l 1
223 312 m 1
 244 431 l 1
 578 431 l 1
 557 312 l 1
 223 312 l 1
199 700 m 1
 339 700 l 1
 216 0 l 1
 76 0 l 1
 199 700 l 1
310 928 m 1
 422 978 l 1
 544 818 l 1
 463 778 l 1
 310 928 l 1
EndSplineSet
EndChar

StartChar: Eacute
Encoding: 201 201 194
Width: 587
VWidth: 0
Flags: HW
LayerCount: 2
Fore
SplineSet
168 0 m 1
 190 122 l 1
 544 122 l 1
 522 0 l 1
 168 0 l 1
270 578 m 1
 291 700 l 1
 645 700 l 1
 624 578 l 1
 270 578 l 1
223 312 m 1
 244 431 l 1
 578 431 l 1
 557 312 l 1
 223 312 l 1
199 700 m 1
 339 700 l 1
 216 0 l 1
 76 0 l 1
 199 700 l 1
612 928 m 1
 405 778 l 1
 340 818 l 1
 518 978 l 1
 612 928 l 1
EndSplineSet
EndChar

StartChar: Ecircumflex
Encoding: 202 202 195
Width: 587
VWidth: 0
Flags: HW
LayerCount: 2
Fore
SplineSet
168 0 m 1
 190 122 l 1
 544 122 l 1
 522 0 l 1
 168 0 l 1
270 578 m 1
 291 700 l 1
 645 700 l 1
 624 578 l 1
 270 578 l 1
223 312 m 1
 244 431 l 1
 578 431 l 1
 557 312 l 1
 223 312 l 1
199 700 m 1
 339 700 l 1
 216 0 l 1
 76 0 l 1
 199 700 l 1
459 878 m 1
 332 784 l 1
 289 824 l 1
 474 964 l 1
 609 824 l 1
 552 784 l 1
 459 878 l 1
EndSplineSet
EndChar

StartChar: Edieresis
Encoding: 203 203 196
Width: 587
VWidth: 0
Flags: HW
LayerCount: 2
Fore
SplineSet
168 0 m 1
 190 122 l 1
 544 122 l 1
 522 0 l 1
 168 0 l 1
270 578 m 1
 291 700 l 1
 645 700 l 1
 624 578 l 1
 270 578 l 1
223 312 m 1
 244 431 l 1
 578 431 l 1
 557 312 l 1
 223 312 l 1
199 700 m 1
 339 700 l 1
 216 0 l 1
 76 0 l 1
 199 700 l 1
490 867 m 0
 498 911 539 948 587 948 c 0
 635 948 663 911 655 867 c 0
 647 823 607 786 559 786 c 0
 511 786 482 823 490 867 c 0
259 867 m 0
 267 911 309 948 357 948 c 0
 405 948 433 911 425 867 c 0
 417 823 377 786 329 786 c 0
 281 786 251 823 259 867 c 0
EndSplineSet
EndChar

StartChar: Igrave
Encoding: 204 204 197
Width: 297
VWidth: 0
Flags: HW
LayerCount: 2
Fore
SplineSet
199 700 m 1
 345 700 l 1
 222 0 l 1
 76 0 l 1
 199 700 l 1
156 928 m 1
 268 978 l 1
 390 818 l 1
 309 778 l 1
 156 928 l 1
EndSplineSet
EndChar

StartChar: Iacute
Encoding: 205 205 198
Width: 297
VWidth: 0
Flags: HW
LayerCount: 2
Fore
SplineSet
199 700 m 1
 345 700 l 1
 222 0 l 1
 76 0 l 1
 199 700 l 1
458 928 m 1
 251 778 l 1
 186 818 l 1
 364 978 l 1
 458 928 l 1
EndSplineSet
EndChar

StartChar: Icircumflex
Encoding: 206 206 199
Width: 297
VWidth: 0
Flags: HW
LayerCount: 2
Fore
SplineSet
199 700 m 1
 345 700 l 1
 222 0 l 1
 76 0 l 1
 199 700 l 1
299 878 m 1
 172 784 l 1
 129 824 l 1
 314 964 l 1
 449 824 l 1
 392 784 l 1
 299 878 l 1
EndSplineSet
EndChar

StartChar: Idieresis
Encoding: 207 207 200
Width: 297
VWidth: 0
Flags: HW
LayerCount: 2
Fore
SplineSet
199 700 m 1
 345 700 l 1
 222 0 l 1
 76 0 l 1
 199 700 l 1
333 855 m 0
 341 899 381 936 429 936 c 0
 477 936 507 899 499 855 c 0
 491 811 448 774 400 774 c 0
 352 774 325 811 333 855 c 0
102 855 m 0
 110 899 150 936 198 936 c 0
 246 936 275 899 267 855 c 0
 259 811 217 774 169 774 c 0
 121 774 94 811 102 855 c 0
EndSplineSet
EndChar

StartChar: Ntilde
Encoding: 209 209 201
Width: 787
VWidth: 0
Flags: HW
LayerCount: 2
Fore
SplineSet
177 548 m 1
 206 735 l 1
 735 152 l 1
 706 -35 l 1
 177 548 l 1
696 700 m 1
 835 700 l 1
 706 -35 l 1
 596 128 l 1
 696 700 l 1
206 735 m 1
 317 572 l 1
 216 0 l 1
 76 0 l 1
 206 735 l 1
371 826 m 1
 390 875 444 908 489 908 c 0
 554 908 551 860 605 860 c 0
 624 860 643 876 669 908 c 1
 708 866 l 1
 685 829 639 792 589 792 c 0
 534 792 521 840 476 840 c 0
 435 840 420 803 417 788 c 1
 371 826 l 1
EndSplineSet
EndChar

StartChar: Eth
Encoding: 208 208 202
Width: 717
VWidth: 0
Flags: HW
LayerCount: 2
Fore
SplineSet
269 570 m 1
 291 700 l 1
 437 700 l 2
 659 700 782 564 744 350 c 1
 595 350 l 1
 622 504 534 570 411 570 c 2
 269 570 l 1
314 0 m 2
 168 0 l 1
 191 130 l 1
 333 130 l 2
 456 130 568 196 595 350 c 1
 744 350 l 1
 706 136 536 0 314 0 c 2
199 700 m 1
 346 700 l 1
 223 0 l 1
 76 0 l 1
 199 700 l 1
60 304 m 1
 76 397 l 1
 410 397 l 1
 394 304 l 1
 60 304 l 1
EndSplineSet
EndChar

StartChar: Ograve
Encoding: 210 210 203
Width: 811
VWidth: 0
Flags: HW
LayerCount: 2
Fore
SplineSet
250 350 m 0
 226 216 299 120 427 120 c 0
 555 120 662 216 686 350 c 0
 710 484 639 580 508 580 c 0
 380 580 274 484 250 350 c 0
98 350 m 0
 135 562 321 714 532 714 c 0
 744 714 875 562 838 350 c 0
 801 138 618 -18 403 -18 c 0
 188 -18 61 138 98 350 c 0
430 928 m 1
 542 978 l 1
 664 818 l 1
 583 778 l 1
 430 928 l 1
EndSplineSet
EndChar

StartChar: Oacute
Encoding: 211 211 204
Width: 811
VWidth: 0
Flags: HW
LayerCount: 2
Fore
SplineSet
250 350 m 0
 226 216 299 120 427 120 c 0
 555 120 662 216 686 350 c 0
 710 484 639 580 508 580 c 0
 380 580 274 484 250 350 c 0
98 350 m 0
 135 562 321 714 532 714 c 0
 744 714 875 562 838 350 c 0
 801 138 618 -18 403 -18 c 0
 188 -18 61 138 98 350 c 0
720 928 m 1
 513 778 l 1
 448 818 l 1
 626 978 l 1
 720 928 l 1
EndSplineSet
EndChar

StartChar: Ocircumflex
Encoding: 212 212 205
Width: 811
VWidth: 0
Flags: HW
LayerCount: 2
Fore
SplineSet
250 350 m 0
 226 216 299 120 427 120 c 0
 555 120 662 216 686 350 c 0
 710 484 639 580 508 580 c 0
 380 580 274 484 250 350 c 0
98 350 m 0
 135 562 321 714 532 714 c 0
 744 714 875 562 838 350 c 0
 801 138 618 -18 403 -18 c 0
 188 -18 61 138 98 350 c 0
567 878 m 1
 440 784 l 1
 397 824 l 1
 582 964 l 1
 717 824 l 1
 660 784 l 1
 567 878 l 1
EndSplineSet
EndChar

StartChar: Otilde
Encoding: 213 213 206
Width: 811
VWidth: 0
Flags: HW
LayerCount: 2
Fore
SplineSet
250 350 m 0
 226 216 299 120 427 120 c 0
 555 120 662 216 686 350 c 0
 710 484 639 580 508 580 c 0
 380 580 274 484 250 350 c 0
98 350 m 0
 135 562 321 714 532 714 c 0
 744 714 875 562 838 350 c 0
 801 138 618 -18 403 -18 c 0
 188 -18 61 138 98 350 c 0
391 832 m 1
 410 881 464 914 509 914 c 0
 574 914 571 866 625 866 c 0
 644 866 663 882 689 914 c 1
 728 872 l 1
 705 835 659 798 609 798 c 0
 554 798 540 846 495 846 c 0
 454 846 439 809 436 794 c 1
 391 832 l 1
EndSplineSet
EndChar

StartChar: Odieresis
Encoding: 214 214 207
Width: 811
VWidth: 0
Flags: HW
LayerCount: 2
Fore
SplineSet
250 350 m 0
 226 216 299 120 427 120 c 0
 555 120 662 216 686 350 c 0
 710 484 639 580 508 580 c 0
 380 580 274 484 250 350 c 0
98 350 m 0
 135 562 321 714 532 714 c 0
 744 714 875 562 838 350 c 0
 801 138 618 -18 403 -18 c 0
 188 -18 61 138 98 350 c 0
591 820 m 0
 599 864 639 902 687 902 c 0
 735 902 763 864 755 820 c 0
 747 776 706 739 658 739 c 0
 610 739 583 776 591 820 c 0
360 820 m 0
 368 864 408 902 456 902 c 0
 504 902 533 864 525 820 c 0
 517 776 475 739 427 739 c 0
 379 739 352 776 360 820 c 0
EndSplineSet
EndChar

StartChar: Ugrave
Encoding: 217 217 208
Width: 678
VWidth: 0
Flags: HW
LayerCount: 2
Fore
SplineSet
193 700 m 1
 337 700 l 1
 256 238 l 2
 242 160 276 107 358 107 c 0
 440 107 492 160 506 238 c 2
 587 700 l 1
 731 700 l 1
 649 230 l 2
 620 65 489 -24 335 -24 c 0
 181 -24 82 65 111 230 c 2
 193 700 l 1
351 924 m 1
 463 974 l 1
 585 814 l 1
 504 774 l 1
 351 924 l 1
EndSplineSet
EndChar

StartChar: Uacute
Encoding: 218 218 209
Width: 678
VWidth: 0
Flags: HW
LayerCount: 2
Fore
SplineSet
193 700 m 1
 337 700 l 1
 256 238 l 2
 242 160 276 107 358 107 c 0
 440 107 492 160 506 238 c 2
 587 700 l 1
 731 700 l 1
 649 230 l 2
 620 65 489 -24 335 -24 c 0
 181 -24 82 65 111 230 c 2
 193 700 l 1
654 924 m 1
 447 774 l 1
 382 814 l 1
 560 974 l 1
 654 924 l 1
EndSplineSet
EndChar

StartChar: Ucircumflex
Encoding: 219 219 210
Width: 678
VWidth: 0
Flags: HW
LayerCount: 2
Fore
SplineSet
193 700 m 1
 337 700 l 1
 256 238 l 2
 242 160 276 107 358 107 c 0
 440 107 492 160 506 238 c 2
 587 700 l 1
 731 700 l 1
 649 230 l 2
 620 65 489 -24 335 -24 c 0
 181 -24 82 65 111 230 c 2
 193 700 l 1
491 863 m 1
 379 774 l 1
 300 836 l 1
 511 976 l 1
 673 836 l 1
 572 774 l 1
 491 863 l 1
EndSplineSet
EndChar

StartChar: Udieresis
Encoding: 220 220 211
Width: 678
VWidth: 0
Flags: HW
LayerCount: 2
Fore
SplineSet
193 700 m 1
 337 700 l 1
 256 238 l 2
 242 160 276 107 358 107 c 0
 440 107 492 160 506 238 c 2
 587 700 l 1
 731 700 l 1
 649 230 l 2
 620 65 489 -24 335 -24 c 0
 181 -24 82 65 111 230 c 2
 193 700 l 1
532 855 m 0
 540 899 581 936 629 936 c 0
 677 936 705 899 697 855 c 0
 689 811 648 774 600 774 c 0
 552 774 524 811 532 855 c 0
283 855 m 0
 291 899 332 936 380 936 c 0
 428 936 457 899 449 855 c 0
 441 811 399 774 351 774 c 0
 303 774 275 811 283 855 c 0
EndSplineSet
EndChar

StartChar: Yacute
Encoding: 221 221 212
Width: 630
VWidth: 0
Flags: HW
LayerCount: 2
Fore
SplineSet
305 360 m 1
 451 360 l 1
 388 0 l 1
 242 0 l 1
 305 360 l 1
587 700 m 1
 753 700 l 1
 344 166 l 1
 123 700 l 1
 289 700 l 1
 389 418 l 1
 587 700 l 1
629 924 m 1
 422 774 l 1
 358 814 l 1
 536 974 l 1
 629 924 l 1
EndSplineSet
EndChar

StartChar: agrave
Encoding: 224 224 213
Width: 526
VWidth: 0
Flags: HW
LayerCount: 2
Fore
SplineSet
180 137 m 0
 173 99 199 80 246 80 c 0
 308 80 363 106 377 184 c 1
 384 130 l 1
 368 41 283 -10 188 -10 c 0
 88 -10 33 41 48 127 c 0
 65 225 158 281 274 281 c 0
 348 281 404 248 418 228 c 1
 407 164 l 1
 374 192 340 206 286 206 c 0
 226 206 187 179 180 137 c 0
174 328 m 1
 142 418 l 1
 194 443 268 472 351 472 c 0
 469 472 544 420 527 326 c 2
 470 0 l 1
 345 0 l 1
 399 305 l 2
 406 346 374 370 324 370 c 0
 258 370 198 342 174 328 c 1
219 682 m 1
 332 731 l 1
 454 571 l 1
 373 532 l 1
 219 682 l 1
EndSplineSet
Substitution2: "alt a" agrave.alt
EndChar

StartChar: aacute
Encoding: 225 225 214
Width: 526
VWidth: 0
Flags: HW
LayerCount: 2
Fore
SplineSet
180 137 m 0
 173 99 199 80 246 80 c 0
 308 80 363 106 377 184 c 1
 384 130 l 1
 368 41 283 -10 188 -10 c 0
 88 -10 33 41 48 127 c 0
 65 225 158 281 274 281 c 0
 348 281 404 248 418 228 c 1
 407 164 l 1
 374 192 340 206 286 206 c 0
 226 206 187 179 180 137 c 0
174 328 m 1
 142 418 l 1
 194 443 268 472 351 472 c 0
 469 472 544 420 527 326 c 2
 470 0 l 1
 345 0 l 1
 399 305 l 2
 406 346 374 370 324 370 c 0
 258 370 198 342 174 328 c 1
556 682 m 1
 350 532 l 1
 284 571 l 1
 462 731 l 1
 556 682 l 1
EndSplineSet
Substitution2: "alt a" aacute.alt
EndChar

StartChar: acircumflex
Encoding: 226 226 215
Width: 526
VWidth: 0
Flags: HW
LayerCount: 2
Fore
SplineSet
180 137 m 0
 173 99 199 80 246 80 c 0
 308 80 363 106 377 184 c 1
 384 130 l 1
 368 41 283 -10 188 -10 c 0
 88 -10 33 41 48 127 c 0
 65 225 158 281 274 281 c 0
 348 281 404 248 418 228 c 1
 407 164 l 1
 374 192 340 206 286 206 c 0
 226 206 187 179 180 137 c 0
174 328 m 1
 142 418 l 1
 194 443 268 472 351 472 c 0
 469 472 544 420 527 326 c 2
 470 0 l 1
 345 0 l 1
 399 305 l 2
 406 346 374 370 324 370 c 0
 258 370 198 342 174 328 c 1
377 620 m 1
 265 532 l 1
 186 594 l 1
 397 734 l 1
 559 594 l 1
 459 532 l 1
 377 620 l 1
EndSplineSet
Substitution2: "alt a" acircumflex.alt
EndChar

StartChar: atilde
Encoding: 227 227 216
Width: 526
VWidth: 0
Flags: HW
LayerCount: 2
Fore
SplineSet
180 137 m 0
 173 99 199 80 246 80 c 0
 308 80 363 106 377 184 c 1
 384 130 l 1
 368 41 283 -10 188 -10 c 0
 88 -10 33 41 48 127 c 0
 65 225 158 281 274 281 c 0
 348 281 404 248 418 228 c 1
 407 164 l 1
 374 192 340 206 286 206 c 0
 226 206 187 179 180 137 c 0
174 328 m 1
 142 418 l 1
 194 443 268 472 351 472 c 0
 469 472 544 420 527 326 c 2
 470 0 l 1
 345 0 l 1
 399 305 l 2
 406 346 374 370 324 370 c 0
 258 370 198 342 174 328 c 1
185 590 m 1
 204 639 258 680 316 680 c 0
 382 680 383 630 439 630 c 0
 463 630 486 649 512 681 c 1
 563 616 l 1
 540 579 481 534 423 534 c 0
 368 534 345 586 297 586 c 0
 258 586 244 550 241 535 c 1
 185 590 l 1
EndSplineSet
Substitution2: "alt a" atilde.alt
EndChar

StartChar: adieresis
Encoding: 228 228 217
Width: 526
VWidth: 0
Flags: HW
LayerCount: 2
Fore
SplineSet
180 137 m 0
 173 99 199 80 246 80 c 0
 308 80 363 106 377 184 c 1
 384 130 l 1
 368 41 283 -10 188 -10 c 0
 88 -10 33 41 48 127 c 0
 65 225 158 281 274 281 c 0
 348 281 404 248 418 228 c 1
 407 164 l 1
 374 192 340 206 286 206 c 0
 226 206 187 179 180 137 c 0
174 328 m 1
 142 418 l 1
 194 443 268 472 351 472 c 0
 469 472 544 420 527 326 c 2
 470 0 l 1
 345 0 l 1
 399 305 l 2
 406 346 374 370 324 370 c 0
 258 370 198 342 174 328 c 1
408 614 m 0
 416 658 457 694 505 694 c 0
 553 694 582 658 574 614 c 0
 566 570 525 532 477 532 c 0
 429 532 400 570 408 614 c 0
178 614 m 0
 186 658 226 694 274 694 c 0
 322 694 350 658 342 614 c 0
 334 570 294 532 246 532 c 0
 198 532 170 570 178 614 c 0
EndSplineSet
Substitution2: "alt a" adieresis.alt
EndChar

StartChar: aring
Encoding: 229 229 218
Width: 526
VWidth: 0
Flags: HW
LayerCount: 2
Fore
SplineSet
180 137 m 0
 173 99 199 80 246 80 c 0
 308 80 363 106 377 184 c 1
 384 130 l 1
 368 41 283 -10 188 -10 c 0
 88 -10 33 41 48 127 c 0
 65 225 158 281 274 281 c 0
 348 281 404 248 418 228 c 1
 407 164 l 1
 374 192 340 206 286 206 c 0
 226 206 187 179 180 137 c 0
174 328 m 1
 142 418 l 1
 194 443 268 472 351 472 c 0
 469 472 544 420 527 326 c 2
 470 0 l 1
 345 0 l 1
 399 305 l 2
 406 346 374 370 324 370 c 0
 258 370 198 342 174 328 c 1
264 644 m 0
 276 710 337 754 401 754 c 0
 465 754 512 710 500 644 c 0
 488 578 426 532 362 532 c 0
 298 532 252 578 264 644 c 0
334 644 m 0
 329 613 348 594 373 594 c 0
 398 594 424 613 429 644 c 0
 434 675 415 692 390 692 c 0
 365 692 339 675 334 644 c 0
EndSplineSet
Substitution2: "alt a" aring.alt
EndChar

StartChar: germandbls
Encoding: 223 223 219
Width: 584
VWidth: 0
Flags: HW
LayerCount: 2
Fore
SplineSet
169 606 m 1
 292 592 l 1
 188 0 l 1
 62 0 l 1
 169 606 l 1
336 416 m 1
 351 498 l 1
 443 498 480 540 488 588 c 0
 497 640 471 675 403 675 c 0
 347 675 302 646 292 592 c 1
 169 606 l 1
 190 724 306 794 424 794 c 0
 572 794 637 715 618 606 c 0
 597 487 500 416 336 416 c 1
298 109 m 1
 378 109 453 164 468 248 c 0
 480 316 440 379 330 379 c 1
 346 468 l 1
 510 468 621 373 595 225 c 0
 569 77 438 -10 277 -10 c 1
 298 109 l 1
EndSplineSet
EndChar

StartChar: ae
Encoding: 230 230 220
Width: 874
VWidth: 0
Flags: HW
LayerCount: 2
Fore
SplineSet
180 137 m 0
 173 99 199 80 246 80 c 0
 308 80 363 106 377 184 c 1
 431 130 l 1
 415 41 330 -10 213 -10 c 0
 93 -10 33 41 48 127 c 0
 65 225 158 281 274 281 c 0
 348 281 404 248 418 228 c 1
 407 164 l 1
 374 192 340 206 286 206 c 0
 226 206 187 179 180 137 c 0
174 328 m 1
 142 418 l 1
 194 443 268 472 351 472 c 0
 469 472 504 420 487 326 c 2
 453 130 l 1
 368 130 l 1
 398 299 l 2
 405 340 374 370 324 370 c 0
 258 370 198 342 174 328 c 1
450 202 m 1
 464 281 l 1
 872 281 l 1
 875 202 l 1
 450 202 l 1
746 246 m 2
 760 328 738 378 666 378 c 0
 600 378 543 334 529 256 c 1
 523 230 l 1
 506 132 550 90 618 90 c 0
 676 90 720 113 751 155 c 1
 859 120 l 1
 799 42 726 -10 598 -10 c 0
 443 -10 396 91 421 230 c 0
 424 247 431 263 437 279 c 0
 476 392 571 470 703 470 c 0
 831 470 908 381 882 236 c 0
 881 228 879 216 875 202 c 1
 742 222 l 1
 746 246 l 2
EndSplineSet
EndChar

StartChar: ccedilla
Encoding: 231 231 221
Width: 488
VWidth: 0
Flags: HW
LayerCount: 2
Fore
SplineSet
205 230 m 0
 191 150 239 96 313 96 c 0
 373 96 435 126 469 170 c 1
 446 37 l 1
 409 7 354 -10 286 -10 c 0
 138 -10 46 86 71 230 c 0
 96 374 223 470 371 470 c 0
 439 470 487 450 514 424 c 1
 490 290 l 1
 472 334 416 364 360 364 c 0
 286 364 218 306 205 230 c 0
258 76 m 1
 353 74 l 1
 237 -62 l 1
 139 -110 l 1
 258 76 l 1
352 -132 m 1
 268 -127 l 1
 273 -101 248 -94 216 -94 c 0
 206 -94 174 -94 139 -110 c 1
 203 -68 l 1
 233 -46 257 -42 283 -42 c 0
 321 -42 363 -71 352 -132 c 1
352 -132 m 1
 340 -201 270 -238 210 -238 c 0
 160 -238 126 -228 89 -198 c 1
 142 -138 l 1
 163 -156 187 -164 209 -164 c 0
 243 -164 264 -151 268 -127 c 1
 352 -132 l 1
EndSplineSet
EndChar

StartChar: egrave
Encoding: 232 232 222
Width: 555
VWidth: 0
Flags: HW
LayerCount: 2
Fore
SplineSet
132 202 m 1
 146 281 l 1
 553 281 l 1
 556 202 l 1
 132 202 l 1
427 246 m 2
 441 328 419 378 347 378 c 0
 281 378 225 334 211 256 c 1
 205 230 l 1
 188 132 230 90 298 90 c 0
 356 90 402 113 433 155 c 1
 541 120 l 1
 481 42 408 -10 280 -10 c 0
 125 -10 49 91 74 230 c 0
 77 247 80 263 86 279 c 0
 125 392 224 470 365 470 c 0
 517 470 590 381 564 236 c 0
 563 228 560 216 556 202 c 1
 423 222 l 1
 427 246 l 2
244 692 m 1
 356 740 l 1
 478 580 l 1
 398 542 l 1
 244 692 l 1
EndSplineSet
EndChar

StartChar: eacute
Encoding: 233 233 223
Width: 555
VWidth: 0
Flags: HW
LayerCount: 2
Fore
SplineSet
132 202 m 1
 146 281 l 1
 553 281 l 1
 556 202 l 1
 132 202 l 1
427 246 m 2
 441 328 419 378 347 378 c 0
 281 378 225 334 211 256 c 1
 205 230 l 1
 188 132 230 90 298 90 c 0
 356 90 402 113 433 155 c 1
 541 120 l 1
 481 42 408 -10 280 -10 c 0
 125 -10 49 91 74 230 c 0
 77 247 80 263 86 279 c 0
 125 392 224 470 365 470 c 0
 517 470 590 381 564 236 c 0
 563 228 560 216 556 202 c 1
 423 222 l 1
 427 246 l 2
564 692 m 1
 358 542 l 1
 292 580 l 1
 470 740 l 1
 564 692 l 1
EndSplineSet
EndChar

StartChar: ecircumflex
Encoding: 234 234 224
Width: 555
VWidth: 0
Flags: HW
LayerCount: 2
Fore
SplineSet
132 202 m 1
 146 281 l 1
 553 281 l 1
 556 202 l 1
 132 202 l 1
427 246 m 2
 441 328 419 378 347 378 c 0
 281 378 225 334 211 256 c 1
 205 230 l 1
 188 132 230 90 298 90 c 0
 356 90 402 113 433 155 c 1
 541 120 l 1
 481 42 408 -10 280 -10 c 0
 125 -10 49 91 74 230 c 0
 77 247 80 263 86 279 c 0
 125 392 224 470 365 470 c 0
 517 470 590 381 564 236 c 0
 563 228 560 216 556 202 c 1
 423 222 l 1
 427 246 l 2
391 619 m 1
 279 530 l 1
 200 592 l 1
 411 732 l 1
 572 592 l 1
 473 530 l 1
 391 619 l 1
EndSplineSet
EndChar

StartChar: edieresis
Encoding: 235 235 225
Width: 555
VWidth: 0
Flags: HW
LayerCount: 2
Fore
SplineSet
132 202 m 1
 146 281 l 1
 553 281 l 1
 556 202 l 1
 132 202 l 1
427 246 m 2
 441 328 419 378 347 378 c 0
 281 378 225 334 211 256 c 1
 205 230 l 1
 188 132 230 90 298 90 c 0
 356 90 402 113 433 155 c 1
 541 120 l 1
 481 42 408 -10 280 -10 c 0
 125 -10 49 91 74 230 c 0
 77 247 80 263 86 279 c 0
 125 392 224 470 365 470 c 0
 517 470 590 381 564 236 c 0
 563 228 560 216 556 202 c 1
 423 222 l 1
 427 246 l 2
423 612 m 0
 431 656 472 693 520 693 c 0
 568 693 597 656 589 612 c 0
 581 568 539 530 491 530 c 0
 443 530 415 568 423 612 c 0
193 612 m 0
 201 656 242 693 290 693 c 0
 338 693 366 656 358 612 c 0
 350 568 309 530 261 530 c 0
 213 530 185 568 193 612 c 0
EndSplineSet
EndChar

StartChar: igrave
Encoding: 236 236 226
Width: 271
VWidth: 0
Flags: HW
LayerCount: 2
Fore
SplineSet
153 460 m 1
 279 460 l 1
 198 0 l 1
 72 0 l 1
 153 460 l 1
84 692 m 1
 194 740 l 1
 316 580 l 1
 238 542 l 1
 84 692 l 1
EndSplineSet
EndChar

StartChar: dotlessi
Encoding: 305 305 227
Width: 271
VWidth: 0
Flags: HW
LayerCount: 2
Fore
SplineSet
153 460 m 1
 279 460 l 1
 198 0 l 1
 72 0 l 1
 153 460 l 1
EndSplineSet
EndChar

StartChar: kgreenlandic
Encoding: 312 312 228
Width: 536
VWidth: 0
Flags: HW
LayerCount: 2
Fore
SplineSet
143 460 m 1
 268 460 l 1
 187 0 l 1
 62 0 l 1
 143 460 l 1
436 460 m 1
 593 460 l 1
 362 270 l 1
 532 0 l 1
 377 0 l 1
 206 270 l 1
 436 460 l 1
EndSplineSet
EndChar

StartChar: iacute
Encoding: 237 237 229
Width: 271
VWidth: 0
Flags: HW
LayerCount: 2
Fore
SplineSet
153 460 m 1
 279 460 l 1
 198 0 l 1
 72 0 l 1
 153 460 l 1
426 692 m 1
 220 542 l 1
 152 580 l 1
 330 740 l 1
 426 692 l 1
EndSplineSet
EndChar

StartChar: icircumflex
Encoding: 238 238 230
Width: 271
VWidth: 0
Flags: HW
LayerCount: 2
Fore
SplineSet
153 460 m 1
 279 460 l 1
 198 0 l 1
 72 0 l 1
 153 460 l 1
246 624 m 1
 133 536 l 1
 54 598 l 1
 266 738 l 1
 427 598 l 1
 327 536 l 1
 246 624 l 1
EndSplineSet
EndChar

StartChar: idieresis
Encoding: 239 239 231
Width: 271
VWidth: 0
Flags: HW
LayerCount: 2
Fore
SplineSet
153 460 m 1
 279 460 l 1
 198 0 l 1
 72 0 l 1
 153 460 l 1
279 628 m 0
 287 672 328 710 376 710 c 0
 424 710 453 672 445 628 c 0
 437 584 396 548 348 548 c 0
 300 548 271 584 279 628 c 0
49 628 m 0
 57 672 97 710 145 710 c 0
 193 710 221 672 213 628 c 0
 205 584 165 548 117 548 c 0
 69 548 41 584 49 628 c 0
EndSplineSet
EndChar

StartChar: ntilde
Encoding: 241 241 232
Width: 560
VWidth: 0
Flags: HW
LayerCount: 2
Fore
SplineSet
276 460 m 1
 195 0 l 1
 64 0 l 1
 145 460 l 1
 276 460 l 1
411 280 m 2
 422 340 406 374 352 374 c 0
 298 374 254 338 244 280 c 1
 212 276 l 1
 231 385 309 470 417 470 c 0
 525 470 568 408 548 294 c 2
 496 0 l 1
 362 0 l 1
 411 280 l 2
198 588 m 1
 217 637 270 678 328 678 c 0
 394 678 395 628 451 628 c 0
 475 628 498 648 524 680 c 1
 575 614 l 1
 552 577 494 532 436 532 c 0
 381 532 359 584 311 584 c 0
 272 584 257 548 254 533 c 1
 198 588 l 1
EndSplineSet
EndChar

StartChar: ograve
Encoding: 242 242 233
Width: 576
VWidth: 0
Flags: HW
LayerCount: 2
Fore
SplineSet
74 230 m 0
 99 374 225 470 371 470 c 0
 517 470 610 374 585 230 c 0
 560 86 432 -10 286 -10 c 0
 140 -10 49 86 74 230 c 0
207 230 m 0
 193 152 238 100 306 100 c 0
 374 100 437 152 451 230 c 0
 465 308 419 360 351 360 c 0
 283 360 221 308 207 230 c 0
250 692 m 1
 362 740 l 1
 484 580 l 1
 404 542 l 1
 250 692 l 1
EndSplineSet
EndChar

StartChar: oacute
Encoding: 243 243 234
Width: 576
VWidth: 0
Flags: HW
LayerCount: 2
Fore
SplineSet
74 230 m 0
 99 374 225 470 371 470 c 0
 517 470 610 374 585 230 c 0
 560 86 432 -10 286 -10 c 0
 140 -10 49 86 74 230 c 0
207 230 m 0
 193 152 238 100 306 100 c 0
 374 100 437 152 451 230 c 0
 465 308 419 360 351 360 c 0
 283 360 221 308 207 230 c 0
570 692 m 1
 364 542 l 1
 296 580 l 1
 474 740 l 1
 570 692 l 1
EndSplineSet
EndChar

StartChar: ocircumflex
Encoding: 244 244 235
Width: 576
VWidth: 0
Flags: HW
LayerCount: 2
Fore
SplineSet
74 230 m 0
 99 374 225 470 371 470 c 0
 517 470 610 374 585 230 c 0
 560 86 432 -10 286 -10 c 0
 140 -10 49 86 74 230 c 0
207 230 m 0
 193 152 238 100 306 100 c 0
 374 100 437 152 451 230 c 0
 465 308 419 360 351 360 c 0
 283 360 221 308 207 230 c 0
399 630 m 1
 288 542 l 1
 209 604 l 1
 419 744 l 1
 581 604 l 1
 481 542 l 1
 399 630 l 1
EndSplineSet
EndChar

StartChar: otilde
Encoding: 245 245 236
Width: 576
VWidth: 0
Flags: HW
LayerCount: 2
Fore
SplineSet
74 230 m 0
 99 374 225 470 371 470 c 0
 517 470 610 374 585 230 c 0
 560 86 432 -10 286 -10 c 0
 140 -10 49 86 74 230 c 0
207 230 m 0
 193 152 238 100 306 100 c 0
 374 100 437 152 451 230 c 0
 465 308 419 360 351 360 c 0
 283 360 221 308 207 230 c 0
205 588 m 1
 224 637 278 678 336 678 c 0
 402 678 405 628 461 628 c 0
 485 628 506 648 532 680 c 1
 583 614 l 1
 560 577 502 532 444 532 c 0
 389 532 367 584 319 584 c 0
 280 584 265 548 262 533 c 1
 205 588 l 1
EndSplineSet
EndChar

StartChar: odieresis
Encoding: 246 246 237
Width: 576
VWidth: 0
Flags: HW
LayerCount: 2
Fore
SplineSet
74 230 m 0
 99 374 225 470 371 470 c 0
 517 470 610 374 585 230 c 0
 560 86 432 -10 286 -10 c 0
 140 -10 49 86 74 230 c 0
207 230 m 0
 193 152 238 100 306 100 c 0
 374 100 437 152 451 230 c 0
 465 308 419 360 351 360 c 0
 283 360 221 308 207 230 c 0
432 628 m 0
 440 672 480 710 528 710 c 0
 576 710 605 672 597 628 c 0
 589 584 548 548 500 548 c 0
 452 548 424 584 432 628 c 0
201 628 m 0
 209 672 250 710 298 710 c 0
 346 710 375 672 367 628 c 0
 359 584 318 548 270 548 c 0
 222 548 193 584 201 628 c 0
EndSplineSet
EndChar

StartChar: ugrave
Encoding: 249 249 238
Width: 560
VWidth: 0
Flags: HW
LayerCount: 2
Fore
SplineSet
366 0 m 1
 447 460 l 1
 577 460 l 1
 496 0 l 1
 366 0 l 1
231 180 m 2
 220 120 236 86 290 86 c 0
 344 86 388 122 398 180 c 1
 430 184 l 1
 411 75 332 -10 224 -10 c 0
 116 -10 73 52 93 166 c 2
 145 460 l 1
 280 460 l 1
 231 180 l 2
264 692 m 1
 376 740 l 1
 498 580 l 1
 418 542 l 1
 264 692 l 1
EndSplineSet
EndChar

StartChar: uacute
Encoding: 250 250 239
Width: 560
VWidth: 0
Flags: HW
LayerCount: 2
Fore
SplineSet
366 0 m 1
 447 460 l 1
 577 460 l 1
 496 0 l 1
 366 0 l 1
231 180 m 2
 220 120 236 86 290 86 c 0
 344 86 388 122 398 180 c 1
 430 184 l 1
 411 75 332 -10 224 -10 c 0
 116 -10 73 52 93 166 c 2
 145 460 l 1
 280 460 l 1
 231 180 l 2
539 692 m 1
 333 542 l 1
 266 580 l 1
 444 740 l 1
 539 692 l 1
EndSplineSet
EndChar

StartChar: ucircumflex
Encoding: 251 251 240
Width: 560
VWidth: 0
Flags: HW
LayerCount: 2
Fore
SplineSet
366 0 m 1
 447 460 l 1
 577 460 l 1
 496 0 l 1
 366 0 l 1
231 180 m 2
 220 120 236 86 290 86 c 0
 344 86 388 122 398 180 c 1
 430 184 l 1
 411 75 332 -10 224 -10 c 0
 116 -10 73 52 93 166 c 2
 145 460 l 1
 280 460 l 1
 231 180 l 2
391 630 m 1
 279 542 l 1
 201 604 l 1
 411 744 l 1
 573 604 l 1
 472 542 l 1
 391 630 l 1
EndSplineSet
EndChar

StartChar: udieresis
Encoding: 252 252 241
Width: 560
VWidth: 0
Flags: HW
LayerCount: 2
Fore
SplineSet
366 0 m 1
 447 460 l 1
 577 460 l 1
 496 0 l 1
 366 0 l 1
231 180 m 2
 220 120 236 86 290 86 c 0
 344 86 388 122 398 180 c 1
 430 184 l 1
 411 75 332 -10 224 -10 c 0
 116 -10 73 52 93 166 c 2
 145 460 l 1
 280 460 l 1
 231 180 l 2
424 622 m 0
 432 666 472 704 520 704 c 0
 568 704 596 666 588 622 c 0
 580 578 540 542 492 542 c 0
 444 542 416 578 424 622 c 0
193 622 m 0
 201 666 241 704 289 704 c 0
 337 704 366 666 358 622 c 0
 350 578 309 542 261 542 c 0
 213 542 185 578 193 622 c 0
EndSplineSet
EndChar

StartChar: yacute
Encoding: 253 253 242
Width: 496
VWidth: 0
Flags: HW
LayerCount: 2
Fore
SplineSet
584 460 m 1
 164 -220 l 1
 31 -220 l 1
 194 46 l 1
 74 460 l 1
 220 460 l 1
 302 93 l 1
 239 96 l 1
 449 460 l 1
 584 460 l 1
522 692 m 1
 316 542 l 1
 249 580 l 1
 427 740 l 1
 522 692 l 1
EndSplineSet
EndChar

StartChar: thorn
Encoding: 254 254 243
Width: 602
VWidth: 0
Flags: HW
LayerCount: 2
Fore
SplineSet
230 218 m 1
 108 -220 l 1
 122 342 l 1
 244 780 l 1
 230 218 l 1
611 230 m 0
 584 76 462 -10 346 -10 c 0
 231 -10 166 81 192 230 c 0
 218 379 316 470 431 470 c 0
 547 470 638 384 611 230 c 0
475 230 m 0
 489 312 442 362 374 362 c 0
 318 362 248 314 233 230 c 0
 218 146 271 98 327 98 c 0
 395 98 461 148 475 230 c 0
EndSplineSet
EndChar

StartChar: ydieresis
Encoding: 255 255 244
Width: 496
VWidth: 0
Flags: HW
LayerCount: 2
Fore
SplineSet
584 460 m 1
 164 -220 l 1
 31 -220 l 1
 194 46 l 1
 74 460 l 1
 220 460 l 1
 302 93 l 1
 239 96 l 1
 449 460 l 1
 584 460 l 1
389 612 m 0
 397 656 438 693 486 693 c 0
 534 693 562 656 554 612 c 0
 546 568 505 530 457 530 c 0
 409 530 381 568 389 612 c 0
158 612 m 0
 166 656 208 693 256 693 c 0
 304 693 332 656 324 612 c 0
 316 568 275 530 227 530 c 0
 179 530 150 568 158 612 c 0
EndSplineSet
EndChar

StartChar: Amacron
Encoding: 256 256 245
Width: 712
VWidth: 0
Flags: HW
LayerCount: 2
Fore
SplineSet
201 158 m 1
 238 272 l 1
 575 272 l 1
 571 158 l 1
 201 158 l 1
439 472 m 1
 293 231 l 1
 290 199 l 1
 163 0 l 1
 0 0 l 1
 487 742 l 1
 712 0 l 1
 549 0 l 1
 494 192 l 1
 501 229 l 1
 439 472 l 1
315 802 m 1
 336 916 l 1
 700 916 l 1
 679 802 l 1
 315 802 l 1
EndSplineSet
EndChar

StartChar: amacron
Encoding: 257 257 246
Width: 526
VWidth: 0
Flags: HW
LayerCount: 2
Fore
SplineSet
180 137 m 0
 173 99 199 80 246 80 c 0
 308 80 363 106 377 184 c 1
 384 130 l 1
 368 41 283 -10 188 -10 c 0
 88 -10 33 41 48 127 c 0
 65 225 158 281 274 281 c 0
 348 281 404 248 418 228 c 1
 407 164 l 1
 374 192 340 206 286 206 c 0
 226 206 187 179 180 137 c 0
174 328 m 1
 142 418 l 1
 194 443 268 472 351 472 c 0
 469 472 544 420 527 326 c 2
 470 0 l 1
 345 0 l 1
 399 305 l 2
 406 346 374 370 324 370 c 0
 258 370 198 342 174 328 c 1
181 543 m 1
 201 658 l 1
 566 658 l 1
 546 543 l 1
 181 543 l 1
EndSplineSet
Substitution2: "alt a" amacron.alt
EndChar

StartChar: breve
Encoding: 728 728 247
Width: 546
VWidth: 0
Flags: HW
LayerCount: 2
Fore
SplineSet
260 850 m 1
 352 850 l 1
 346 817 364 786 412 786 c 0
 460 786 488 817 494 850 c 1
 586 850 l 1
 572 772 502 706 397 706 c 0
 292 706 246 772 260 850 c 1
EndSplineSet
EndChar

StartChar: Abreve
Encoding: 258 258 248
Width: 712
VWidth: 0
Flags: HW
LayerCount: 2
Fore
SplineSet
201 158 m 1
 238 272 l 1
 575 272 l 1
 571 158 l 1
 201 158 l 1
439 472 m 1
 293 231 l 1
 290 199 l 1
 163 0 l 1
 0 0 l 1
 487 742 l 1
 712 0 l 1
 549 0 l 1
 494 192 l 1
 501 229 l 1
 439 472 l 1
361 946 m 1
 451 946 l 1
 445 913 464 882 512 882 c 0
 560 882 589 913 595 946 c 1
 686 946 l 1
 672 868 602 802 497 802 c 0
 392 802 347 868 361 946 c 1
EndSplineSet
EndChar

StartChar: abreve
Encoding: 259 259 249
Width: 526
VWidth: 0
Flags: HW
LayerCount: 2
Fore
SplineSet
180 137 m 0
 173 99 199 80 246 80 c 0
 308 80 363 106 377 184 c 1
 384 130 l 1
 368 41 283 -10 188 -10 c 0
 88 -10 33 41 48 127 c 0
 65 225 158 281 274 281 c 0
 348 281 404 248 418 228 c 1
 407 164 l 1
 374 192 340 206 286 206 c 0
 226 206 187 179 180 137 c 0
174 328 m 1
 142 418 l 1
 194 443 268 472 351 472 c 0
 469 472 544 420 527 326 c 2
 470 0 l 1
 345 0 l 1
 399 305 l 2
 406 346 374 370 324 370 c 0
 258 370 198 342 174 328 c 1
225 677 m 1
 315 677 l 1
 309 644 328 612 376 612 c 0
 424 612 453 644 459 677 c 1
 549 677 l 1
 535 599 467 532 362 532 c 0
 257 532 211 599 225 677 c 1
EndSplineSet
Substitution2: "alt a" abreve.alt
EndChar

StartChar: Aogonek
Encoding: 260 260 250
Width: 712
VWidth: 0
Flags: HW
LayerCount: 2
Fore
SplineSet
201 158 m 1
 238 272 l 1
 575 272 l 1
 571 158 l 1
 201 158 l 1
439 472 m 1
 293 231 l 1
 290 199 l 1
 163 0 l 1
 0 0 l 1
 487 742 l 1
 712 0 l 1
 549 0 l 1
 494 192 l 1
 501 229 l 1
 439 472 l 1
668 -111 m 1
 689 -174 l 1
 670 -194 638 -214 586 -214 c 0
 516 -214 475 -178 486 -114 c 1
 582 -90 l 1
 577 -118 589 -131 615 -131 c 0
 637 -131 652 -124 668 -111 c 1
582 -90 m 1
 486 -114 l 1
 497 -50 571 -6 647 30 c 1
 683 6 l 1
 626 -20 588 -58 582 -90 c 1
EndSplineSet
EndChar

StartChar: aogonek
Encoding: 261 261 251
Width: 526
VWidth: 0
Flags: HW
LayerCount: 2
Fore
SplineSet
180 137 m 0
 173 99 199 80 246 80 c 0
 308 80 363 106 377 184 c 1
 384 130 l 1
 368 41 283 -10 188 -10 c 0
 88 -10 33 41 48 127 c 0
 65 225 158 281 274 281 c 0
 348 281 404 248 418 228 c 1
 407 164 l 1
 374 192 340 206 286 206 c 0
 226 206 187 179 180 137 c 0
174 328 m 1
 142 418 l 1
 194 443 268 472 351 472 c 0
 469 472 544 420 527 326 c 2
 470 0 l 1
 345 0 l 1
 399 305 l 2
 406 346 374 370 324 370 c 0
 258 370 198 342 174 328 c 1
440 -116 m 1
 462 -178 l 1
 443 -198 410 -218 358 -218 c 0
 288 -218 246 -182 257 -118 c 1
 354 -94 l 1
 349 -122 360 -136 386 -136 c 0
 408 -136 424 -129 440 -116 c 1
354 -94 m 1
 257 -118 l 1
 268 -54 343 -10 419 26 c 1
 455 2 l 1
 398 -24 360 -62 354 -94 c 1
EndSplineSet
Substitution2: "alt a" aogonek.alt
EndChar

StartChar: Cacute
Encoding: 262 262 252
Width: 695
VWidth: 0
Flags: HW
LayerCount: 2
Fore
SplineSet
254 350 m 0
 230 212 318 124 438 124 c 0
 537 124 612 166 669 220 c 1
 640 58 l 1
 575 12 510 -14 408 -14 c 0
 192 -14 60 134 98 350 c 0
 136 566 320 714 536 714 c 0
 638 714 694 688 743 642 c 1
 715 480 l 1
 678 534 617 576 518 576 c 0
 398 576 278 488 254 350 c 0
703 924 m 1
 496 774 l 1
 430 814 l 1
 608 974 l 1
 703 924 l 1
EndSplineSet
EndChar

StartChar: cacute
Encoding: 263 263 253
Width: 488
VWidth: 0
Flags: HW
LayerCount: 2
Fore
SplineSet
205 230 m 0
 191 150 239 96 313 96 c 0
 373 96 435 126 469 170 c 1
 446 37 l 1
 409 7 354 -10 286 -10 c 0
 138 -10 46 86 71 230 c 0
 96 374 223 470 371 470 c 0
 439 470 487 450 514 424 c 1
 490 290 l 1
 472 334 416 364 360 364 c 0
 286 364 218 306 205 230 c 0
538 680 m 1
 331 530 l 1
 264 569 l 1
 443 729 l 1
 538 680 l 1
EndSplineSet
EndChar

StartChar: Ccircumflex
Encoding: 264 264 254
Width: 695
VWidth: 0
Flags: HW
LayerCount: 2
Fore
SplineSet
254 350 m 0
 230 212 318 124 438 124 c 0
 537 124 612 166 669 220 c 1
 640 58 l 1
 575 12 510 -14 408 -14 c 0
 192 -14 60 134 98 350 c 0
 136 566 320 714 536 714 c 0
 638 714 694 688 743 642 c 1
 715 480 l 1
 678 534 617 576 518 576 c 0
 398 576 278 488 254 350 c 0
562 863 m 1
 449 774 l 1
 370 836 l 1
 582 976 l 1
 743 836 l 1
 643 774 l 1
 562 863 l 1
EndSplineSet
EndChar

StartChar: ccircumflex
Encoding: 265 265 255
Width: 488
VWidth: 0
Flags: HW
LayerCount: 2
Fore
SplineSet
205 230 m 0
 191 150 239 96 313 96 c 0
 373 96 435 126 469 170 c 1
 446 37 l 1
 409 7 354 -10 286 -10 c 0
 138 -10 46 86 71 230 c 0
 96 374 223 470 371 470 c 0
 439 470 487 450 514 424 c 1
 490 290 l 1
 472 334 416 364 360 364 c 0
 286 364 218 306 205 230 c 0
375 619 m 1
 262 530 l 1
 184 592 l 1
 395 732 l 1
 556 592 l 1
 455 530 l 1
 375 619 l 1
EndSplineSet
EndChar

StartChar: Cdotaccent
Encoding: 266 266 256
Width: 695
VWidth: 0
Flags: HW
LayerCount: 2
Fore
SplineSet
254 350 m 0
 230 212 318 124 438 124 c 0
 537 124 612 166 669 220 c 1
 640 58 l 1
 575 12 510 -14 408 -14 c 0
 192 -14 60 134 98 350 c 0
 136 566 320 714 536 714 c 0
 638 714 694 688 743 642 c 1
 715 480 l 1
 678 534 617 576 518 576 c 0
 398 576 278 488 254 350 c 0
478 855 m 0
 486 899 527 936 575 936 c 0
 623 936 651 899 643 855 c 0
 635 811 594 774 546 774 c 0
 498 774 470 811 478 855 c 0
EndSplineSet
EndChar

StartChar: cdotaccent
Encoding: 267 267 257
Width: 488
VWidth: 0
Flags: HW
LayerCount: 2
Fore
SplineSet
205 230 m 0
 191 150 239 96 313 96 c 0
 373 96 435 126 469 170 c 1
 446 37 l 1
 409 7 354 -10 286 -10 c 0
 138 -10 46 86 71 230 c 0
 96 374 223 470 371 470 c 0
 439 470 487 450 514 424 c 1
 490 290 l 1
 472 334 416 364 360 364 c 0
 286 364 218 306 205 230 c 0
301 620 m 0
 309 664 351 702 399 702 c 0
 447 702 474 664 466 620 c 0
 458 576 418 539 370 539 c 0
 322 539 293 576 301 620 c 0
EndSplineSet
EndChar

StartChar: Ccaron
Encoding: 268 268 258
Width: 695
VWidth: 0
Flags: HW
LayerCount: 2
Fore
SplineSet
254 350 m 0
 230 212 318 124 438 124 c 0
 537 124 612 166 669 220 c 1
 640 58 l 1
 575 12 510 -14 408 -14 c 0
 192 -14 60 134 98 350 c 0
 136 566 320 714 536 714 c 0
 638 714 694 688 743 642 c 1
 715 480 l 1
 678 534 617 576 518 576 c 0
 398 576 278 488 254 350 c 0
567 888 m 1
 679 976 l 1
 757 914 l 1
 546 774 l 1
 384 914 l 1
 485 976 l 1
 567 888 l 1
EndSplineSet
EndChar

StartChar: ccaron
Encoding: 269 269 259
Width: 488
VWidth: 0
Flags: HW
LayerCount: 2
Fore
SplineSet
205 230 m 0
 191 150 239 96 313 96 c 0
 373 96 435 126 469 170 c 1
 446 37 l 1
 409 7 354 -10 286 -10 c 0
 138 -10 46 86 71 230 c 0
 96 374 223 470 371 470 c 0
 439 470 487 450 514 424 c 1
 490 290 l 1
 472 334 416 364 360 364 c 0
 286 364 218 306 205 230 c 0
380 644 m 1
 491 732 l 1
 570 670 l 1
 359 530 l 1
 198 670 l 1
 298 732 l 1
 380 644 l 1
EndSplineSet
EndChar

StartChar: Dcaron
Encoding: 270 270 260
Width: 717
VWidth: 0
Flags: HW
LayerCount: 2
Fore
SplineSet
269 570 m 1
 291 700 l 1
 437 700 l 2
 659 700 782 564 744 350 c 1
 595 350 l 1
 622 504 534 570 411 570 c 2
 269 570 l 1
314 0 m 2
 168 0 l 1
 191 130 l 1
 333 130 l 2
 456 130 568 196 595 350 c 1
 744 350 l 1
 706 136 536 0 314 0 c 2
199 700 m 1
 346 700 l 1
 223 0 l 1
 76 0 l 1
 199 700 l 1
502 888 m 1
 614 976 l 1
 691 914 l 1
 481 774 l 1
 319 914 l 1
 420 976 l 1
 502 888 l 1
EndSplineSet
EndChar

StartChar: dcaron
Encoding: 271 271 261
Width: 602
VWidth: 0
Flags: HW
LayerCount: 2
Fore
SplineSet
550 780 m 1
 680 780 l 1
 542 0 l 1
 412 0 l 1
 550 780 l 1
74 230 m 0
 101 384 221 470 337 470 c 0
 452 470 519 379 493 230 c 0
 467 81 367 -10 252 -10 c 0
 136 -10 47 76 74 230 c 0
209 230 m 0
 195 148 241 98 309 98 c 0
 365 98 438 146 453 230 c 0
 468 314 412 362 356 362 c 0
 288 362 223 312 209 230 c 0
798 780 m 1
 922 748 l 1
 757 498 l 1
 664 521 l 1
 798 780 l 1
EndSplineSet
EndChar

StartChar: Dcroat
Encoding: 272 272 262
Width: 717
VWidth: 0
Flags: HW
LayerCount: 2
Fore
SplineSet
269 570 m 1
 291 700 l 1
 437 700 l 2
 659 700 782 564 744 350 c 1
 595 350 l 1
 622 504 534 570 411 570 c 2
 269 570 l 1
314 0 m 2
 168 0 l 1
 191 130 l 1
 333 130 l 2
 456 130 568 196 595 350 c 1
 744 350 l 1
 706 136 536 0 314 0 c 2
199 700 m 1
 346 700 l 1
 223 0 l 1
 76 0 l 1
 199 700 l 1
58 302 m 1
 74 394 l 1
 404 394 l 1
 388 302 l 1
 58 302 l 1
EndSplineSet
EndChar

StartChar: dcroat
Encoding: 273 273 263
Width: 602
VWidth: 0
Flags: HW
LayerCount: 2
Fore
SplineSet
396 572 m 1
 412 665 l 1
 752 665 l 1
 736 572 l 1
 396 572 l 1
550 780 m 1
 680 780 l 1
 542 0 l 1
 412 0 l 1
 550 780 l 1
74 230 m 0
 101 384 221 470 337 470 c 0
 452 470 519 379 493 230 c 0
 467 81 367 -10 252 -10 c 0
 136 -10 47 76 74 230 c 0
209 230 m 0
 195 148 241 98 309 98 c 0
 365 98 438 146 453 230 c 0
 468 314 412 362 356 362 c 0
 288 362 223 312 209 230 c 0
EndSplineSet
EndChar

StartChar: Emacron
Encoding: 274 274 264
Width: 587
VWidth: 0
Flags: HW
LayerCount: 2
Fore
SplineSet
168 0 m 1
 190 122 l 1
 544 122 l 1
 522 0 l 1
 168 0 l 1
270 578 m 1
 291 700 l 1
 645 700 l 1
 624 578 l 1
 270 578 l 1
223 312 m 1
 244 431 l 1
 578 431 l 1
 557 312 l 1
 223 312 l 1
199 700 m 1
 339 700 l 1
 216 0 l 1
 76 0 l 1
 199 700 l 1
252 774 m 1
 273 889 l 1
 638 889 l 1
 617 774 l 1
 252 774 l 1
EndSplineSet
EndChar

StartChar: emacron
Encoding: 275 275 265
Width: 555
VWidth: 0
Flags: HW
LayerCount: 2
Fore
SplineSet
132 202 m 1
 146 281 l 1
 553 281 l 1
 556 202 l 1
 132 202 l 1
427 246 m 2
 441 328 419 378 347 378 c 0
 281 378 225 334 211 256 c 1
 205 230 l 1
 188 132 230 90 298 90 c 0
 356 90 402 113 433 155 c 1
 541 120 l 1
 481 42 408 -10 280 -10 c 0
 125 -10 49 91 74 230 c 0
 77 247 80 263 86 279 c 0
 125 392 224 470 365 470 c 0
 517 470 590 381 564 236 c 0
 563 228 560 216 556 202 c 1
 423 222 l 1
 427 246 l 2
193 530 m 1
 214 645 l 1
 580 645 l 1
 559 530 l 1
 193 530 l 1
EndSplineSet
EndChar

StartChar: Ebreve
Encoding: 276 276 266
Width: 587
VWidth: 0
Flags: HW
LayerCount: 2
Fore
SplineSet
168 0 m 1
 190 122 l 1
 544 122 l 1
 522 0 l 1
 168 0 l 1
270 578 m 1
 291 700 l 1
 645 700 l 1
 624 578 l 1
 270 578 l 1
223 312 m 1
 244 431 l 1
 578 431 l 1
 557 312 l 1
 223 312 l 1
199 700 m 1
 339 700 l 1
 216 0 l 1
 76 0 l 1
 199 700 l 1
298 918 m 1
 388 918 l 1
 382 885 401 854 449 854 c 0
 497 854 526 885 532 918 c 1
 622 918 l 1
 608 840 539 774 434 774 c 0
 329 774 284 840 298 918 c 1
EndSplineSet
EndChar

StartChar: ebreve
Encoding: 277 277 267
Width: 555
VWidth: 0
Flags: HW
LayerCount: 2
Fore
SplineSet
132 202 m 1
 146 281 l 1
 553 281 l 1
 556 202 l 1
 132 202 l 1
427 246 m 2
 441 328 419 378 347 378 c 0
 281 378 225 334 211 256 c 1
 205 230 l 1
 188 132 230 90 298 90 c 0
 356 90 402 113 433 155 c 1
 541 120 l 1
 481 42 408 -10 280 -10 c 0
 125 -10 49 91 74 230 c 0
 77 247 80 263 86 279 c 0
 125 392 224 470 365 470 c 0
 517 470 590 381 564 236 c 0
 563 228 560 216 556 202 c 1
 423 222 l 1
 427 246 l 2
239 675 m 1
 330 675 l 1
 324 642 342 611 390 611 c 0
 438 611 467 642 473 675 c 1
 565 675 l 1
 551 597 480 530 375 530 c 0
 270 530 225 597 239 675 c 1
EndSplineSet
EndChar

StartChar: Edotaccent
Encoding: 278 278 268
Width: 587
VWidth: 0
Flags: HW
LayerCount: 2
Fore
SplineSet
168 0 m 1
 190 122 l 1
 544 122 l 1
 522 0 l 1
 168 0 l 1
270 578 m 1
 291 700 l 1
 645 700 l 1
 624 578 l 1
 270 578 l 1
223 312 m 1
 244 431 l 1
 578 431 l 1
 557 312 l 1
 223 312 l 1
199 700 m 1
 339 700 l 1
 216 0 l 1
 76 0 l 1
 199 700 l 1
367 855 m 0
 375 899 415 936 463 936 c 0
 511 936 539 899 531 855 c 0
 523 811 482 774 434 774 c 0
 386 774 359 811 367 855 c 0
EndSplineSet
EndChar

StartChar: edotaccent
Encoding: 279 279 269
Width: 555
VWidth: 0
Flags: HW
LayerCount: 2
Fore
SplineSet
132 202 m 1
 146 281 l 1
 553 281 l 1
 556 202 l 1
 132 202 l 1
427 246 m 2
 441 328 419 378 347 378 c 0
 281 378 225 334 211 256 c 1
 205 230 l 1
 188 132 230 90 298 90 c 0
 356 90 402 113 433 155 c 1
 541 120 l 1
 481 42 408 -10 280 -10 c 0
 125 -10 49 91 74 230 c 0
 77 247 80 263 86 279 c 0
 125 392 224 470 365 470 c 0
 517 470 590 381 564 236 c 0
 563 228 560 216 556 202 c 1
 423 222 l 1
 427 246 l 2
308 612 m 0
 316 656 356 693 404 693 c 0
 452 693 482 656 474 612 c 0
 466 568 423 530 375 530 c 0
 327 530 300 568 308 612 c 0
EndSplineSet
EndChar

StartChar: Eogonek
Encoding: 280 280 270
Width: 587
VWidth: 0
Flags: HW
LayerCount: 2
Fore
SplineSet
168 0 m 1
 190 122 l 1
 544 122 l 1
 522 0 l 1
 168 0 l 1
270 578 m 1
 291 700 l 1
 645 700 l 1
 624 578 l 1
 270 578 l 1
223 312 m 1
 244 431 l 1
 578 431 l 1
 557 312 l 1
 223 312 l 1
199 700 m 1
 339 700 l 1
 216 0 l 1
 76 0 l 1
 199 700 l 1
484 -116 m 1
 506 -179 l 1
 487 -199 453 -219 401 -219 c 0
 331 -219 290 -183 301 -119 c 1
 398 -95 l 1
 393 -123 404 -136 430 -136 c 0
 452 -136 468 -129 484 -116 c 1
398 -95 m 1
 301 -119 l 1
 312 -55 387 -10 463 26 c 1
 500 1 l 1
 443 -25 404 -63 398 -95 c 1
EndSplineSet
EndChar

StartChar: eogonek
Encoding: 281 281 271
Width: 555
VWidth: 0
Flags: HW
LayerCount: 2
Fore
SplineSet
132 202 m 1
 146 281 l 1
 553 281 l 1
 556 202 l 1
 132 202 l 1
427 246 m 2
 441 328 419 378 347 378 c 0
 281 378 225 334 211 256 c 1
 205 230 l 1
 188 132 230 90 298 90 c 0
 356 90 402 113 433 155 c 1
 541 120 l 1
 481 42 408 -10 280 -10 c 0
 125 -10 49 91 74 230 c 0
 77 247 80 263 86 279 c 0
 125 392 224 470 365 470 c 0
 517 470 590 381 564 236 c 0
 563 228 560 216 556 202 c 1
 423 222 l 1
 427 246 l 2
303 -121 m 1
 323 -185 l 1
 304 -205 272 -225 220 -225 c 0
 150 -225 107 -189 118 -125 c 1
 216 -101 l 1
 211 -129 223 -141 249 -141 c 0
 271 -141 287 -134 303 -121 c 1
216 -101 m 1
 118 -125 l 1
 129 -61 206 -16 282 20 c 1
 317 -5 l 1
 260 -31 222 -69 216 -101 c 1
EndSplineSet
EndChar

StartChar: Ecaron
Encoding: 282 282 272
Width: 587
VWidth: 0
Flags: HW
LayerCount: 2
Fore
SplineSet
168 0 m 1
 190 122 l 1
 544 122 l 1
 522 0 l 1
 168 0 l 1
270 578 m 1
 291 700 l 1
 645 700 l 1
 624 578 l 1
 270 578 l 1
223 312 m 1
 244 431 l 1
 578 431 l 1
 557 312 l 1
 223 312 l 1
199 700 m 1
 339 700 l 1
 216 0 l 1
 76 0 l 1
 199 700 l 1
455 888 m 1
 568 976 l 1
 646 914 l 1
 434 774 l 1
 273 914 l 1
 374 976 l 1
 455 888 l 1
EndSplineSet
EndChar

StartChar: ecaron
Encoding: 283 283 273
Width: 555
VWidth: 0
Flags: HW
LayerCount: 2
Fore
SplineSet
132 202 m 1
 146 281 l 1
 553 281 l 1
 556 202 l 1
 132 202 l 1
427 246 m 2
 441 328 419 378 347 378 c 0
 281 378 225 334 211 256 c 1
 205 230 l 1
 188 132 230 90 298 90 c 0
 356 90 402 113 433 155 c 1
 541 120 l 1
 481 42 408 -10 280 -10 c 0
 125 -10 49 91 74 230 c 0
 77 247 80 263 86 279 c 0
 125 392 224 470 365 470 c 0
 517 470 590 381 564 236 c 0
 563 228 560 216 556 202 c 1
 423 222 l 1
 427 246 l 2
396 644 m 1
 509 732 l 1
 586 670 l 1
 375 530 l 1
 214 670 l 1
 315 732 l 1
 396 644 l 1
EndSplineSet
EndChar

StartChar: Gcircumflex
Encoding: 284 284 274
Width: 802
VWidth: 0
Flags: HW
LayerCount: 2
Fore
SplineSet
462 260 m 1
 482 374 l 1
 828 374 l 1
 728 260 l 1
 462 260 l 1
828 374 m 1
 798 160 639 -18 407 -18 c 0
 189 -18 60 132 98 350 c 0
 136 568 322 714 540 714 c 0
 682 714 774 651 821 554 c 1
 685 482 l 1
 660 542 607 585 517 585 c 0
 391 585 274 496 248 350 c 0
 222 204 303 110 433 110 c 0
 593 110 671 234 695 370 c 1
 828 374 l 1
566 863 m 1
 454 774 l 1
 375 836 l 1
 586 976 l 1
 747 836 l 1
 648 774 l 1
 566 863 l 1
EndSplineSet
EndChar

StartChar: gcircumflex
Encoding: 285 285 275
Width: 598
VWidth: 0
Flags: HW
LayerCount: 2
Fore
SplineSet
493 234 m 1
 453 234 l 1
 468 318 412 362 356 362 c 0
 288 362 223 316 209 234 c 1
 74 234 l 1
 101 388 221 470 337 470 c 0
 452 470 519 383 493 234 c 1
453 234 m 1
 493 234 l 1
 467 85 369 -2 254 -2 c 0
 138 -2 47 80 74 234 c 1
 209 234 l 1
 195 152 243 106 311 106 c 0
 367 106 438 150 453 234 c 1
36 -32 m 1
 163 -32 l 1
 157 -91 195 -129 263 -129 c 0
 329 -129 397 -84 414 10 c 2
 493 460 l 1
 618 460 l 1
 539 10 l 2
 509 -162 382 -237 250 -237 c 0
 89 -237 23 -153 36 -32 c 1
402 619 m 1
 290 530 l 1
 212 592 l 1
 422 732 l 1
 584 592 l 1
 483 530 l 1
 402 619 l 1
EndSplineSet
EndChar

StartChar: Gbreve
Encoding: 286 286 276
Width: 802
VWidth: 0
Flags: HW
LayerCount: 2
Fore
SplineSet
462 260 m 1
 482 374 l 1
 828 374 l 1
 728 260 l 1
 462 260 l 1
828 374 m 1
 798 160 639 -18 407 -18 c 0
 189 -18 60 132 98 350 c 0
 136 568 322 714 540 714 c 0
 682 714 774 651 821 554 c 1
 685 482 l 1
 660 542 607 585 517 585 c 0
 391 585 274 496 248 350 c 0
 222 204 303 110 433 110 c 0
 593 110 671 234 695 370 c 1
 828 374 l 1
414 918 m 1
 505 918 l 1
 499 885 517 854 565 854 c 0
 613 854 642 885 648 918 c 1
 740 918 l 1
 726 840 655 774 550 774 c 0
 445 774 400 840 414 918 c 1
EndSplineSet
EndChar

StartChar: gbreve
Encoding: 287 287 277
Width: 598
VWidth: 0
Flags: HW
LayerCount: 2
Fore
SplineSet
493 234 m 1
 453 234 l 1
 468 318 412 362 356 362 c 0
 288 362 223 316 209 234 c 1
 74 234 l 1
 101 388 221 470 337 470 c 0
 452 470 519 383 493 234 c 1
453 234 m 1
 493 234 l 1
 467 85 369 -2 254 -2 c 0
 138 -2 47 80 74 234 c 1
 209 234 l 1
 195 152 243 106 311 106 c 0
 367 106 438 150 453 234 c 1
36 -32 m 1
 163 -32 l 1
 157 -91 195 -129 263 -129 c 0
 329 -129 397 -84 414 10 c 2
 493 460 l 1
 618 460 l 1
 539 10 l 2
 509 -162 382 -237 250 -237 c 0
 89 -237 23 -153 36 -32 c 1
254 675 m 1
 345 675 l 1
 339 642 358 611 406 611 c 0
 454 611 483 642 489 675 c 1
 580 675 l 1
 566 597 496 530 391 530 c 0
 286 530 240 597 254 675 c 1
EndSplineSet
EndChar

StartChar: Gdotaccent
Encoding: 288 288 278
Width: 802
VWidth: 0
Flags: HW
LayerCount: 2
Fore
SplineSet
462 260 m 1
 482 374 l 1
 828 374 l 1
 728 260 l 1
 462 260 l 1
828 374 m 1
 798 160 639 -18 407 -18 c 0
 189 -18 60 132 98 350 c 0
 136 568 322 714 540 714 c 0
 682 714 774 651 821 554 c 1
 685 482 l 1
 660 542 607 585 517 585 c 0
 391 585 274 496 248 350 c 0
 222 204 303 110 433 110 c 0
 593 110 671 234 695 370 c 1
 828 374 l 1
483 855 m 0
 491 899 531 936 579 936 c 0
 627 936 657 899 649 855 c 0
 641 811 598 774 550 774 c 0
 502 774 475 811 483 855 c 0
EndSplineSet
EndChar

StartChar: gdotaccent
Encoding: 289 289 279
Width: 598
VWidth: 0
Flags: HW
LayerCount: 2
Fore
SplineSet
493 234 m 1
 453 234 l 1
 468 318 412 362 356 362 c 0
 288 362 223 316 209 234 c 1
 74 234 l 1
 101 388 221 470 337 470 c 0
 452 470 519 383 493 234 c 1
453 234 m 1
 493 234 l 1
 467 85 369 -2 254 -2 c 0
 138 -2 47 80 74 234 c 1
 209 234 l 1
 195 152 243 106 311 106 c 0
 367 106 438 150 453 234 c 1
36 -32 m 1
 163 -32 l 1
 157 -91 195 -129 263 -129 c 0
 329 -129 397 -84 414 10 c 2
 493 460 l 1
 618 460 l 1
 539 10 l 2
 509 -162 382 -237 250 -237 c 0
 89 -237 23 -153 36 -32 c 1
319 612 m 0
 327 656 367 693 415 693 c 0
 463 693 492 656 484 612 c 0
 476 568 434 530 386 530 c 0
 338 530 311 568 319 612 c 0
EndSplineSet
EndChar

StartChar: uni0122
Encoding: 290 290 280
Width: 802
VWidth: 0
Flags: HW
LayerCount: 2
Fore
SplineSet
462 260 m 1
 482 374 l 1
 828 374 l 1
 728 260 l 1
 462 260 l 1
828 374 m 1
 798 160 639 -18 407 -18 c 0
 189 -18 60 132 98 350 c 0
 136 568 322 714 540 714 c 0
 682 714 774 651 821 554 c 1
 685 482 l 1
 660 542 607 585 517 585 c 0
 391 585 274 496 248 350 c 0
 222 204 303 110 433 110 c 0
 593 110 671 234 695 370 c 1
 828 374 l 1
354 -78 m 1
 479 -110 l 1
 313 -360 l 1
 220 -338 l 1
 354 -78 l 1
EndSplineSet
EndChar

StartChar: Hcircumflex
Encoding: 292 292 281
Width: 764
VWidth: 0
Flags: HW
LayerCount: 2
Fore
SplineSet
176 307 m 1
 199 438 l 1
 714 438 l 1
 691 307 l 1
 176 307 l 1
669 700 m 1
 813 700 l 1
 690 0 l 1
 546 0 l 1
 669 700 l 1
199 700 m 1
 343 700 l 1
 220 0 l 1
 76 0 l 1
 199 700 l 1
535 863 m 1
 422 774 l 1
 343 836 l 1
 555 976 l 1
 716 836 l 1
 616 774 l 1
 535 863 l 1
EndSplineSet
EndChar

StartChar: hcircumflex
Encoding: 293 293 282
Width: 555
VWidth: 0
Flags: HW
LayerCount: 2
Fore
SplineSet
333 780 m 1
 195 0 l 1
 64 0 l 1
 202 780 l 1
 333 780 l 1
411 280 m 2
 422 340 406 374 352 374 c 0
 298 374 254 338 244 280 c 1
 212 280 l 1
 231 389 310 475 418 475 c 0
 526 475 565 412 545 298 c 2
 492 0 l 1
 362 0 l 1
 411 280 l 2
363 928 m 1
 250 840 l 1
 171 902 l 1
 383 1042 l 1
 545 902 l 1
 444 840 l 1
 363 928 l 1
EndSplineSet
EndChar

StartChar: Itilde
Encoding: 296 296 283
Width: 297
VWidth: 0
Flags: HW
LayerCount: 2
Fore
SplineSet
199 700 m 1
 345 700 l 1
 222 0 l 1
 76 0 l 1
 199 700 l 1
109 832 m 1
 128 881 181 922 239 922 c 0
 305 922 308 872 364 872 c 0
 388 872 410 892 436 924 c 1
 487 859 l 1
 464 822 405 777 347 777 c 0
 292 777 270 828 222 828 c 0
 183 828 168 792 165 777 c 1
 109 832 l 1
EndSplineSet
EndChar

StartChar: itilde
Encoding: 297 297 284
Width: 271
VWidth: 0
Flags: HW
LayerCount: 2
Fore
SplineSet
153 460 m 1
 279 460 l 1
 198 0 l 1
 72 0 l 1
 153 460 l 1
53 588 m 1
 72 637 126 678 184 678 c 0
 250 678 251 628 307 628 c 0
 331 628 354 648 380 680 c 1
 430 614 l 1
 407 577 348 532 290 532 c 0
 235 532 213 584 165 584 c 0
 126 584 111 548 108 533 c 1
 53 588 l 1
EndSplineSet
EndChar

StartChar: Imacron
Encoding: 298 298 285
Width: 297
VWidth: 0
Flags: HW
LayerCount: 2
Fore
SplineSet
199 700 m 1
 345 700 l 1
 222 0 l 1
 76 0 l 1
 199 700 l 1
102 774 m 1
 123 889 l 1
 489 889 l 1
 468 774 l 1
 102 774 l 1
EndSplineSet
EndChar

StartChar: imacron
Encoding: 299 299 286
Width: 271
VWidth: 0
Flags: HW
LayerCount: 2
Fore
SplineSet
153 460 m 1
 279 460 l 1
 198 0 l 1
 72 0 l 1
 153 460 l 1
46 530 m 1
 67 645 l 1
 432 645 l 1
 411 530 l 1
 46 530 l 1
EndSplineSet
EndChar

StartChar: Ibreve
Encoding: 300 300 287
Width: 297
VWidth: 0
Flags: HW
LayerCount: 2
Fore
SplineSet
199 700 m 1
 345 700 l 1
 222 0 l 1
 76 0 l 1
 199 700 l 1
148 918 m 1
 240 918 l 1
 234 885 252 854 300 854 c 0
 348 854 376 885 382 918 c 1
 473 918 l 1
 459 840 390 774 285 774 c 0
 180 774 134 840 148 918 c 1
EndSplineSet
EndChar

StartChar: ibreve
Encoding: 301 301 288
Width: 271
VWidth: 0
Flags: HW
LayerCount: 2
Fore
SplineSet
153 460 m 1
 279 460 l 1
 198 0 l 1
 72 0 l 1
 153 460 l 1
91 675 m 1
 183 675 l 1
 177 642 196 611 244 611 c 0
 292 611 319 642 325 675 c 1
 417 675 l 1
 403 597 334 530 229 530 c 0
 124 530 77 597 91 675 c 1
EndSplineSet
EndChar

StartChar: Iogonek
Encoding: 302 302 289
Width: 297
VWidth: 0
Flags: HW
LayerCount: 2
Fore
SplineSet
199 700 m 1
 345 700 l 1
 222 0 l 1
 76 0 l 1
 199 700 l 1
186 -125 m 1
 208 -188 l 1
 189 -208 157 -228 105 -228 c 0
 35 -228 -8 -192 3 -128 c 1
 100 -104 l 1
 95 -132 106 -145 132 -145 c 0
 154 -145 170 -138 186 -125 c 1
100 -104 m 1
 3 -128 l 1
 14 -64 89 -20 165 16 c 1
 202 -8 l 1
 145 -34 106 -72 100 -104 c 1
EndSplineSet
EndChar

StartChar: iogonek
Encoding: 303 303 290
Width: 271
VWidth: 0
Flags: HW
LayerCount: 2
Fore
SplineSet
170 638 m 0
 177 680 218 712 262 712 c 0
 306 712 333 680 326 638 c 0
 319 596 279 564 235 564 c 0
 191 564 163 596 170 638 c 0
153 460 m 1
 279 460 l 1
 198 0 l 1
 72 0 l 1
 153 460 l 1
172 -125 m 1
 195 -188 l 1
 176 -208 144 -228 92 -228 c 0
 22 -228 -22 -192 -11 -128 c 1
 88 -104 l 1
 83 -132 92 -145 118 -145 c 0
 140 -145 156 -138 172 -125 c 1
88 -104 m 1
 -11 -128 l 1
 0 -64 75 -20 151 16 c 1
 189 -8 l 1
 132 -34 94 -72 88 -104 c 1
EndSplineSet
EndChar

StartChar: Idotaccent
Encoding: 304 304 291
Width: 297
VWidth: 0
Flags: HW
LayerCount: 2
Fore
SplineSet
199 700 m 1
 345 700 l 1
 222 0 l 1
 76 0 l 1
 199 700 l 1
217 855 m 0
 225 899 265 936 313 936 c 0
 361 936 390 899 382 855 c 0
 374 811 332 774 284 774 c 0
 236 774 209 811 217 855 c 0
EndSplineSet
EndChar

StartChar: uni0136
Encoding: 310 310 292
Width: 659
VWidth: 0
Flags: HW
LayerCount: 2
Fore
SplineSet
199 700 m 1
 347 700 l 1
 224 0 l 1
 76 0 l 1
 199 700 l 1
596 700 m 1
 767 700 l 1
 420 372 l 1
 658 0 l 1
 484 0 l 1
 247 368 l 1
 596 700 l 1
317 -60 m 1
 444 -92 l 1
 278 -342 l 1
 184 -319 l 1
 317 -60 l 1
EndSplineSet
EndChar

StartChar: uni0137
Encoding: 311 311 293
Width: 536
VWidth: 0
Flags: HW
LayerCount: 2
Fore
SplineSet
200 780 m 1
 325 780 l 1
 187 0 l 1
 62 0 l 1
 200 780 l 1
436 460 m 1
 593 460 l 1
 362 270 l 1
 532 0 l 1
 377 0 l 1
 206 270 l 1
 436 460 l 1
247 -60 m 1
 372 -92 l 1
 208 -342 l 1
 114 -319 l 1
 247 -60 l 1
EndSplineSet
EndChar

StartChar: Lacute
Encoding: 313 313 294
Width: 504
VWidth: 0
Flags: HW
LayerCount: 2
Fore
SplineSet
168 0 m 1
 190 126 l 1
 521 126 l 1
 499 0 l 1
 168 0 l 1
199 700 m 1
 343 700 l 1
 220 0 l 1
 76 0 l 1
 199 700 l 1
602 924 m 1
 395 774 l 1
 330 814 l 1
 508 974 l 1
 602 924 l 1
EndSplineSet
EndChar

StartChar: lacute
Encoding: 314 314 295
Width: 258
VWidth: 0
Flags: HW
LayerCount: 2
Fore
SplineSet
202 780 m 1
 333 780 l 1
 195 0 l 1
 64 0 l 1
 202 780 l 1
457 990 m 1
 250 840 l 1
 183 878 l 1
 361 1038 l 1
 457 990 l 1
EndSplineSet
EndChar

StartChar: uni013B
Encoding: 315 315 296
Width: 504
VWidth: 0
Flags: HW
LayerCount: 2
Fore
SplineSet
168 0 m 1
 190 126 l 1
 521 126 l 1
 499 0 l 1
 168 0 l 1
199 700 m 1
 343 700 l 1
 220 0 l 1
 76 0 l 1
 199 700 l 1
255 -60 m 1
 380 -92 l 1
 216 -342 l 1
 122 -319 l 1
 255 -60 l 1
EndSplineSet
EndChar

StartChar: uni013C
Encoding: 316 316 297
Width: 258
VWidth: 0
Flags: HW
LayerCount: 2
Fore
SplineSet
202 780 m 1
 333 780 l 1
 195 0 l 1
 64 0 l 1
 202 780 l 1
97 -60 m 1
 223 -92 l 1
 58 -342 l 1
 -36 -319 l 1
 97 -60 l 1
EndSplineSet
EndChar

StartChar: Lcaron
Encoding: 317 317 298
Width: 504
VWidth: 0
Flags: HW
LayerCount: 2
Fore
SplineSet
168 0 m 1
 190 126 l 1
 521 126 l 1
 499 0 l 1
 168 0 l 1
199 700 m 1
 343 700 l 1
 220 0 l 1
 76 0 l 1
 199 700 l 1
494 714 m 1
 619 683 l 1
 454 433 l 1
 360 456 l 1
 494 714 l 1
EndSplineSet
EndChar

StartChar: lcaron
Encoding: 318 318 299
Width: 258
VWidth: 0
Flags: HW
LayerCount: 2
Fore
SplineSet
202 780 m 1
 333 780 l 1
 195 0 l 1
 64 0 l 1
 202 780 l 1
471 780 m 1
 594 748 l 1
 430 498 l 1
 337 521 l 1
 471 780 l 1
EndSplineSet
EndChar

StartChar: Ldot
Encoding: 319 319 300
Width: 504
VWidth: 0
Flags: HW
LayerCount: 2
Fore
SplineSet
168 0 m 1
 190 126 l 1
 521 126 l 1
 499 0 l 1
 168 0 l 1
199 700 m 1
 343 700 l 1
 220 0 l 1
 76 0 l 1
 199 700 l 1
374 417 m 0
 382 461 422 498 470 498 c 0
 518 498 546 461 538 417 c 0
 530 373 489 336 441 336 c 0
 393 336 366 373 374 417 c 0
EndSplineSet
EndChar

StartChar: ldot
Encoding: 320 320 301
Width: 444
VWidth: 0
Flags: HW
LayerCount: 2
Fore
SplineSet
202 780 m 1
 333 780 l 1
 195 0 l 1
 64 0 l 1
 202 780 l 1
313 410 m 0
 321 454 363 492 411 492 c 0
 459 492 487 454 479 410 c 0
 471 366 430 329 382 329 c 0
 334 329 305 366 313 410 c 0
EndSplineSet
EndChar

StartChar: eth
Encoding: 240 240 302
Width: 641
VWidth: 0
Flags: HW
LayerCount: 2
Fore
SplineSet
492 241 m 0
 506 319 461 374 387 374 c 0
 313 374 248 319 234 241 c 0
 220 163 266 110 340 110 c 0
 414 110 478 163 492 241 c 0
432 698 m 1
 595 420 l 2
 626 370 646 311 634 241 c 0
 605 77 469 -14 319 -14 c 0
 169 -14 63 77 92 241 c 0
 116 379 240 469 347 469 c 0
 395 469 425 460 453 425 c 1
 428 434 l 1
 250 698 l 1
 432 698 l 1
234 520 m 1
 247 594 l 1
 643 594 l 1
 630 520 l 1
 234 520 l 1
EndSplineSet
EndChar

StartChar: racute
Encoding: 341 341 303
Width: 390
VWidth: 0
Flags: HW
LayerCount: 2
Fore
SplineSet
273 460 m 1
 192 0 l 1
 64 0 l 1
 145 460 l 1
 273 460 l 1
384 324 m 1
 369 340 355 350 329 350 c 0
 280 350 247 309 235 243 c 1
 205 280 l 1
 224 389 311 470 385 470 c 0
 418 470 449 458 463 434 c 1
 384 324 l 1
496 680 m 1
 289 530 l 1
 225 570 l 1
 403 730 l 1
 496 680 l 1
EndSplineSet
EndChar

StartChar: rcaron
Encoding: 345 345 304
Width: 390
VWidth: 0
Flags: HW
LayerCount: 2
Fore
SplineSet
273 460 m 1
 192 0 l 1
 64 0 l 1
 145 460 l 1
 273 460 l 1
384 324 m 1
 369 340 355 350 329 350 c 0
 280 350 247 309 235 243 c 1
 205 280 l 1
 224 389 311 470 385 470 c 0
 418 470 449 458 463 434 c 1
 384 324 l 1
339 644 m 1
 451 732 l 1
 529 670 l 1
 318 530 l 1
 157 670 l 1
 257 732 l 1
 339 644 l 1
EndSplineSet
EndChar

StartChar: Rcaron
Encoding: 344 344 305
Width: 621
VWidth: 0
Flags: HW
LayerCount: 2
Fore
SplineSet
292 326 m 1
 445 326 l 1
 616 0 l 1
 445 0 l 1
 292 326 l 1
199 700 m 1
 343 700 l 1
 220 0 l 1
 76 0 l 1
 199 700 l 1
266 577 m 1
 287 700 l 1
 435 700 l 2
 600 700 682 610 658 476 c 0
 634 342 522 254 357 254 c 2
 209 254 l 1
 229 368 l 1
 368 368 l 2
 442 368 496 406 508 472 c 0
 520 538 479 577 405 577 c 2
 266 577 l 1
453 888 m 1
 564 976 l 1
 643 914 l 1
 432 774 l 1
 271 914 l 1
 371 976 l 1
 453 888 l 1
EndSplineSet
EndChar

StartChar: uni0213
Encoding: 531 531 306
Width: 390
VWidth: 0
Flags: HW
LayerCount: 2
Fore
SplineSet
273 460 m 1
 192 0 l 1
 64 0 l 1
 145 460 l 1
 273 460 l 1
384 324 m 1
 369 340 355 350 329 350 c 0
 280 350 247 309 235 243 c 1
 205 280 l 1
 224 389 311 470 385 470 c 0
 418 470 449 458 463 434 c 1
 384 324 l 1
156 530 m 1
 247 530 l 1
 253 563 283 594 331 594 c 0
 379 594 396 563 390 530 c 1
 481 530 l 1
 495 608 450 676 345 676 c 0
 240 676 170 608 156 530 c 1
EndSplineSet
EndChar

StartChar: uni0212
Encoding: 530 530 307
Width: 621
VWidth: 0
Flags: HW
LayerCount: 2
Fore
SplineSet
292 326 m 1
 445 326 l 1
 616 0 l 1
 445 0 l 1
 292 326 l 1
199 700 m 1
 343 700 l 1
 220 0 l 1
 76 0 l 1
 199 700 l 1
266 577 m 1
 287 700 l 1
 435 700 l 2
 600 700 682 610 658 476 c 0
 634 342 522 254 357 254 c 2
 209 254 l 1
 229 368 l 1
 368 368 l 2
 442 368 496 406 508 472 c 0
 520 538 479 577 405 577 c 2
 266 577 l 1
284 774 m 1
 376 774 l 1
 382 807 412 838 460 838 c 0
 508 838 525 807 519 774 c 1
 610 774 l 1
 624 852 579 918 474 918 c 0
 369 918 298 852 284 774 c 1
EndSplineSet
EndChar

StartChar: OE
Encoding: 338 338 308
Width: 985
VWidth: 0
Flags: HW
LayerCount: 2
Fore
SplineSet
617 312 m 1
 638 431 l 1
 996 431 l 1
 975 312 l 1
 617 312 l 1
611 670 m 1
 751 670 l 1
 638 30 l 1
 498 30 l 1
 611 670 l 1
962 122 m 1
 940 0 l 1
 390 0 l 2
 187 0 61 141 98 350 c 0
 135 559 309 700 513 700 c 2
 1063 700 l 1
 1042 578 l 1
 670 578 l 1
 652 572 l 1
 513 572 l 2
 369 572 271 491 246 350 c 0
 221 209 291 128 435 128 c 2
 571 128 l 1
 594 122 l 1
 962 122 l 1
EndSplineSet
EndChar

StartChar: oe
Encoding: 339 339 309
Width: 900
VWidth: 0
Flags: HW
LayerCount: 2
Fore
SplineSet
772 250 m 2
 786 328 761 378 693 378 c 0
 631 378 572 338 558 260 c 1
 551 230 l 1
 535 138 571 87 643 87 c 0
 701 87 743 114 778 156 c 1
 885 120 l 1
 830 46 741 -10 642 -10 c 0
 517 -10 446 91 471 230 c 0
 474 247 477 263 483 279 c 0
 522 392 622 470 741 470 c 0
 851 470 932 379 906 234 c 0
 905 226 902 210 900 202 c 1
 769 230 l 1
 772 250 l 2
517 202 m 1
 530 280 l 1
 893 280 l 1
 900 202 l 1
 517 202 l 1
76 230 m 0
 102 379 221 470 346 470 c 0
 471 470 533 379 507 230 c 0
 481 81 386 -10 261 -10 c 0
 136 -10 50 81 76 230 c 0
205 230 m 0
 190 146 236 100 304 100 c 0
 366 100 422 146 437 230 c 0
 452 314 411 360 349 360 c 0
 281 360 220 314 205 230 c 0
EndSplineSet
EndChar

StartChar: a.alt
Encoding: 65536 -1 310
Width: 602
VWidth: 0
Flags: HW
LayerCount: 2
Fore
SplineSet
495 460 m 1
 623 460 l 1
 542 0 l 1
 414 0 l 1
 495 460 l 1
74 230 m 0
 102 388 222 474 338 474 c 0
 458 474 515 379 489 230 c 0
 463 81 372 -14 252 -14 c 0
 136 -14 46 72 74 230 c 0
209 230 m 0
 195 148 242 102 310 102 c 0
 366 102 438 146 453 230 c 0
 468 314 411 358 355 358 c 0
 287 358 223 312 209 230 c 0
EndSplineSet
EndChar

StartChar: Jcircumflex
Encoding: 308 308 312
Width: 303
VWidth: 0
Flags: HW
LayerCount: 2
Fore
SplineSet
-83 -76 m 1
 -69 -96 -41 -109 -9 -109 c 0
 21 -109 60 -88 71 -26 c 2
 199 700 l 1
 351 700 l 1
 218 -56 l 2
 196 -182 95 -234 -21 -234 c 0
 -91 -234 -151 -202 -179 -178 c 1
 -83 -76 l 1
304 863 m 1
 191 774 l 1
 113 836 l 1
 324 976 l 1
 485 836 l 1
 384 774 l 1
 304 863 l 1
EndSplineSet
EndChar

StartChar: jcircumflex
Encoding: 309 309 313
Width: 264
VWidth: 0
Flags: HW
LayerCount: 2
Fore
SplineSet
-45 -88 m 1
 -35 -108 -20 -114 -2 -114 c 0
 28 -114 50 -91 59 -39 c 2
 147 460 l 1
 274 460 l 1
 181 -68 l 2
 163 -172 97 -234 -9 -234 c 0
 -69 -234 -101 -206 -117 -186 c 1
 -45 -88 l 1
239 619 m 1
 125 530 l 1
 47 592 l 1
 259 732 l 1
 420 592 l 1
 319 530 l 1
 239 619 l 1
EndSplineSet
EndChar

StartChar: Nacute
Encoding: 323 323 314
Width: 787
VWidth: 0
Flags: HW
LayerCount: 2
Fore
SplineSet
177 548 m 1
 206 735 l 1
 735 152 l 1
 706 -35 l 1
 177 548 l 1
696 700 m 1
 835 700 l 1
 706 -35 l 1
 596 128 l 1
 696 700 l 1
206 735 m 1
 317 572 l 1
 216 0 l 1
 76 0 l 1
 206 735 l 1
695 915 m 1
 489 765 l 1
 422 804 l 1
 600 964 l 1
 695 915 l 1
EndSplineSet
EndChar

StartChar: nacute
Encoding: 324 324 315
Width: 560
VWidth: 0
Flags: HW
LayerCount: 2
Fore
SplineSet
276 460 m 1
 195 0 l 1
 64 0 l 1
 145 460 l 1
 276 460 l 1
411 280 m 2
 422 340 406 374 352 374 c 0
 298 374 254 338 244 280 c 1
 212 276 l 1
 231 385 309 470 417 470 c 0
 525 470 568 408 548 294 c 2
 496 0 l 1
 362 0 l 1
 411 280 l 2
551 680 m 1
 344 530 l 1
 278 569 l 1
 457 729 l 1
 551 680 l 1
EndSplineSet
EndChar

StartChar: uni0145
Encoding: 325 325 316
Width: 787
VWidth: 0
Flags: HW
LayerCount: 2
Fore
SplineSet
177 548 m 1
 206 735 l 1
 735 152 l 1
 706 -35 l 1
 177 548 l 1
696 700 m 1
 835 700 l 1
 706 -35 l 1
 596 128 l 1
 696 700 l 1
206 735 m 1
 317 572 l 1
 216 0 l 1
 76 0 l 1
 206 735 l 1
366 -48 m 1
 490 -80 l 1
 326 -330 l 1
 232 -308 l 1
 366 -48 l 1
EndSplineSet
EndChar

StartChar: uni0146
Encoding: 326 326 317
Width: 560
VWidth: 0
Flags: HW
LayerCount: 2
Fore
SplineSet
276 460 m 1
 195 0 l 1
 64 0 l 1
 145 460 l 1
 276 460 l 1
411 280 m 2
 422 340 406 374 352 374 c 0
 298 374 254 338 244 280 c 1
 212 276 l 1
 231 385 309 470 417 470 c 0
 525 470 568 408 548 294 c 2
 496 0 l 1
 362 0 l 1
 411 280 l 2
248 -60 m 1
 372 -92 l 1
 208 -342 l 1
 115 -319 l 1
 248 -60 l 1
EndSplineSet
EndChar

StartChar: Ncaron
Encoding: 327 327 318
Width: 787
VWidth: 0
Flags: HW
LayerCount: 2
Fore
SplineSet
177 548 m 1
 206 735 l 1
 735 152 l 1
 706 -35 l 1
 177 548 l 1
696 700 m 1
 835 700 l 1
 706 -35 l 1
 596 128 l 1
 696 700 l 1
206 735 m 1
 317 572 l 1
 216 0 l 1
 76 0 l 1
 206 735 l 1
540 896 m 1
 653 984 l 1
 731 922 l 1
 520 782 l 1
 359 922 l 1
 460 984 l 1
 540 896 l 1
EndSplineSet
EndChar

StartChar: ncaron
Encoding: 328 328 319
Width: 560
VWidth: 0
Flags: HW
LayerCount: 2
Fore
SplineSet
276 460 m 1
 195 0 l 1
 64 0 l 1
 145 460 l 1
 276 460 l 1
411 280 m 2
 422 340 406 374 352 374 c 0
 298 374 254 338 244 280 c 1
 212 276 l 1
 231 385 309 470 417 470 c 0
 525 470 568 408 548 294 c 2
 496 0 l 1
 362 0 l 1
 411 280 l 2
394 644 m 1
 505 732 l 1
 584 670 l 1
 373 530 l 1
 212 670 l 1
 312 732 l 1
 394 644 l 1
EndSplineSet
EndChar

StartChar: Omacron
Encoding: 332 332 320
Width: 811
VWidth: 0
Flags: HW
LayerCount: 2
Fore
SplineSet
250 350 m 0
 226 216 299 120 427 120 c 0
 555 120 662 216 686 350 c 0
 710 484 639 580 508 580 c 0
 380 580 274 484 250 350 c 0
98 350 m 0
 135 562 321 714 532 714 c 0
 744 714 875 562 838 350 c 0
 801 138 618 -18 403 -18 c 0
 188 -18 61 138 98 350 c 0
360 774 m 1
 381 889 l 1
 745 889 l 1
 724 774 l 1
 360 774 l 1
EndSplineSet
EndChar

StartChar: omacron
Encoding: 333 333 321
Width: 576
VWidth: 0
Flags: HW
LayerCount: 2
Fore
SplineSet
74 230 m 0
 99 374 225 470 371 470 c 0
 517 470 610 374 585 230 c 0
 560 86 432 -10 286 -10 c 0
 140 -10 49 86 74 230 c 0
207 230 m 0
 193 152 238 100 306 100 c 0
 374 100 437 152 451 230 c 0
 465 308 419 360 351 360 c 0
 283 360 221 308 207 230 c 0
199 530 m 1
 220 645 l 1
 584 645 l 1
 563 530 l 1
 199 530 l 1
EndSplineSet
EndChar

StartChar: Obreve
Encoding: 334 334 322
Width: 811
VWidth: 0
Flags: HW
LayerCount: 2
Fore
SplineSet
250 350 m 0
 226 216 299 120 427 120 c 0
 555 120 662 216 686 350 c 0
 710 484 639 580 508 580 c 0
 380 580 274 484 250 350 c 0
98 350 m 0
 135 562 321 714 532 714 c 0
 744 714 875 562 838 350 c 0
 801 138 618 -18 403 -18 c 0
 188 -18 61 138 98 350 c 0
406 918 m 1
 496 918 l 1
 490 885 509 854 557 854 c 0
 605 854 634 885 640 918 c 1
 730 918 l 1
 716 840 647 774 542 774 c 0
 437 774 392 840 406 918 c 1
EndSplineSet
EndChar

StartChar: obreve
Encoding: 335 335 323
Width: 576
VWidth: 0
Flags: HW
LayerCount: 2
Fore
SplineSet
74 230 m 0
 99 374 225 470 371 470 c 0
 517 470 610 374 585 230 c 0
 560 86 432 -10 286 -10 c 0
 140 -10 49 86 74 230 c 0
207 230 m 0
 193 152 238 100 306 100 c 0
 374 100 437 152 451 230 c 0
 465 308 419 360 351 360 c 0
 283 360 221 308 207 230 c 0
245 675 m 1
 336 675 l 1
 330 642 348 611 396 611 c 0
 444 611 473 642 479 675 c 1
 569 675 l 1
 555 597 486 530 381 530 c 0
 276 530 231 597 245 675 c 1
EndSplineSet
EndChar

StartChar: Racute
Encoding: 340 340 324
Width: 621
VWidth: 0
Flags: HW
LayerCount: 2
Fore
SplineSet
292 326 m 1
 445 326 l 1
 616 0 l 1
 445 0 l 1
 292 326 l 1
199 700 m 1
 343 700 l 1
 220 0 l 1
 76 0 l 1
 199 700 l 1
266 577 m 1
 287 700 l 1
 435 700 l 2
 600 700 682 610 658 476 c 0
 634 342 522 254 357 254 c 2
 209 254 l 1
 229 368 l 1
 368 368 l 2
 442 368 496 406 508 472 c 0
 520 538 479 577 405 577 c 2
 266 577 l 1
613 924 m 1
 406 774 l 1
 341 814 l 1
 519 974 l 1
 613 924 l 1
EndSplineSet
EndChar

StartChar: uni0156
Encoding: 342 342 325
Width: 621
VWidth: 0
Flags: HW
LayerCount: 2
Fore
SplineSet
292 326 m 1
 445 326 l 1
 616 0 l 1
 445 0 l 1
 292 326 l 1
199 700 m 1
 343 700 l 1
 220 0 l 1
 76 0 l 1
 199 700 l 1
266 577 m 1
 287 700 l 1
 435 700 l 2
 600 700 682 610 658 476 c 0
 634 342 522 254 357 254 c 2
 209 254 l 1
 229 368 l 1
 368 368 l 2
 442 368 496 406 508 472 c 0
 520 538 479 577 405 577 c 2
 266 577 l 1
313 -60 m 1
 438 -92 l 1
 274 -342 l 1
 180 -319 l 1
 313 -60 l 1
EndSplineSet
EndChar

StartChar: uni0157
Encoding: 343 343 326
Width: 390
VWidth: 0
Flags: HW
LayerCount: 2
Fore
SplineSet
273 460 m 1
 192 0 l 1
 64 0 l 1
 145 460 l 1
 273 460 l 1
384 324 m 1
 369 340 355 350 329 350 c 0
 280 350 247 309 235 243 c 1
 205 280 l 1
 224 389 311 470 385 470 c 0
 418 470 449 458 463 434 c 1
 384 324 l 1
96 -60 m 1
 222 -92 l 1
 56 -342 l 1
 -37 -319 l 1
 96 -60 l 1
EndSplineSet
EndChar

StartChar: Scedilla
Encoding: 350 350 327
Width: 602
VWidth: 0
Flags: HW
LayerCount: 2
Fore
SplineSet
183 244 m 1
 213 156 255 108 333 108 c 0
 395 108 435 138 444 190 c 0
 456 258 390 282 315 313 c 0
 250 339 143 393 166 524 c 0
 186 638 298 714 434 714 c 0
 573 714 636 633 651 562 c 1
 529 496 l 1
 509 550 479 589 418 589 c 0
 362 589 322 562 314 518 c 0
 304 464 377 438 456 408 c 0
 540 376 617 316 595 194 c 0
 571 59 463 -18 307 -18 c 0
 183 -18 90 57 66 172 c 1
 183 244 l 1
305 60 m 1
 398 58 l 1
 282 -80 l 1
 185 -126 l 1
 305 60 l 1
398 -150 m 1
 314 -143 l 1
 319 -117 295 -110 263 -110 c 0
 253 -110 220 -110 185 -126 c 1
 249 -84 l 1
 279 -62 302 -58 328 -58 c 0
 366 -58 409 -89 398 -150 c 1
398 -150 m 1
 386 -219 315 -254 255 -254 c 0
 205 -254 171 -244 134 -214 c 1
 187 -155 l 1
 208 -173 232 -180 254 -180 c 0
 288 -180 310 -167 314 -143 c 1
 398 -150 l 1
EndSplineSet
EndChar

StartChar: scedilla
Encoding: 351 351 328
Width: 440
VWidth: 0
Flags: HW
LayerCount: 2
Fore
SplineSet
116 170 m 1
 157 111 204 88 244 88 c 0
 278 88 300 98 305 126 c 0
 312 165 252 179 202 202 c 0
 146 229 92 261 106 340 c 0
 121 424 209 470 301 470 c 0
 379 470 443 438 476 396 c 1
 404 314 l 1
 378 348 328 370 291 370 c 0
 257 370 234 361 230 336 c 0
 225 306 283 290 335 268 c 0
 395 242 450 206 437 130 c 0
 419 26 345 -17 237 -17 c 0
 143 -17 70 28 36 90 c 1
 116 170 l 1
226 67 m 1
 322 64 l 1
 204 -72 l 1
 107 -120 l 1
 226 67 l 1
320 -143 m 1
 236 -136 l 1
 241 -110 216 -103 184 -103 c 0
 174 -103 142 -104 107 -120 c 1
 172 -77 l 1
 202 -55 223 -52 249 -52 c 0
 287 -52 331 -82 320 -143 c 1
320 -143 m 1
 308 -212 237 -247 177 -247 c 0
 127 -247 94 -239 57 -209 c 1
 109 -148 l 1
 130 -166 154 -173 176 -173 c 0
 210 -173 232 -160 236 -136 c 1
 320 -143 l 1
EndSplineSet
EndChar

StartChar: Zcaron
Encoding: 381 381 329
Width: 597
VWidth: 0
Flags: HW
LayerCount: 2
Fore
SplineSet
151 570 m 1
 173 700 l 1
 705 700 l 1
 262 126 l 1
 572 126 l 1
 550 0 l 1
 10 0 l 1
 451 570 l 1
 151 570 l 1
473 888 m 1
 584 976 l 1
 663 914 l 1
 452 774 l 1
 291 914 l 1
 391 976 l 1
 473 888 l 1
EndSplineSet
EndChar

StartChar: zcaron
Encoding: 382 382 330
Width: 499
VWidth: 0
Flags: HW
LayerCount: 2
Fore
SplineSet
160 119 m 1
 481 119 l 1
 460 0 l 1
 15 0 l 1
 160 119 l 1
135 460 m 1
 570 460 l 1
 422 341 l 1
 114 341 l 1
 135 460 l 1
441 460 m 1
 570 460 l 1
 158 0 l 1
 15 0 l 1
 441 460 l 1
385 644 m 1
 497 732 l 1
 576 670 l 1
 364 530 l 1
 203 670 l 1
 304 732 l 1
 385 644 l 1
EndSplineSet
EndChar

StartChar: Ydieresis
Encoding: 376 376 331
Width: 630
VWidth: 0
Flags: HW
LayerCount: 2
Fore
SplineSet
305 360 m 1
 451 360 l 1
 388 0 l 1
 242 0 l 1
 305 360 l 1
587 700 m 1
 753 700 l 1
 344 166 l 1
 123 700 l 1
 289 700 l 1
 389 418 l 1
 587 700 l 1
508 855 m 0
 516 899 556 936 604 936 c 0
 652 936 681 899 673 855 c 0
 665 811 623 774 575 774 c 0
 527 774 500 811 508 855 c 0
260 855 m 0
 268 899 308 936 356 936 c 0
 404 936 433 899 425 855 c 0
 417 811 375 774 327 774 c 0
 279 774 252 811 260 855 c 0
EndSplineSet
EndChar

StartChar: Scaron
Encoding: 352 352 332
Width: 602
VWidth: 0
Flags: HW
LayerCount: 2
Fore
SplineSet
183 244 m 1
 213 156 255 108 333 108 c 0
 395 108 435 138 444 190 c 0
 456 258 390 282 315 313 c 0
 250 339 143 393 166 524 c 0
 186 638 298 714 434 714 c 0
 573 714 636 633 651 562 c 1
 529 496 l 1
 509 550 479 589 418 589 c 0
 362 589 322 562 314 518 c 0
 304 464 377 438 456 408 c 0
 540 376 617 316 595 194 c 0
 571 59 463 -18 307 -18 c 0
 183 -18 90 57 66 172 c 1
 183 244 l 1
465 888 m 1
 577 976 l 1
 655 914 l 1
 444 774 l 1
 283 914 l 1
 384 976 l 1
 465 888 l 1
EndSplineSet
EndChar

StartChar: scaron
Encoding: 353 353 333
Width: 440
VWidth: 0
Flags: HW
LayerCount: 2
Fore
SplineSet
116 170 m 1
 157 111 204 88 244 88 c 0
 278 88 300 98 305 126 c 0
 312 165 252 179 202 202 c 0
 146 229 92 261 106 340 c 0
 121 424 209 470 301 470 c 0
 379 470 443 438 476 396 c 1
 404 314 l 1
 378 348 328 370 291 370 c 0
 257 370 234 361 230 336 c 0
 225 306 283 290 335 268 c 0
 395 242 450 206 437 130 c 0
 419 26 345 -17 237 -17 c 0
 143 -17 70 28 36 90 c 1
 116 170 l 1
330 635 m 1
 443 724 l 1
 521 662 l 1
 310 522 l 1
 149 662 l 1
 250 724 l 1
 330 635 l 1
EndSplineSet
EndChar

StartChar: Lslash
Encoding: 321 321 334
Width: 504
VWidth: 0
Flags: HW
LayerCount: 2
Fore
SplineSet
134 192 m 1
 141 303 l 1
 465 399 l 1
 456 286 l 1
 134 192 l 1
156 306 m 1
 260 352 l 1
 382 45 l 1
 278 0 l 1
 156 306 l 1
139 521 m 1
 171 558 l 1
 308 291 l 1
 276 254 l 1
 139 521 l 1
EndSplineSet
EndChar

StartChar: lslash
Encoding: 322 322 335
Width: 258
VWidth: 0
Flags: HW
LayerCount: 2
Fore
SplineSet
118 532 m 1
 198 564 l 1
 294 306 l 1
 215 276 l 1
 118 532 l 1
135 566 m 1
 165 603 l 1
 274 278 l 1
 244 241 l 1
 135 566 l 1
EndSplineSet
EndChar

StartChar: uni0218
Encoding: 536 536 336
Width: 602
VWidth: 0
Flags: HW
LayerCount: 2
Fore
SplineSet
183 244 m 1
 213 156 255 108 333 108 c 0
 395 108 435 138 444 190 c 0
 456 258 390 282 315 313 c 0
 250 339 143 393 166 524 c 0
 186 638 298 714 434 714 c 0
 573 714 636 633 651 562 c 1
 529 496 l 1
 509 550 479 589 418 589 c 0
 362 589 322 562 314 518 c 0
 304 464 377 438 456 408 c 0
 540 376 617 316 595 194 c 0
 571 59 463 -18 307 -18 c 0
 183 -18 90 57 66 172 c 1
 183 244 l 1
260 -70 m 1
 384 -102 l 1
 219 -352 l 1
 126 -329 l 1
 260 -70 l 1
EndSplineSet
EndChar

StartChar: uni0219
Encoding: 537 537 337
Width: 440
VWidth: 0
Flags: HW
LayerCount: 2
Fore
SplineSet
116 170 m 1
 157 111 204 88 244 88 c 0
 278 88 300 98 305 126 c 0
 312 165 252 179 202 202 c 0
 146 229 92 261 106 340 c 0
 121 424 209 470 301 470 c 0
 379 470 443 438 476 396 c 1
 404 314 l 1
 378 348 328 370 291 370 c 0
 257 370 234 361 230 336 c 0
 225 306 283 290 335 268 c 0
 395 242 450 206 437 130 c 0
 419 26 345 -17 237 -17 c 0
 143 -17 70 28 36 90 c 1
 116 170 l 1
190 -68 m 1
 314 -100 l 1
 148 -350 l 1
 56 -327 l 1
 190 -68 l 1
EndSplineSet
EndChar

StartChar: pi
Encoding: 960 960 338
Width: 583
VWidth: 0
Flags: HW
LayerCount: 2
Fore
SplineSet
166 430 m 1
 290 430 l 1
 214 0 l 1
 90 0 l 1
 166 430 l 1
111 460 m 1
 625 460 l 1
 606 350 l 1
 92 350 l 1
 111 460 l 1
416 430 m 1
 540 430 l 1
 493 167 l 2
 481 101 504 97 534 97 c 1
 515 -9 l 1
 400 -9 340 3 361 121 c 2
 416 430 l 1
EndSplineSet
EndChar

StartChar: trademark
Encoding: 8482 8482 339
Width: 721
VWidth: 0
Flags: HW
LayerCount: 2
Fore
SplineSet
142 635 m 1
 153 700 l 1
 415 700 l 1
 404 635 l 1
 308 635 l 1
 258 350 l 1
 187 350 l 1
 237 635 l 1
 142 635 l 1
695 596 m 1
 768 717 l 1
 756 350 l 1
 680 350 l 1
 695 596 l 1
474 717 m 1
 505 596 l 1
 434 350 l 1
 358 350 l 1
 474 717 l 1
768 717 m 1
 750 611 l 1
 562 382 l 1
 456 611 l 1
 474 717 l 1
 582 492 l 1
 768 717 l 1
EndSplineSet
EndChar

StartChar: uni2219
Encoding: 8729 8729 340
Width: 315
VWidth: 0
Flags: HW
LayerCount: 2
Fore
SplineSet
153 434 m 0
 161 478 201 516 249 516 c 0
 297 516 325 478 317 434 c 0
 309 390 268 353 220 353 c 0
 172 353 145 390 153 434 c 0
EndSplineSet
EndChar

StartChar: agrave.alt
Encoding: 65537 -1 341
Width: 602
VWidth: 0
Flags: HW
LayerCount: 2
Fore
SplineSet
495 460 m 1
 623 460 l 1
 542 0 l 1
 414 0 l 1
 495 460 l 1
74 230 m 0
 102 388 222 474 338 474 c 0
 458 474 515 379 489 230 c 0
 463 81 372 -14 252 -14 c 0
 136 -14 46 72 74 230 c 0
209 230 m 0
 195 148 242 102 310 102 c 0
 366 102 438 146 453 230 c 0
 468 314 411 358 355 358 c 0
 287 358 223 312 209 230 c 0
256 687 m 1
 368 736 l 1
 490 576 l 1
 410 537 l 1
 256 687 l 1
EndSplineSet
EndChar

StartChar: aacute.alt
Encoding: 65538 -1 342
Width: 602
VWidth: 0
Flags: HW
LayerCount: 2
Fore
SplineSet
495 460 m 1
 623 460 l 1
 542 0 l 1
 414 0 l 1
 495 460 l 1
74 230 m 0
 102 388 222 474 338 474 c 0
 458 474 515 379 489 230 c 0
 463 81 372 -14 252 -14 c 0
 136 -14 46 72 74 230 c 0
209 230 m 0
 195 148 242 102 310 102 c 0
 366 102 438 146 453 230 c 0
 468 314 411 358 355 358 c 0
 287 358 223 312 209 230 c 0
539 687 m 1
 333 537 l 1
 266 576 l 1
 444 736 l 1
 539 687 l 1
EndSplineSet
EndChar

StartChar: acircumflex.alt
Encoding: 65539 -1 343
Width: 602
VWidth: 0
Flags: HW
LayerCount: 2
Fore
SplineSet
495 460 m 1
 623 460 l 1
 542 0 l 1
 414 0 l 1
 495 460 l 1
74 230 m 0
 102 388 222 474 338 474 c 0
 458 474 515 379 489 230 c 0
 463 81 372 -14 252 -14 c 0
 136 -14 46 72 74 230 c 0
209 230 m 0
 195 148 242 102 310 102 c 0
 366 102 438 146 453 230 c 0
 468 314 411 358 355 358 c 0
 287 358 223 312 209 230 c 0
409 618 m 1
 296 530 l 1
 218 592 l 1
 429 732 l 1
 591 592 l 1
 491 530 l 1
 409 618 l 1
EndSplineSet
EndChar

StartChar: atilde.alt
Encoding: 65540 -1 344
Width: 602
VWidth: 0
Flags: HW
LayerCount: 2
Fore
SplineSet
495 460 m 1
 623 460 l 1
 542 0 l 1
 414 0 l 1
 495 460 l 1
74 230 m 0
 102 388 222 474 338 474 c 0
 458 474 515 379 489 230 c 0
 463 81 372 -14 252 -14 c 0
 136 -14 46 72 74 230 c 0
209 230 m 0
 195 148 242 102 310 102 c 0
 366 102 438 146 453 230 c 0
 468 314 411 358 355 358 c 0
 287 358 223 312 209 230 c 0
226 589 m 1
 245 638 300 679 358 679 c 0
 424 679 425 630 481 630 c 0
 505 630 527 649 553 681 c 1
 605 616 l 1
 582 579 522 534 464 534 c 0
 409 534 387 586 339 586 c 0
 300 586 285 549 282 534 c 1
 226 589 l 1
EndSplineSet
EndChar

StartChar: adieresis.alt
Encoding: 65541 -1 345
Width: 602
VWidth: 0
Flags: HW
LayerCount: 2
Fore
SplineSet
495 460 m 1
 623 460 l 1
 542 0 l 1
 414 0 l 1
 495 460 l 1
74 230 m 0
 102 388 222 474 338 474 c 0
 458 474 515 379 489 230 c 0
 463 81 372 -14 252 -14 c 0
 136 -14 46 72 74 230 c 0
209 230 m 0
 195 148 242 102 310 102 c 0
 366 102 438 146 453 230 c 0
 468 314 411 358 355 358 c 0
 287 358 223 312 209 230 c 0
450 615 m 0
 458 659 499 696 547 696 c 0
 595 696 624 659 616 615 c 0
 608 571 566 534 518 534 c 0
 470 534 442 571 450 615 c 0
219 615 m 0
 227 659 269 696 317 696 c 0
 365 696 392 659 384 615 c 0
 376 571 336 534 288 534 c 0
 240 534 211 571 219 615 c 0
EndSplineSet
EndChar

StartChar: aring.alt
Encoding: 65542 -1 346
Width: 602
VWidth: 0
Flags: HW
LayerCount: 2
Fore
SplineSet
495 460 m 1
 623 460 l 1
 542 0 l 1
 414 0 l 1
 495 460 l 1
74 230 m 0
 102 388 222 474 338 474 c 0
 458 474 515 379 489 230 c 0
 463 81 372 -14 252 -14 c 0
 136 -14 46 72 74 230 c 0
209 230 m 0
 195 148 242 102 310 102 c 0
 366 102 438 146 453 230 c 0
 468 314 411 358 355 358 c 0
 287 358 223 312 209 230 c 0
313 628 m 0
 325 694 386 740 450 740 c 0
 514 740 561 694 549 628 c 0
 537 562 475 518 411 518 c 0
 347 518 301 562 313 628 c 0
383 628 m 0
 378 597 397 579 422 579 c 0
 447 579 474 597 479 628 c 0
 484 659 465 678 440 678 c 0
 415 678 388 659 383 628 c 0
EndSplineSet
EndChar

StartChar: amacron.alt
Encoding: 65543 -1 347
Width: 602
VWidth: 0
Flags: HW
LayerCount: 2
Fore
SplineSet
495 460 m 1
 623 460 l 1
 542 0 l 1
 414 0 l 1
 495 460 l 1
74 230 m 0
 102 388 222 474 338 474 c 0
 458 474 515 379 489 230 c 0
 463 81 372 -14 252 -14 c 0
 136 -14 46 72 74 230 c 0
209 230 m 0
 195 148 242 102 310 102 c 0
 366 102 438 146 453 230 c 0
 468 314 411 358 355 358 c 0
 287 358 223 312 209 230 c 0
210 532 m 1
 230 646 l 1
 595 646 l 1
 575 532 l 1
 210 532 l 1
EndSplineSet
EndChar

StartChar: abreve.alt
Encoding: 65544 -1 348
Width: 602
VWidth: 0
Flags: HW
LayerCount: 2
Fore
SplineSet
495 460 m 1
 623 460 l 1
 542 0 l 1
 414 0 l 1
 495 460 l 1
74 230 m 0
 102 388 222 474 338 474 c 0
 458 474 515 379 489 230 c 0
 463 81 372 -14 252 -14 c 0
 136 -14 46 72 74 230 c 0
209 230 m 0
 195 148 242 102 310 102 c 0
 366 102 438 146 453 230 c 0
 468 314 411 358 355 358 c 0
 287 358 223 312 209 230 c 0
248 684 m 1
 339 684 l 1
 333 651 350 620 398 620 c 0
 446 620 476 651 482 684 c 1
 572 684 l 1
 558 606 489 538 384 538 c 0
 279 538 234 606 248 684 c 1
EndSplineSet
EndChar

StartChar: aogonek.alt
Encoding: 65545 -1 349
Width: 601
VWidth: 0
Flags: HW
LayerCount: 2
Fore
SplineSet
495 460 m 1
 623 460 l 1
 542 0 l 1
 414 0 l 1
 495 460 l 1
74 230 m 0
 102 388 222 474 338 474 c 0
 458 474 515 379 489 230 c 0
 463 81 372 -14 252 -14 c 0
 136 -14 46 72 74 230 c 0
209 230 m 0
 195 148 242 102 310 102 c 0
 366 102 438 146 453 230 c 0
 468 314 411 358 355 358 c 0
 287 358 223 312 209 230 c 0
507 -116 m 1
 528 -180 l 1
 509 -200 477 -220 425 -220 c 0
 355 -220 312 -184 323 -120 c 1
 420 -96 l 1
 415 -124 427 -136 453 -136 c 0
 475 -136 491 -129 507 -116 c 1
420 -96 m 1
 323 -120 l 1
 334 -56 409 -11 485 25 c 1
 522 0 l 1
 465 -26 426 -64 420 -96 c 1
EndSplineSet
EndChar

StartChar: dagger
Encoding: 8224 8224 350
Width: 613
VWidth: 0
Flags: HW
LayerCount: 2
Fore
SplineSet
185 540 m 1
 619 540 l 1
 600 430 l 1
 166 430 l 1
 185 540 l 1
368 700 m 1
 492 700 l 1
 343 -150 l 1
 219 -150 l 1
 368 700 l 1
EndSplineSet
EndChar

StartChar: daggerdbl
Encoding: 8225 8225 351
Width: 613
VWidth: 0
Flags: HW
LayerCount: 2
Fore
SplineSet
116 146 m 1
 550 146 l 1
 530 36 l 1
 96 36 l 1
 116 146 l 1
185 540 m 1
 619 540 l 1
 600 430 l 1
 166 430 l 1
 185 540 l 1
368 700 m 1
 492 700 l 1
 343 -150 l 1
 219 -150 l 1
 368 700 l 1
EndSplineSet
EndChar

StartChar: ellipsis
Encoding: 8230 8230 352
Width: 917
VWidth: 0
Flags: HW
LayerCount: 2
Fore
SplineSet
87 60 m 0
 95 104 135 140 183 140 c 0
 231 140 259 104 251 60 c 0
 243 16 202 -22 154 -22 c 0
 106 -22 79 16 87 60 c 0
387 60 m 0
 395 104 435 140 483 140 c 0
 531 140 559 104 551 60 c 0
 543 16 502 -22 454 -22 c 0
 406 -22 379 16 387 60 c 0
687 60 m 0
 695 104 735 140 783 140 c 0
 831 140 859 104 851 60 c 0
 843 16 802 -22 754 -22 c 0
 706 -22 679 16 687 60 c 0
EndSplineSet
EndChar

StartChar: uniFF10
Encoding: 65296 65296 353
Width: 615
VWidth: 0
Flags: HW
LayerCount: 2
Fore
SplineSet
227 350 m 0
 202 209 241 114 327 114 c 0
 413 114 486 209 511 350 c 0
 536 491 496 586 410 586 c 0
 324 586 252 491 227 350 c 0
87 350 m 0
 126 572 265 712 433 712 c 0
 605 712 690 572 651 350 c 0
 612 128 477 -12 305 -12 c 0
 137 -12 48 128 87 350 c 0
EndSplineSet
EndChar

StartChar: uniFF11
Encoding: 65297 65297 354
Width: 615
VWidth: 0
Flags: HW
LayerCount: 2
Fore
SplineSet
201 517 m 1
 224 646 l 1
 544 712 l 1
 418 0 l 1
 278 0 l 1
 377 560 l 1
 201 517 l 1
EndSplineSet
EndChar

StartChar: uniFF12
Encoding: 65298 65298 355
Width: 615
VWidth: 0
Flags: HW
LayerCount: 2
Fore
SplineSet
17 0 m 1
 393 332 l 2
 456 389 496 432 506 488 c 0
 515 537 490 587 420 587 c 0
 348 587 288 530 273 446 c 1
 131 446 l 1
 157 595 275 713 446 713 c 0
 614 713 674 596 655 491 c 0
 642 417 590 355 523 302 c 2
 311 132 l 1
 604 132 l 1
 581 0 l 1
 17 0 l 1
EndSplineSet
EndChar

StartChar: uniFF13
Encoding: 65299 65299 356
Width: 615
VWidth: 0
Flags: HW
LayerCount: 2
Fore
SplineSet
332 340 m 1
 344 410 l 1
 426 410 485 457 495 512 c 0
 503 560 481 594 423 594 c 0
 367 594 317 556 308 504 c 1
 174 504 l 1
 195 624 304 712 444 712 c 0
 590 712 659 626 640 520 c 0
 620 406 489 340 332 340 c 1
309 -14 m 0
 149 -14 71 91 92 211 c 1
 235 211 l 1
 223 143 271 105 335 105 c 0
 399 105 450 139 461 204 c 0
 473 270 425 312 327 312 c 1
 340 388 l 1
 510 388 627 331 602 190 c 0
 581 69 467 -14 309 -14 c 0
EndSplineSet
EndChar

StartChar: uniFF14
Encoding: 65300 65300 357
Width: 615
VWidth: 0
Flags: HW
LayerCount: 2
Fore
SplineSet
37 129 m 1
 174 237 l 1
 459 237 l 0
 478 252 l 0
 636 252 l 1
 615 129 l 1
 37 129 l 1
181 164 m 1
 37 129 l 1
 515 700 l 25
 615 700 l 1
 492 0 l 1
 342 0 l 1
 371 165 l 0
 387 176 l 0
 439 471 l 1
 181 164 l 1
EndSplineSet
EndChar

StartChar: uniFF15
Encoding: 65301 65301 358
Width: 615
VWidth: 0
Flags: HW
LayerCount: 2
Fore
SplineSet
614 226 m 0
 585 62 435 -12 300 -12 c 0
 171 -12 98 38 48 96 c 1
 136 208 l 1
 175 156 236 120 296 120 c 0
 385 120 447 162 460 238 c 0
 473 314 412 355 338 355 c 0
 280 355 216 345 138 305 c 1
 250 384 l 1
 310 438 375 457 443 457 c 0
 556 457 639 370 614 226 c 0
388 574 m 1
 299 391 l 1
 138 305 l 1
 303 700 l 1
 685 700 l 1
 663 574 l 1
 388 574 l 1
EndSplineSet
EndChar

StartChar: uniFF16
Encoding: 65302 65302 359
Width: 615
VWidth: 0
Flags: HW
LayerCount: 2
Fore
SplineSet
219 241 m 0
 205 163 252 110 326 110 c 0
 400 110 464 163 478 241 c 0
 492 319 447 374 373 374 c 0
 299 374 233 319 219 241 c 0
441 698 m 1
 623 698 l 1
 353 434 l 1
 325 425 l 1
 365 460 399 469 447 469 c 0
 554 469 644 379 620 241 c 0
 591 77 455 -14 305 -14 c 0
 155 -14 49 77 78 241 c 0
 90 311 131 370 180 420 c 2
 441 698 l 1
EndSplineSet
EndChar

StartChar: uniFF17
Encoding: 65303 65303 360
Width: 615
VWidth: 0
Flags: HW
LayerCount: 2
Fore
SplineSet
144 566 m 1
 167 700 l 1
 715 700 l 1
 254 0 l 1
 100 0 l 1
 478 566 l 1
 144 566 l 1
EndSplineSet
EndChar

StartChar: uniFF18
Encoding: 65304 65304 361
Width: 615
VWidth: 0
Flags: HW
LayerCount: 2
Fore
SplineSet
186 531 m 0
 206 643 318 714 442 714 c 0
 566 714 654 643 634 531 c 0
 612 409 492 346 377 346 c 0
 262 346 164 409 186 531 c 0
319 516 m 0
 310 464 342 428 391 428 c 0
 440 428 486 464 495 516 c 0
 504 568 475 606 423 606 c 0
 371 606 328 568 319 516 c 0
102 190 m 0
 127 332 270 394 385 394 c 0
 500 394 623 332 598 190 c 0
 576 68 448 -14 314 -14 c 0
 180 -14 80 68 102 190 c 0
247 211 m 0
 235 143 279 105 335 105 c 0
 391 105 447 143 459 211 c 0
 469 269 428 316 372 316 c 0
 316 316 257 269 247 211 c 0
EndSplineSet
EndChar

StartChar: uniFF19
Encoding: 65305 65305 362
Width: 615
VWidth: 0
Flags: HW
LayerCount: 2
Fore
SplineSet
517 459 m 0
 531 537 485 590 411 590 c 0
 337 590 272 537 258 459 c 0
 244 381 290 326 364 326 c 0
 438 326 503 381 517 459 c 0
296 2 m 1
 114 2 l 1
 385 266 l 1
 412 275 l 1
 372 240 339 231 291 231 c 0
 184 231 93 321 117 459 c 0
 146 623 283 714 433 714 c 0
 583 714 688 623 659 459 c 0
 647 389 606 330 557 280 c 2
 296 2 l 1
EndSplineSet
EndChar

StartChar: caron
Encoding: 711 711 363
Width: 480
VWidth: 0
Flags: HW
LayerCount: 2
Fore
SplineSet
358 670 m 1
 470 758 l 1
 549 696 l 1
 338 556 l 1
 177 696 l 1
 278 758 l 1
 358 670 l 1
EndSplineSet
EndChar

StartChar: napostrophe
Encoding: 329 329 364
Width: 713
VWidth: 0
Flags: HW
LayerCount: 2
Fore
SplineSet
429 460 m 1
 348 0 l 1
 218 0 l 1
 299 460 l 1
 429 460 l 1
564 280 m 2
 575 340 558 374 504 374 c 0
 450 374 407 338 397 280 c 1
 365 276 l 1
 384 385 463 470 571 470 c 0
 679 470 722 408 702 294 c 2
 650 0 l 1
 515 0 l 1
 564 280 l 2
239 700 m 1
 378 700 l 1
 234 452 l 1
 142 452 l 1
 239 700 l 1
EndSplineSet
EndChar

StartChar: IJ
Encoding: 306 306 365
Width: 583
VWidth: 0
Flags: HW
LayerCount: 2
Fore
SplineSet
197 -76 m 1
 211 -96 239 -109 271 -109 c 0
 301 -109 340 -88 351 -26 c 2
 479 700 l 1
 631 700 l 1
 498 -56 l 2
 476 -182 376 -234 260 -234 c 0
 190 -234 129 -202 101 -178 c 1
 197 -76 l 1
199 700 m 1
 345 700 l 1
 222 0 l 1
 76 0 l 1
 199 700 l 1
EndSplineSet
EndChar

StartChar: ij
Encoding: 307 307 366
Width: 534
VWidth: 0
Flags: HW
LayerCount: 2
Fore
SplineSet
432 638 m 0
 439 680 481 712 525 712 c 0
 569 712 596 680 589 638 c 0
 582 596 542 564 498 564 c 0
 454 564 425 596 432 638 c 0
225 -88 m 1
 235 -108 250 -114 268 -114 c 0
 298 -114 320 -91 329 -39 c 2
 417 460 l 1
 543 460 l 1
 450 -68 l 2
 432 -172 365 -234 259 -234 c 0
 199 -234 167 -206 151 -186 c 1
 225 -88 l 1
170 638 m 0
 177 680 218 712 262 712 c 0
 306 712 333 680 326 638 c 0
 319 596 279 564 235 564 c 0
 191 564 163 596 170 638 c 0
153 460 m 1
 279 460 l 1
 198 0 l 1
 72 0 l 1
 153 460 l 1
EndSplineSet
EndChar

StartChar: uni0237
Encoding: 567 567 367
Width: 264
VWidth: 0
Flags: HW
LayerCount: 2
Fore
SplineSet
-45 -88 m 1
 -35 -108 -20 -114 -2 -114 c 0
 28 -114 50 -91 59 -39 c 2
 147 460 l 1
 274 460 l 1
 181 -68 l 2
 163 -172 97 -234 -9 -234 c 0
 -69 -234 -101 -206 -117 -186 c 1
 -45 -88 l 1
EndSplineSet
EndChar

StartChar: Sacute
Encoding: 346 346 368
Width: 602
VWidth: 0
Flags: HW
LayerCount: 2
Fore
SplineSet
183 244 m 1
 213 156 255 108 333 108 c 0
 395 108 435 138 444 190 c 0
 456 258 390 282 315 313 c 0
 250 339 143 393 166 524 c 0
 186 638 298 714 434 714 c 0
 573 714 636 633 651 562 c 1
 529 496 l 1
 509 550 479 589 418 589 c 0
 362 589 322 562 314 518 c 0
 304 464 377 438 456 408 c 0
 540 376 617 316 595 194 c 0
 571 59 463 -18 307 -18 c 0
 183 -18 90 57 66 172 c 1
 183 244 l 1
651 924 m 1
 444 774 l 1
 379 814 l 1
 557 974 l 1
 651 924 l 1
EndSplineSet
EndChar

StartChar: sacute
Encoding: 347 347 369
Width: 440
VWidth: 0
Flags: HW
LayerCount: 2
Fore
SplineSet
116 170 m 1
 157 111 204 88 244 88 c 0
 278 88 300 98 305 126 c 0
 312 165 252 179 202 202 c 0
 146 229 92 261 106 340 c 0
 121 424 209 470 301 470 c 0
 379 470 443 438 476 396 c 1
 404 314 l 1
 378 348 328 370 291 370 c 0
 257 370 234 361 230 336 c 0
 225 306 283 290 335 268 c 0
 395 242 450 206 437 130 c 0
 419 26 345 -17 237 -17 c 0
 143 -17 70 28 36 90 c 1
 116 170 l 1
518 680 m 1
 311 530 l 1
 244 569 l 1
 423 729 l 1
 518 680 l 1
EndSplineSet
EndChar

StartChar: Scircumflex
Encoding: 348 348 370
Width: 602
VWidth: 0
Flags: HW
LayerCount: 2
Fore
SplineSet
183 244 m 1
 213 156 255 108 333 108 c 0
 395 108 435 138 444 190 c 0
 456 258 390 282 315 313 c 0
 250 339 143 393 166 524 c 0
 186 638 298 714 434 714 c 0
 573 714 636 633 651 562 c 1
 529 496 l 1
 509 550 479 589 418 589 c 0
 362 589 322 562 314 518 c 0
 304 464 377 438 456 408 c 0
 540 376 617 316 595 194 c 0
 571 59 463 -18 307 -18 c 0
 183 -18 90 57 66 172 c 1
 183 244 l 1
460 863 m 1
 348 774 l 1
 269 836 l 1
 480 976 l 1
 641 836 l 1
 541 774 l 1
 460 863 l 1
EndSplineSet
EndChar

StartChar: scircumflex
Encoding: 349 349 371
Width: 440
VWidth: 0
Flags: HW
LayerCount: 2
Fore
SplineSet
116 170 m 1
 157 111 204 88 244 88 c 0
 278 88 300 98 305 126 c 0
 312 165 252 179 202 202 c 0
 146 229 92 261 106 340 c 0
 121 424 209 470 301 470 c 0
 379 470 443 438 476 396 c 1
 404 314 l 1
 378 348 328 370 291 370 c 0
 257 370 234 361 230 336 c 0
 225 306 283 290 335 268 c 0
 395 242 450 206 437 130 c 0
 419 26 345 -17 237 -17 c 0
 143 -17 70 28 36 90 c 1
 116 170 l 1
337 619 m 1
 223 530 l 1
 145 592 l 1
 357 732 l 1
 518 592 l 1
 417 530 l 1
 337 619 l 1
EndSplineSet
EndChar
